<svg id="Layer_1" data-name="Layer 1" xmlns="http://www.w3.org/2000/svg" width="400" height="400" viewBox="0 0 400 400"><defs><style>.cls-1{fill:#e31d1a;}.cls-2{fill:none;}</style></defs><title>3Artboard 1</title><path class="cls-1" d="M381.79,171.13H127.84v60h96.84c.07,1.45.17,2.5.17,3.56q0,75.43.06,150.85c0,2.6-.47,3.69-3.4,4-43.72,5.06-84.39-3.71-121.18-27.91C53,330.5,24.37,286.35,16.08,230.49,7,169.64,21.59,114.53,63.17,68c27.71-31,62.63-49.56,103.62-56.22,59.33-9.64,111.63,5.65,156,46.18,31.06,28.36,50,63.81,58,105.09.43,2.22.81,4.46,1.18,6.69A5.76,5.76,0,0,1,381.79,171.13Z"/><path class="cls-1" d="M292.36,231.34h85.26c-10.15,54.14-38.52,95.54-85.26,125.2Z"/><rect class="cls-2" x="162" y="127" width="108" height="108"/></svg>