<?xml version="1.0" encoding="UTF-8"?>
<svg width="41px" height="41px" viewBox="0 0 41 41" version="1.1" xmlns="http://www.w3.org/2000/svg" xmlns:xlink="http://www.w3.org/1999/xlink">
    <!-- Generator: Sketch 54.1 (76490) - https://sketchapp.com -->
    <title>Screenshot 2023-10-13 at 1.17.17 PM</title>
    <desc>Created with Sketch.</desc>
    <g id="logos" stroke="none" stroke-width="1" fill="none" fill-rule="evenodd">
        <g id="Screenshot-2023-10-13-at-1.17.17-PM" fill="#FFFFFF" fill-rule="nonzero">
            <path d="M17.76,8.02 C7.82,10.21 3.96,22.46 10.97,29.29 C19.04,37.17 32.09,32.45 32.83,21.13 C32.8566667,20.71 33.08,20.5 33.5,20.5 L39.49,20.49 C39.6581936,20.4896325 39.8189121,20.5587071 39.9329911,20.6803914 C40.0470702,20.8020758 40.1040335,20.9651951 40.09,21.13 C38.93,35.81 24.08,45.16 10.73,38.01 C-0.05,32.24 -3.08,17.36 4.72,8 C10.56,1 16.86,0.55 25.31,0.8 C25.61,0.806666667 25.76,0.96 25.76,1.26 L25.75,7.26 C25.7500849,7.40857447 25.6900817,7.55068041 25.5841181,7.65285962 C25.4781545,7.75503883 25.3355933,7.80826274 25.19,7.8 C21.5833333,7.64666667 19.1066667,7.72 17.76,8.02 Z" id="Path"></path>
            <path d="M32.67,7.75 L29.56,7.76 C29.377746,7.76 29.23,7.61225397 29.23,7.43 L29.24,1.08 C29.24,0.897746033 29.387746,0.75 29.57,0.75 L39.67,0.74 C39.852254,0.74 40,0.887746033 40,1.07 L40,16.43 C40,16.5175214 39.9652322,16.6014582 39.9033452,16.6633452 C39.8414582,16.7252322 39.7575214,16.76 39.67,16.76 L33.33,16.76 C33.2424786,16.76 33.1585418,16.7252322 33.0966548,16.6633452 C33.0347678,16.6014582 33,16.5175214 33,16.43 L33,8.08 C33,7.89774603 32.852254,7.75 32.67,7.75 L32.67,7.75 Z" id="Path"></path>
        </g>
    </g>
</svg>