<svg width="1860" height="297" viewBox="0 0 1860 297" fill="none" xmlns="http://www.w3.org/2000/svg">
<g clip-path="url(#clip0_0_3)">
<path d="M848.5 295.78C795.2 299.57 738.34 283.78 717 229.72C710.24 212.59 708.03 193.37 708.93 174.87C712.05 110.72 743.73 51.59 800.86 20.45C822.933 8.41667 846.563 1.91667 871.75 0.950005C927.2 -1.18 984.97 16.26 997.07 78.29C999.423 90.3833 1000.11 102.563 999.14 114.83C999.127 114.983 999.043 115.06 998.89 115.06H912.27C911.677 115.06 911.41 114.767 911.47 114.18C913.7 92.29 903.32 74.12 880.66 70.24C865.12 67.58 851.253 70.5933 839.06 79.28C813.22 97.68 804.17 137.97 800.93 168.01C798.46 190.96 801.12 218.26 828.01 225.42C838.73 228.28 851.28 228.33 861.81 225.03C881.93 218.74 894.65 200.71 900.55 181.14C900.61 180.943 900.732 180.77 900.898 180.648C901.063 180.526 901.264 180.46 901.47 180.46L988.98 180.47C989.018 180.47 989.055 180.479 989.088 180.496C989.122 180.512 989.151 180.536 989.173 180.565C989.196 180.594 989.211 180.628 989.217 180.664C989.223 180.699 989.221 180.736 989.21 180.77C970.34 246.27 916.65 290.95 848.5 295.78Z" fill="#0059A2"/>
<path d="M407.46 252.05H315.85C315.791 252.05 315.733 252.067 315.684 252.099C315.634 252.131 315.595 252.176 315.57 252.23L298.92 289.09C298.895 289.144 298.856 289.189 298.806 289.221C298.757 289.253 298.699 289.27 298.64 289.27L209.47 289.26C209.415 289.262 209.361 289.249 209.313 289.222C209.265 289.196 209.225 289.158 209.196 289.111C209.168 289.065 209.152 289.011 209.151 288.957C209.15 288.902 209.164 288.848 209.19 288.8L359.16 8.60998C359.187 8.56019 359.228 8.51894 359.278 8.49072C359.327 8.4625 359.383 8.44843 359.44 8.45001L452.41 8.45999C452.483 8.45862 452.554 8.48291 452.61 8.52862C452.667 8.57434 452.706 8.63855 452.72 8.70999L503.85 288.9C503.859 288.945 503.858 288.991 503.847 289.035C503.836 289.079 503.815 289.12 503.787 289.155C503.758 289.191 503.722 289.219 503.681 289.239C503.64 289.259 503.595 289.269 503.55 289.27H412.2C412.123 289.27 412.048 289.242 411.991 289.19C411.933 289.138 411.897 289.067 411.89 288.99L407.77 252.33C407.763 252.253 407.727 252.182 407.669 252.13C407.612 252.078 407.537 252.05 407.46 252.05ZM343.97 192.64C343.947 192.692 343.937 192.749 343.941 192.805C343.945 192.862 343.963 192.917 343.994 192.964C344.025 193.012 344.067 193.051 344.117 193.079C344.167 193.106 344.223 193.12 344.28 193.12H401.74C401.787 193.119 401.834 193.108 401.877 193.088C401.92 193.068 401.958 193.039 401.989 193.003C402.02 192.967 402.043 192.925 402.057 192.88C402.071 192.835 402.076 192.787 402.07 192.74L390.31 93.79C390.299 93.7188 390.265 93.6529 390.215 93.6019C390.164 93.5509 390.098 93.5174 390.026 93.5063C389.955 93.4952 389.882 93.507 389.818 93.54C389.754 93.573 389.702 93.6255 389.67 93.69L343.97 192.64Z" fill="#0059A2"/>
<path d="M108.34 201.58C108.178 201.58 108.021 201.639 107.896 201.745C107.772 201.851 107.688 201.998 107.66 202.16L92.39 288.72C92.3234 289.087 92.1 289.27 91.72 289.27H0.799995C0.740564 289.269 0.681972 289.256 0.628272 289.23C0.574573 289.205 0.527069 289.168 0.48902 289.122C0.450972 289.077 0.423304 289.023 0.407935 288.966C0.392566 288.909 0.389851 288.849 0.400001 288.79L49.36 8.99999C49.4133 8.67333 49.61 8.51 49.95 8.51C94.6767 8.39 139.35 8.39331 183.97 8.51998C209.87 8.59998 238.74 11.38 260.69 26.06C291.02 46.34 294.58 80.86 285.89 113.74C277.04 147.2 257.53 173.54 225.68 187.89C188.18 204.8 148.12 201.35 108.34 201.58ZM160.25 136.01C183.44 135.77 198.88 121.92 200.24 98.49C201.49 76.93 173.43 73.59 158.25 73.66C149.077 73.7067 139.933 73.7433 130.82 73.77C130.646 73.7696 130.477 73.8306 130.344 73.9421C130.21 74.0537 130.121 74.2087 130.09 74.38L119.05 135.76C119.04 135.82 119.043 135.881 119.059 135.94C119.075 135.998 119.103 136.053 119.142 136.1C119.181 136.146 119.23 136.184 119.284 136.21C119.339 136.236 119.399 136.249 119.46 136.25C133.013 136.23 146.61 136.15 160.25 136.01Z" fill="#0059A2"/>
<path d="M612.5 102.72L677.35 8.59001C677.38 8.54611 677.42 8.51033 677.467 8.48589C677.514 8.46145 677.567 8.44913 677.62 8.45003L777.92 8.46001C777.979 8.45954 778.038 8.47564 778.089 8.50648C778.139 8.53733 778.181 8.58171 778.208 8.63466C778.235 8.68761 778.246 8.74703 778.241 8.80626C778.237 8.86549 778.215 8.9222 778.18 8.97002L643.05 185.35C643.019 185.391 642.998 185.439 642.99 185.49L624.81 289.01C624.796 289.084 624.756 289.151 624.697 289.198C624.639 289.246 624.565 289.271 624.49 289.27H533.16C533.113 289.269 533.067 289.258 533.025 289.238C532.983 289.218 532.946 289.189 532.916 289.152C532.887 289.116 532.866 289.074 532.854 289.029C532.843 288.983 532.841 288.936 532.85 288.89L551.01 186.85C551.021 186.789 551.014 186.727 550.99 186.67L478.17 8.89003C478.15 8.84119 478.143 8.78821 478.149 8.73582C478.154 8.68344 478.173 8.63327 478.202 8.58974C478.232 8.54621 478.272 8.51069 478.319 8.48631C478.365 8.46194 478.417 8.44947 478.47 8.45003H580.28C580.347 8.45086 580.411 8.4725 580.465 8.51195C580.519 8.55139 580.559 8.60667 580.58 8.67003L611.94 102.64C611.96 102.695 611.994 102.743 612.039 102.78C612.084 102.817 612.138 102.84 612.196 102.849C612.254 102.857 612.312 102.849 612.366 102.827C612.419 102.804 612.466 102.767 612.5 102.72Z" fill="#0059A2"/>
<path d="M1093.95 180.7L1075.13 289.01C1075.12 289.087 1075.07 289.156 1075.01 289.205C1074.95 289.255 1074.88 289.281 1074.8 289.28L983.45 289.27C983.402 289.269 983.355 289.258 983.311 289.237C983.268 289.217 983.23 289.186 983.199 289.149C983.169 289.112 983.147 289.069 983.135 289.022C983.123 288.976 983.121 288.927 983.13 288.88L1032.17 8.71999C1032.18 8.64322 1032.23 8.57395 1032.29 8.52452C1032.35 8.47509 1032.42 8.4487 1032.5 8.45L1123.87 8.45998C1123.92 8.46063 1123.97 8.47176 1124.01 8.4926C1124.05 8.51344 1124.09 8.5435 1124.12 8.58064C1124.15 8.61778 1124.17 8.6611 1124.19 8.70763C1124.2 8.75415 1124.2 8.80275 1124.19 8.84999L1107.35 102.86C1107.34 102.907 1107.34 102.956 1107.36 103.002C1107.37 103.049 1107.39 103.092 1107.42 103.129C1107.45 103.166 1107.49 103.197 1107.53 103.217C1107.57 103.238 1107.62 103.249 1107.67 103.25L1194.2 103.24C1194.28 103.241 1194.35 103.215 1194.41 103.165C1194.47 103.116 1194.52 103.047 1194.53 102.97L1211.29 8.73C1211.3 8.65323 1211.35 8.58396 1211.41 8.53453C1211.47 8.4851 1211.54 8.45868 1211.62 8.45998H1302.92C1302.97 8.46063 1303.02 8.47176 1303.06 8.4926C1303.1 8.51344 1303.14 8.5435 1303.17 8.58064C1303.2 8.61778 1303.22 8.6611 1303.24 8.70763C1303.25 8.75415 1303.25 8.80275 1303.24 8.84999L1254.25 289C1254.24 289.077 1254.19 289.146 1254.13 289.195C1254.07 289.245 1254 289.271 1253.92 289.27H1162.6C1162.55 289.269 1162.5 289.258 1162.46 289.237C1162.42 289.217 1162.38 289.186 1162.35 289.149C1162.32 289.112 1162.3 289.069 1162.28 289.022C1162.27 288.976 1162.27 288.927 1162.28 288.88L1181.09 180.83C1181.1 180.783 1181.1 180.734 1181.09 180.688C1181.07 180.641 1181.05 180.598 1181.02 180.561C1180.99 180.523 1180.95 180.493 1180.91 180.473C1180.87 180.452 1180.82 180.441 1180.77 180.44L1094.28 180.43C1094.2 180.429 1094.13 180.455 1094.07 180.505C1094.01 180.554 1093.96 180.623 1093.95 180.7Z" fill="#0059A2"/>
<path d="M1639.07 143.04L1573.39 8.95001C1573.36 8.89714 1573.35 8.8388 1573.36 8.78037C1573.36 8.72193 1573.38 8.66525 1573.41 8.61551C1573.44 8.56577 1573.48 8.52455 1573.53 8.49564C1573.58 8.46672 1573.64 8.45105 1573.7 8.45001H1676.15C1676.22 8.44976 1676.29 8.47169 1676.35 8.51285C1676.41 8.55401 1676.46 8.61238 1676.48 8.67999L1703.54 79.48C1703.56 79.5388 1703.6 79.5904 1703.65 79.6294C1703.7 79.6684 1703.76 79.6933 1703.82 79.7015C1703.88 79.7097 1703.95 79.7009 1704 79.676C1704.06 79.6511 1704.11 79.611 1704.15 79.56L1756.36 8.59C1756.39 8.54653 1756.43 8.51124 1756.48 8.48694C1756.53 8.46264 1756.59 8.45001 1756.64 8.45001H1858.91C1858.98 8.45074 1859.04 8.47058 1859.1 8.50723C1859.15 8.54389 1859.2 8.59579 1859.23 8.6568C1859.25 8.71782 1859.26 8.7854 1859.25 8.85153C1859.24 8.91767 1859.21 8.9796 1859.17 9.03L1741.15 143.07C1741.11 143.122 1741.08 143.185 1741.07 143.253C1741.06 143.32 1741.07 143.389 1741.1 143.45L1810.99 288.78C1811.02 288.834 1811.03 288.893 1811.02 288.952C1811.02 289.011 1811 289.069 1810.97 289.119C1810.94 289.169 1810.89 289.21 1810.84 289.238C1810.79 289.266 1810.73 289.281 1810.67 289.28L1707.53 289.27C1707.46 289.271 1707.39 289.251 1707.33 289.211C1707.27 289.172 1707.23 289.116 1707.2 289.05L1676.62 210.5C1676.6 210.441 1676.56 210.39 1676.51 210.351C1676.46 210.312 1676.4 210.287 1676.34 210.279C1676.28 210.27 1676.21 210.279 1676.15 210.304C1676.1 210.329 1676.05 210.369 1676.01 210.42L1617.45 289.14C1617.42 289.183 1617.38 289.219 1617.33 289.243C1617.28 289.267 1617.22 289.28 1617.17 289.28L1284.82 289.27C1284.77 289.271 1284.72 289.26 1284.67 289.239C1284.62 289.218 1284.58 289.186 1284.55 289.147C1284.52 289.108 1284.49 289.062 1284.48 289.012C1284.46 288.963 1284.46 288.911 1284.47 288.86L1334.25 8.73999C1334.26 8.6596 1334.31 8.58662 1334.37 8.53366C1334.43 8.48071 1334.51 8.45114 1334.59 8.45001H1562.84C1562.89 8.45071 1562.94 8.46238 1562.99 8.48422C1563.03 8.50607 1563.07 8.53756 1563.1 8.57654C1563.14 8.61552 1563.16 8.66106 1563.17 8.70999C1563.19 8.75893 1563.19 8.8101 1563.18 8.85999L1551.35 73.46C1551.34 73.5404 1551.29 73.6134 1551.23 73.6663C1551.17 73.7193 1551.09 73.7489 1551.01 73.75H1414.62C1414.54 73.7511 1414.46 73.7807 1414.4 73.8337C1414.34 73.8866 1414.29 73.9596 1414.28 74.04L1407.4 113.34C1407.39 113.391 1407.39 113.443 1407.41 113.492C1407.42 113.542 1407.45 113.588 1407.48 113.627C1407.51 113.666 1407.55 113.698 1407.6 113.719C1407.65 113.74 1407.7 113.751 1407.75 113.75H1522.8C1522.85 113.749 1522.9 113.76 1522.95 113.781C1523 113.802 1523.04 113.834 1523.07 113.873C1523.1 113.912 1523.13 113.958 1523.14 114.008C1523.16 114.057 1523.16 114.109 1523.15 114.16L1512.02 178.73C1512.01 178.81 1511.96 178.883 1511.9 178.936C1511.84 178.989 1511.76 179.019 1511.68 179.02H1396.38C1396.3 179.021 1396.22 179.051 1396.16 179.104C1396.1 179.157 1396.05 179.23 1396.04 179.31L1388.4 222.85C1388.39 222.901 1388.39 222.953 1388.41 223.002C1388.42 223.052 1388.45 223.098 1388.48 223.137C1388.51 223.176 1388.55 223.208 1388.6 223.229C1388.65 223.25 1388.7 223.261 1388.75 223.26H1529.84C1529.89 223.261 1529.94 223.272 1529.99 223.294C1530.03 223.316 1530.07 223.348 1530.1 223.387C1530.14 223.426 1530.16 223.471 1530.17 223.52C1530.19 223.569 1530.19 223.62 1530.18 223.67L1520.55 280.02C1520.54 280.095 1520.55 280.171 1520.59 280.237C1520.63 280.303 1520.68 280.356 1520.75 280.388C1520.82 280.419 1520.9 280.428 1520.97 280.412C1521.04 280.396 1521.11 280.357 1521.16 280.3L1639.02 143.42C1639.06 143.368 1639.09 143.305 1639.1 143.237C1639.11 143.17 1639.1 143.101 1639.07 143.04Z" fill="#0059A2"/>
</g>
<defs>
<clipPath id="clip0_0_3">
<rect width="1860" height="297" fill="white"/>
</clipPath>
</defs>
</svg>
