<?xml version="1.0" encoding="UTF-8"?>
<svg width="485px" height="485px" viewBox="0 0 485 485" version="1.1" xmlns="http://www.w3.org/2000/svg" xmlns:xlink="http://www.w3.org/1999/xlink">
    <!-- Generator: Sketch 54.1 (76490) - https://sketchapp.com -->
    <title>1pass-logo</title>
    <desc>Created with Sketch.</desc>
    <g id="logos" stroke="none" stroke-width="1" fill="none" fill-rule="evenodd">
        <g id="1pass-logo" fill="#1D285C" fill-rule="nonzero">
            <path d="M484.42,242.42 C484.42,376.172321 375.992321,484.6 242.24,484.6 C108.487679,484.6 0.06,376.172321 0.06,242.42 C0.06,108.667679 108.487679,0.24 242.24,0.24 C375.992321,0.24 484.42,108.667679 484.42,242.42 Z M267.84,271.12 C273.9,266.18 279.94,261.21 285.96,256.21 C288.78,253.88 288.59,246.79 288.55,243.75 C288.13,208.54 288.61,173.34 288.26,138.13 C288.2,131.836667 288.21,125.543333 288.29,119.25 C288.42,110.29 285.88,103.09 277.9,99.73 C275.613333,98.77 271.57,98.2833333 265.77,98.27 C250.383333,98.2366667 234.996667,98.2333333 219.61,98.26 C213.676667,98.2733333 209.523333,98.7166667 207.15,99.59 C198.19,102.9 196.2,110.5 196.12,119.85 C195.946667,140.603333 195.92,161.356667 196.04,182.11 C196.07,187.34 196.89,188.92 200.71,192.04 C206.583333,196.84 212.276667,201.486667 217.79,205.98 C218.81077,206.813749 219.402933,208.062006 219.402933,209.38 C219.402933,210.697994 218.81077,211.946251 217.79,212.78 C211.756667,217.693333 205.596667,222.753333 199.31,227.96 C196.64,230.16 195.99,232.5 195.99,235.75 C195.983333,278.943333 195.99,322.133333 196.01,365.32 C196.02,375.42 200.2,385.62 211.83,386.38 C228.29,387.45 245.28,386.76 261.8,386.74 C269.746667,386.726667 275.1,386.176667 277.86,385.09 C284.5,382.47 287.966667,376.853333 288.26,368.24 C288.626667,357.48 288.693333,335.336667 288.46,301.81 C288.44,298.08 287.31,295.71 284.29,293.23 C278.616667,288.563333 272.91,283.93 267.17,279.33 C263.82,276.64 264.81,273.58 267.84,271.12 Z" id="Shape"></path>
        </g>
    </g>
</svg>