<?xml version="1.0" encoding="UTF-8"?>
<svg width="77px" height="67px" viewBox="0 0 77 67" version="1.1" xmlns="http://www.w3.org/2000/svg" xmlns:xlink="http://www.w3.org/1999/xlink">
    <!-- Generator: Sketch 54.1 (76490) - https://sketchapp.com -->
    <title>Screenshot 2023-10-30 at 9.42.41 AM</title>
    <desc>Created with Sketch.</desc>
    <g id="logos" stroke="none" stroke-width="1" fill="none" fill-rule="evenodd">
        <g id="Screenshot-2023-10-30-at-9.42.41-AM" fill="#FFFFFF" fill-rule="nonzero">
            <path d="M42.42,8.18 C32.61,25.36 22.76,42.5 12.81,59.61 C12.7582049,59.7007742 12.6778637,59.7741292 12.58,59.82 L0.62,65.76 C0.538312999,65.795666 0.443010196,65.7758791 0.382272783,65.7106426 C0.32153537,65.6454061 0.308597488,65.5489346 0.35,65.47 L37.88,0.45 C37.9432811,0.344693863 38.0571428,0.280277564 38.18,0.280277564 C38.3028572,0.280277564 38.4167189,0.344693863 38.48,0.45 L42.42,7.3 C42.5933333,7.59333333 42.5933333,7.88666667 42.42,8.18 Z" id="Path"></path>
            <path d="M28.62,55.39 L19.04,57.67 C18.9215137,57.696343 18.7985532,57.6511118 18.7253817,57.5542672 C18.6522102,57.4574225 18.6422904,57.3267828 18.7,57.22 L44.66,12.19 C44.71496,12.0925758 44.8181426,12.0323155 44.93,12.0323155 C45.0418574,12.0323155 45.14504,12.0925758 45.2,12.19 L49.35,19.35 C49.4093089,19.4484224 49.4093089,19.5715776 49.35,19.67 L28.82,55.24 C28.7773438,55.3158568 28.7047663,55.37029 28.62,55.39 L28.62,55.39 Z" id="Path"></path>
            <path d="M33.88,54.26 L51.43,23.86 C51.48496,23.7625758 51.5881426,23.7023155 51.7,23.7023155 C51.8118574,23.7023155 51.91504,23.7625758 51.97,23.86 L56.11,31.12 C56.1616091,31.2133413 56.1616091,31.3266587 56.11,31.42 L42.67,54.67 C42.6156409,54.7683174 42.5123433,54.8295308 42.4,54.83 L34.15,54.73 C34.0374095,54.731635 33.9327859,54.6720894 33.8766959,54.5744513 C33.820606,54.4768131 33.8218708,54.356438 33.88,54.26 L33.88,54.26 Z" id="Path"></path>
            <path d="M62.88,43.13 L55.02,56.76 C54.9537404,56.8758043 54.8208178,56.9362237 54.69,56.91 L47.21,55.4 C47.1131178,55.3785211 47.0323738,55.3119588 46.9928064,55.2209537 C46.953239,55.1299486 46.9596309,55.0255012 47.01,54.94 L58.19,35.57 C58.24496,35.4725758 58.3481426,35.4123155 58.46,35.4123155 C58.5718574,35.4123155 58.67504,35.4725758 58.73,35.57 L62.88,42.83 C62.9316091,42.9233413 62.9316091,43.0366587 62.88,43.13 L62.88,43.13 Z" id="Path"></path>
            <path d="M69.64,54.89 L66.34,60.62 C66.2314347,60.8077738 66.0022265,60.8884211 65.8,60.81 L59.18,58.31 C59.0606469,58.2631407 58.967672,58.1665491 58.9253993,58.0454955 C58.8831266,57.9244418 58.8957621,57.7909705 58.96,57.68 L64.83,47.45 C64.9088684,47.3148849 65.0535509,47.2318107 65.21,47.2318107 C65.3664491,47.2318107 65.5111316,47.3148849 65.59,47.45 L69.64,54.45 C69.7185984,54.5861365 69.7185984,54.7538635 69.64,54.89 L69.64,54.89 Z" id="Path"></path>
            <path d="M75.69,65.93 L70.08,62.86 C69.7533333,62.68 69.6866667,62.4266667 69.88,62.1 L71.65,59.13 C71.89,58.7233333 72.13,58.7266667 72.37,59.14 L76.04,65.57 C76.34,66.0966667 76.2233333,66.2166667 75.69,65.93 Z" id="Path"></path>
        </g>
    </g>
</svg>