<?xml version="1.0" encoding="UTF-8"?>
<svg xmlns="http://www.w3.org/2000/svg" version="1.1" viewBox="0 0 128 128">
  <defs>
    <style>
      .cls-1 {
        fill: #fff;
      }

      .cls-2 {
        fill: #007da5;
      }
    </style>
  </defs>
  <!-- Generator: Adobe Illustrator 28.7.1, SVG Export Plug-In . SVG Version: 1.2.0 Build 142)  -->
  <g>
    <g id="Layer_1">
      <g>
        <path class="cls-2" d="M10,0h108c5.5,0,10,4.5,10,10v108c0,5.5-4.5,10-10,10H10c-5.5,0-10-4.5-10-10V10C0,4.5,4.5,0,10,0Z"/>
        <path class="cls-1" d="M86.6,38.4h0c-4.3-4.4-10-6.6-17.1-6.6s-7.4.7-10.7,2c-3.2,1.4-6,3.3-8.1,5.8v-8.9l-15.8,7.4v53.2h16.5v-28.7c0-5.3,1.2-9.2,3.7-11.9,2.5-2.7,5.8-4,9.9-4s6.6,1.2,8.6,3.5c2,2.3,3,5.8,3,10.5v30.7h16.5v-32.1c0-8.6-2.2-16.3-6.5-20.7"/>
      </g>
    </g>
  </g>
</svg>