<?xml version="1.0" encoding="UTF-8"?>
<svg width="107px" height="112px" viewBox="0 0 107 112" version="1.1" xmlns="http://www.w3.org/2000/svg" xmlns:xlink="http://www.w3.org/1999/xlink">
    <!-- Generator: Sketch 54.1 (76490) - https://sketchapp.com -->
    <title>Screenshot 2023-10-16 at 11.51.05 AM</title>
    <desc>Created with Sketch.</desc>
    <g id="logos" stroke="none" stroke-width="1" fill="none" fill-rule="evenodd">
        <g id="Screenshot-2023-10-16-at-11.51.05-AM" fill="#5FCD89" fill-rule="nonzero">
            <path d="M8.68,67.32 C-8.89,43.14 1.5,9.06 31.06,1.45 C34.7733333,0.496666667 40.4466667,0.0166666667 48.08,0.01 C67.4,-0.00333333333 86.73,-0.00333333333 106.07,0.01 C106.41,0.01 106.58,0.18 106.58,0.52 L106.57,11.22 C106.57,11.5666667 106.4,11.74 106.06,11.74 C84.7733333,11.7533333 63.5033333,11.7633333 42.25,11.77 C17.87,11.77 4.09,36.83 16.47,57.73 C18.51,61.17 22.05,64.13 24.93,67.32 C25.19,67.6066667 25.1266667,67.75 24.74,67.75 L9.52,67.75 C9.16666667,67.75 8.88666667,67.6066667 8.68,67.32 Z" id="Path"></path>
            <path d="M36.9,46.35 C43.3933333,53.33 50.1366667,60.17 57.13,66.87 C57.7366667,67.45 57.6166667,67.74 56.77,67.74 L41.7,67.75 C41.36,67.75 41.0666667,67.63 40.82,67.39 C37.0466667,63.69 33.32,59.96 29.64,56.2 C27.0933333,53.5866667 25.3666667,51.1866667 24.46,49 C19.41,36.76 27.96,22.8 41.5,22.78 C63.0266667,22.74 84.5533333,22.7333333 106.08,22.76 C106.353908,22.7653201 106.57468,22.9860915 106.58,23.26 L106.58,34.14 C106.58,34.54 106.38,34.74 105.98,34.74 C85.5733333,34.7533333 65.1833333,34.7566667 44.81,34.75 C39.27,34.75 34.16,35.99 34.88,42.42 C35.0266667,43.7533333 35.7,45.0633333 36.9,46.35 Z" id="Path"></path>
            <path d="M65,77.25 C71.25,77.25 74.11,69.56 69.48,65.01 C62.6933333,58.3433333 55.9633333,51.5966667 49.29,44.77 C48.9633333,44.43 49.0366667,44.26 49.51,44.26 L64.99,44.25 C65.2907081,44.2500364 65.5793358,44.3727031 65.79,44.59 C70.71,49.61 77.92,55.66 80.97,60.77 C88.58,73.51 78.83,89.24 64.25,89.25 C43.0033333,89.2566667 21.76,89.2533333 0.52,89.24 C0.173333333,89.24 0,89.0666667 0,88.72 L0,77.78 C0,77.4333333 0.173333333,77.26 0.52,77.26 C22.02,77.2466667 43.5133333,77.2433333 65,77.25 Z" id="Path"></path>
            <path d="M73.89,98.72 C93.02,92.87 100.22,70.69 89.71,53.71 C88.5233333,51.7966667 85.81,48.8266667 81.57,44.8 C81.19,44.44 81.2633333,44.26 81.79,44.26 L96.93,44.25 C97.2633333,44.25 97.5333333,44.3833333 97.74,44.65 C115.9,68.36 104.32,102.83 75.86,110.47 C72.1466667,111.47 66.0266667,111.973333 57.5,111.98 C38.5466667,112.013333 19.5466667,112.016667 0.5,111.99 C0.223857625,111.99 0,111.766142 0,111.49 L0,100.76 C0,100.42 0.173333333,100.25 0.52,100.25 C19.6666667,100.263333 38.8033333,100.256667 57.93,100.23 C65.3166667,100.223333 70.6366667,99.72 73.89,98.72 Z" id="Path"></path>
        </g>
    </g>
</svg>