<?xml version="1.0" encoding="UTF-8"?>
<svg width="36px" height="37px" viewBox="0 0 36 37" version="1.1" xmlns="http://www.w3.org/2000/svg" xmlns:xlink="http://www.w3.org/1999/xlink">
    <!-- Generator: Sketch 54.1 (76490) - https://sketchapp.com -->
    <title>logo</title>
    <desc>Created with Sketch.</desc>
    <g id="logos" stroke="none" stroke-width="1" fill="none" fill-rule="evenodd">
        <g id="logo" fill="#FFFFFF">
            <path d="M19.8,0.26 L19.06,9.38 C18.71,9.34 18.36,9.32 18,9.32 C17.55,9.32 17.11,9.35 16.68,9.42 L16.26,5 C16.25,4.86 16.36,4.74 16.5,4.74 L17.25,4.74 L16.89,0.27 C16.88,0.13 16.99,0.01 17.12,0.01 L19.57,0.01 C19.71,0.01 19.82,0.13 19.8,0.27 L19.8,0.27 L19.8,0.26 Z M13.62,0.71 C13.58,0.58 13.44,0.5 13.31,0.55 L11.01,1.39 C10.88,1.44 10.82,1.59 10.88,1.71 L12.75,5.79 L12.04,6.05 C11.91,6.1 11.85,6.25 11.91,6.37 L13.82,10.38 C14.51,10 15.26,9.71 16.05,9.53 L13.63,0.71 L13.62,0.71 Z M7.98,3.25 L13.27,10.71 C12.6,11.15 11.99,11.67 11.47,12.27 L8.3,9.15 C8.2,9.05 8.21,8.89 8.31,8.8 L8.89,8.32 L5.74,5.13 C5.64,5.03 5.65,4.87 5.76,4.78 L7.63,3.21 C7.74,3.12 7.89,3.14 7.97,3.25 L7.98,3.25 Z M3.54,7.57 C3.43,7.49 3.27,7.53 3.2,7.65 L1.98,9.77 C1.91,9.89 1.96,10.04 2.08,10.1 L6.14,12.02 L5.76,12.67 C5.69,12.79 5.74,12.95 5.87,13 L9.91,14.85 C10.2,14.1 10.59,13.4 11.07,12.77 L3.54,7.57 Z M0.55,13.33 C0.57,13.19 0.71,13.11 0.84,13.14 L9.69,15.45 C9.46,16.2 9.33,16.99 9.31,17.81 L4.88,17.45 C4.74,17.44 4.64,17.31 4.67,17.17 L4.8,16.43 L0.33,16.01 C0.19,16 0.1,15.87 0.12,15.73 L0.54,13.32 L0.54,13.32 L0.55,13.33 Z M0.22,19.31 C0.08,19.32 -0.01,19.45 0.01,19.59 L0.44,22 C0.46,22.14 0.6,22.22 0.73,22.19 L5.07,21.06 L5.2,21.8 C5.22,21.94 5.36,22.02 5.49,21.99 L9.77,20.81 C9.52,20.07 9.36,19.28 9.32,18.47 L0.21,19.31 L0.22,19.31 Z M1.64,25.65 C1.57,25.53 1.62,25.38 1.74,25.32 L10,21.4 C10.31,22.14 10.73,22.83 11.23,23.45 L7.61,26.03 C7.5,26.11 7.34,26.08 7.27,25.96 L6.89,25.3 L3.2,27.85 C3.09,27.93 2.93,27.89 2.86,27.77 L1.63,25.65 L1.64,25.65 Z M11.65,23.93 L5.22,30.44 C5.12,30.54 5.13,30.7 5.24,30.79 L7.12,32.36 C7.23,32.45 7.38,32.43 7.46,32.32 L10.06,28.66 L10.64,29.15 C10.75,29.24 10.91,29.22 10.99,29.1 L13.51,25.44 C12.83,25.02 12.2,24.51 11.66,23.93 L11.65,23.93 Z M10.38,34.38 C10.25,34.33 10.19,34.18 10.25,34.06 L14.06,25.74 C14.76,26.1 15.52,26.37 16.31,26.52 L15.19,30.82 C15.16,30.95 15.01,31.03 14.88,30.98 L14.17,30.72 L12.98,35.05 C12.94,35.18 12.8,35.26 12.67,35.21 L10.37,34.37 L10.37,34.37 L10.38,34.38 Z M16.94,26.63 L16.2,35.75 C16.19,35.89 16.3,36.01 16.43,36.01 L18.88,36.01 C19.02,36.01 19.13,35.89 19.11,35.75 L18.75,31.28 L19.5,31.28 C19.64,31.28 19.75,31.16 19.74,31.02 L19.32,26.6 C18.89,26.67 18.45,26.7 18,26.7 C17.64,26.7 17.29,26.68 16.94,26.63 L16.94,26.63 Z M25.76,1.94 C25.82,1.81 25.76,1.67 25.63,1.62 L23.33,0.78 C23.2,0.73 23.06,0.81 23.02,0.94 L21.83,5.27 L21.12,5.01 C20.99,4.96 20.85,5.04 20.81,5.17 L19.69,9.47 C20.49,9.63 21.24,9.9 21.94,10.25 L25.76,1.94 L25.76,1.94 Z M30.78,5.57 L24.35,12.08 C23.81,11.5 23.19,10.99 22.5,10.57 L25.02,6.91 C25.1,6.8 25.26,6.77 25.37,6.86 L25.95,7.35 L28.55,3.69 C28.63,3.58 28.79,3.56 28.89,3.65 L30.77,5.22 C30.88,5.31 30.88,5.47 30.79,5.57 L30.78,5.57 Z M34.26,10.69 C34.39,10.63 34.43,10.48 34.36,10.36 L33.13,8.24 C33.06,8.12 32.9,8.09 32.79,8.16 L29.1,10.71 L28.72,10.06 C28.65,9.94 28.49,9.9 28.38,9.99 L24.76,12.57 C25.26,13.19 25.67,13.88 25.99,14.62 L34.25,10.7 L34.26,10.69 Z M35.56,14.01 L35.98,16.42 C36,16.56 35.91,16.68 35.77,16.7 L26.66,17.55 C26.62,16.73 26.46,15.95 26.21,15.21 L30.49,14.03 C30.62,13.99 30.76,14.08 30.78,14.22 L30.91,14.96 L35.25,13.83 C35.38,13.8 35.52,13.88 35.54,14.02 L35.54,14.02 L35.56,14.01 Z M35.15,22.86 C35.28,22.89 35.42,22.81 35.44,22.67 L35.86,20.26 C35.88,20.12 35.79,20 35.65,19.98 L31.18,19.56 L31.31,18.82 C31.33,18.68 31.24,18.56 31.1,18.54 L26.67,18.18 C26.65,19 26.52,19.79 26.29,20.54 L35.14,22.85 L35.14,22.85 L35.15,22.86 Z M32.79,28.36 C32.72,28.48 32.56,28.51 32.45,28.44 L24.92,23.24 C25.4,22.61 25.79,21.91 26.08,21.16 L30.12,23.01 C30.25,23.07 30.3,23.22 30.23,23.34 L29.85,23.99 L33.91,25.91 C34.03,25.97 34.08,26.12 34.01,26.24 L32.79,28.36 L32.79,28.36 L32.79,28.36 Z M22.72,25.29 L28.01,32.75 C28.09,32.86 28.25,32.88 28.35,32.79 L30.22,31.22 C30.33,31.13 30.33,30.97 30.24,30.87 L27.09,27.68 L27.67,27.2 C27.78,27.11 27.78,26.95 27.68,26.85 L24.51,23.73 C23.98,24.33 23.38,24.86 22.71,25.29 L22.71,25.29 L22.72,25.29 Z M22.67,35.45 C22.54,35.5 22.4,35.42 22.36,35.29 L19.94,26.47 C20.73,26.29 21.48,26 22.17,25.62 L24.08,29.63 C24.14,29.76 24.08,29.91 23.95,29.95 L23.24,30.21 L25.11,34.29 C25.17,34.42 25.11,34.56 24.98,34.61 L22.68,35.45 L22.68,35.45 L22.67,35.45 Z" id="Shape"></path>
        </g>
    </g>
</svg>