<?xml version="1.0" encoding="UTF-8"?>
<svg width="63px" height="72px" viewBox="0 0 63 72" version="1.1" xmlns="http://www.w3.org/2000/svg" xmlns:xlink="http://www.w3.org/1999/xlink">
    <!-- Generator: Sketch 54.1 (76490) - https://sketchapp.com -->
    <title>Screenshot 2023-10-18 at 12.13.15 PM</title>
    <desc>Created with Sketch.</desc>
    <g id="logos" stroke="none" stroke-width="1" fill="none" fill-rule="evenodd">
        <g id="Screenshot-2023-10-18-at-12.13.15-PM" transform="translate(0.000000, -1.000000)" fill="#FFFFFF" fill-rule="nonzero">
            <path d="M3.2336801e-15,53.8 L3.2336801e-15,20.2 C-0.00055009365,19.3420128 0.456961028,18.5489935 1.2,18.12 L30.31,1.3 C31.0525626,0.871281292 31.9674374,0.871281292 32.71,1.3 L61.8,18.1 C62.543039,18.5289935 63.0005501,19.3220128 63,20.18 L63,53.81 C63.0005501,54.6679872 62.543039,55.4610065 61.8,55.89 L32.72,72.7 C31.9774374,73.1287187 31.0625626,73.1287187 30.32,72.7 L1.2,55.88 C0.456961028,55.4510065 -0.00055009365,54.6579872 3.2336801e-15,53.8 Z M26.53,8.55 L8.66,18.89 C8.24666667,19.1233333 8.23333333,19.3666667 8.62,19.62 L16.5,24.73 C16.8266667,24.9433333 17.0933333,24.88 17.3,24.54 L26.75,8.77 C26.7886136,8.70692894 26.7789719,8.62561272 26.7266796,8.57332043 C26.6743873,8.52102814 26.5930711,8.51138642 26.53,8.55 Z M36.44,9.03 L45.82,24.66 C45.8916806,24.7851118 46.0121716,24.8750154 46.1536881,24.9089794 C46.2952047,24.9429433 46.4455301,24.9180357 46.57,24.84 L54.59,19.7 C54.9766667,19.4533333 54.97,19.2133333 54.57,18.98 L36.77,8.71 C36.2433333,8.40333333 36.1333333,8.51 36.44,9.03 Z M31.79,9.83 C31.7297279,9.73336731 31.6238885,9.67464249 31.51,9.67464249 C31.3961115,9.67464249 31.2902721,9.73336731 31.23,9.83 L20.84,27.14 C20.7541036,27.2926196 20.8023881,27.4857574 20.95,27.58 L31.39,34.32 C31.4994333,34.3912182 31.6405667,34.3912182 31.75,34.32 L42.17,27.67 C42.3199399,27.5720002 42.3643221,27.3722803 42.27,27.22 L31.79,9.83 Z M12.79,32.07 L14.45,29.29 C14.6433333,28.9633333 14.5833333,28.6966667 14.27,28.49 L7.75,24.28 C7.64050564,24.2109406 7.49794513,24.2259443 7.4052267,24.3162853 C7.31250827,24.4066263 7.29380746,24.5487491 7.36,24.66 L11.84,32.07 C12.16,32.5966667 12.4766667,32.5966667 12.79,32.07 Z M54.47,24.97 L48.89,28.58 C48.6059436,28.7636896 48.5176537,29.1389215 48.69,29.43 L50.33,32.23 C50.5433333,32.5966667 50.76,32.6 50.98,32.24 L55.03,25.51 C55.61,24.5366667 55.4233333,24.3566667 54.47,24.97 Z M58.2,45.28 C58.2725342,45.3894282 58.4077947,45.4389822 58.5338539,45.4023104 C58.6599132,45.3656386 58.7474845,45.2512609 58.75,45.12 L58.75,28.9 C58.7474845,28.7687391 58.6599132,28.6543614 58.5338539,28.6176896 C58.4077947,28.5810178 58.2725342,28.6305718 58.2,28.74 L53.32,36.86 C53.2664102,36.9528203 53.2664102,37.0671797 53.32,37.16 L58.2,45.28 Z M4.92,45.14 L9.53,37.53 C9.67666667,37.2833333 9.67666667,37.0333333 9.53,36.78 L4.93,29.09 C4.64333333,28.61 4.5,28.65 4.5,29.21 L4.5,45.03 C4.5,45.5633333 4.64,45.6 4.92,45.14 Z M14.97,36.93 C14.9089075,37.0315175 14.9089075,37.1584825 14.97,37.26 L18.21,42.63 C18.2552971,42.7042265 18.3288508,42.7568227 18.4137364,42.7756861 C18.498622,42.7945496 18.5875291,42.7780558 18.66,42.73 L27.1,37.33 C27.1923289,37.2712666 27.2482444,37.1694269 27.2482444,37.06 C27.2482444,36.9505731 27.1923289,36.8487334 27.1,36.79 L18.72,31.33 C18.6475291,31.2819442 18.558622,31.2654504 18.4737364,31.2843139 C18.3888508,31.3031773 18.3152971,31.3557735 18.27,31.43 L14.97,36.93 Z M44.32,42.66 C44.3924709,42.7080558 44.481378,42.7245496 44.5662636,42.7056861 C44.6511492,42.6868227 44.7247029,42.6342265 44.77,42.56 L48.06,37.16 C48.1251882,37.0560406 48.1251882,36.9239594 48.06,36.82 L44.83,31.55 C44.7847029,31.4757735 44.7111492,31.4231773 44.6262636,31.4043139 C44.541378,31.3854504 44.4524709,31.4019442 44.38,31.45 L36.07,36.77 C35.9776711,36.8287334 35.9217556,36.9305731 35.9217556,37.04 C35.9217556,37.1494269 35.9776711,37.2512666 36.07,37.31 L44.32,42.66 Z M42.2,46.87 C42.293338,46.7207895 42.248661,46.5242107 42.1,46.43 L31.73,39.75 C31.6260406,39.6848118 31.4939594,39.6848118 31.39,39.75 L20.93,46.51 C20.781339,46.6042107 20.736662,46.8007895 20.83,46.95 L31.21,64.17 C31.2687334,64.2623289 31.3705731,64.3182444 31.48,64.3182444 C31.5894269,64.3182444 31.6912666,64.2623289 31.75,64.17 L42.2,46.87 Z M12.07,41.77 L7.3,49.73 C7.27018206,49.7845375 7.27989251,49.8522048 7.32384387,49.8961561 C7.36779524,49.9401075 7.43546253,49.9498179 7.49,49.92 L14.25,45.53 C14.5366667,45.3366667 14.59,45.0933333 14.41,44.8 L12.54,41.77 C12.38,41.51 12.2233333,41.51 12.07,41.77 Z M48.46,44.98 C48.3819124,45.1187451 48.4258074,45.2943249 48.56,45.38 L55.11,49.61 C55.7366667,50.0166667 55.86,49.9 55.48,49.26 L50.98,41.76 C50.7733333,41.4133333 50.5666667,41.4133333 50.36,41.76 L48.46,44.98 Z M8.66,55.12 L26.24,65.28 C26.7533333,65.5733333 26.8566667,65.4666667 26.55,64.96 L17.27,49.49 C17.0833333,49.17 16.8333333,49.11 16.52,49.31 L8.63,54.38 C8.23666667,54.6333333 8.24666667,54.88 8.66,55.12 Z M36.64,65.36 L54.39,55.12 C54.8166667,54.8733333 54.8233333,54.6166667 54.41,54.35 L46.51,49.27 C46.1966667,49.07 45.9466667,49.13 45.76,49.45 L36.37,65.09 C36.11,65.53 36.2,65.62 36.64,65.36 Z" id="Shape"></path>
        </g>
    </g>
</svg>