<?xml version="1.0" encoding="UTF-8"?>
<svg width="366px" height="366px" viewBox="0 0 366 366" version="1.1" xmlns="http://www.w3.org/2000/svg" xmlns:xlink="http://www.w3.org/1999/xlink">
    <!-- Generator: Sketch 54.1 (76490) - https://sketchapp.com -->
    <title>cdnlogo.com_us-general-services-administration</title>
    <desc>Created with Sketch.</desc>
    <g id="Page-1" stroke="none" stroke-width="1" fill="none" fill-rule="evenodd">
        <g id="cdnlogo.com_us-general-services-administration" fill-rule="nonzero">
            <polygon id="XMLID_3_" fill="#00538E" points="0.5 0.2 365.5 0.2 365.5 365.9 0.5 365.9"></polygon>
            <path d="M221.2,269.9 C221.2,295.6 201.1,306.3 177.8,305.5 C169.6,305.2 161.5,303.1 152.8,300.3 L154.8,281.8 C162.2,284.8 171.8,288.2 179.8,288 C190.3,287.8 200.8,283 200.8,270.8 C200.8,261.4 193.3,256.8 186.1,253.2 C170.1,245.1 151.6,239.4 151.6,216.7 C151.6,195.2 168.7,184 189.9,184 C197.6,184 206.8,185.3 216,188.6 L213.2,206.8 C203.2,202.9 198.8,201.5 190.5,201.5 C181.4,201.5 172,204.7 172,215.2 C172,223.4 180.5,227.7 186.7,230.8 C203.8,239.4 221.2,246.4 221.2,269.9" id="XMLID_4_" fill="#FFFFFF"></path>
            <path d="M125.6,300 C118.2,302.5 106.9,305.5 88.8,305.5 C51.8,305.5 27,281.6 27,244.3 C27,208.1 53.3,184.1 89,184.1 C105.9,184.1 113.5,186.6 124.2,190.3 L122.6,210.6 C112.7,204.2 104.4,201.6 89.8,201.6 C64.3,201.6 47.2,220.1 47.4,244.9 C47.5,271.6 66.1,288.2 89,288.2 C95.8,288.2 101.7,287.7 105.8,286.6 L105.8,256.2 L83.7,256.2 L83.7,239 L125.5,239 L125.5,300" id="XMLID_5_" fill="#FFFFFF"></path>
            <polyline id="XMLID_6_" fill="#FFFFFF" points="287 181.5 315.1 244.2 295.5 244.2 287 223.4 278.5 244.2 258.9 244.2 287 181.5"></polyline>
            <polyline id="XMLID_7_" fill="#FFFFFF" points="315.5 244.9 341.7 303.5 321.1 303.5 301.5 258 315.5 244.9"></polyline>
            <polyline id="XMLID_8_" fill="#FFFFFF" points="258.5 245 272.5 258 262.2 281.6 287 268.6 301.2 279.6 252.4 303.5 232.3 303.5 258.5 245"></polyline>
        </g>
    </g>
</svg>