<?xml version="1.0" encoding="UTF-8"?>
<svg width="128px" height="36px" viewBox="0 0 128 36" version="1.1" xmlns="http://www.w3.org/2000/svg" xmlns:xlink="http://www.w3.org/1999/xlink">
    <!-- Generator: Sketch 54.1 (76490) - https://sketchapp.com -->
    <title>logo</title>
    <desc>Created with Sketch.</desc>
    <g id="logos" stroke="none" stroke-width="1" fill="none" fill-rule="evenodd">
        <g id="logo" fill="#0E281D" fill-rule="nonzero">
            <path d="M44.44,34.85 C40.78,36.47 36.07,35.07 35.98,30.43 C35.7866667,20.9033333 35.72,11.3633333 35.78,1.81 C35.7866667,0.756666667 36.29,0.22 37.29,0.2 C38.29,0.17 39.78,0.21 40.73,0.64 C41.0766667,0.8 41.25,1.06666667 41.25,1.44 L41.25,29.53 C41.25,29.99 41.4766667,30.25 41.93,30.31 L44.34,30.64 C44.6538566,30.6824363 44.8930919,30.93846 44.91,31.25 L45.04,33.88 C45.06,34.34 44.86,34.6633333 44.44,34.85 Z" id="Path"></path>
            <path d="M13.52,0.75 L17.75,0.75 C18.1570148,0.750915394 18.5219953,1.00084767 18.67,1.38 L31.17,33.76 C31.2857182,34.0546355 31.2535659,34.3868421 31.0834927,34.6538175 C30.9134194,34.920793 30.6259342,35.090343 30.31,35.11 L27.2,35.3 C26.7763236,35.3278558 26.3820597,35.0824466 26.22,34.69 L23.68,28.37 C23.5288097,27.994777 23.1645372,27.7492889 22.76,27.75 L8.36,27.75 C7.94933667,27.7467799 7.57932408,27.9974336 7.43,28.38 L5.04,34.56 C4.89067592,34.9425664 4.52066333,35.1932201 4.11,35.19 L1,35.19 C0.673348843,35.189266 0.36808438,35.027449 0.184131338,34.7575179 C0.000178296095,34.4875868 -0.0387833634,34.1442894 0.08,33.84 L12.6,1.38 C12.7480047,1.00084767 13.1129852,0.750915394 13.52,0.75 Z M9.87,22.28 C9.83075493,22.3875246 9.84656653,22.5074449 9.91234032,22.6011228 C9.9781141,22.6948006 10.0855379,22.7503974 10.2,22.75 L20.94,22.75 C21.0544621,22.7503974 21.1618859,22.6948006 21.2276597,22.6011228 C21.2934335,22.5074449 21.3092451,22.3875246 21.27,22.28 L15.9,8.38 C15.8505727,8.24013413 15.7183426,8.14661904 15.57,8.14661904 C15.4216574,8.14661904 15.2894273,8.24013413 15.24,8.38 L9.87,22.28 Z" id="Shape"></path>
            <path d="M116.75,12.74 L116.75,10.03 C116.749943,9.83995071 116.827155,9.65782724 116.964356,9.52438519 C117.101557,9.39094314 117.287293,9.31732318 117.48,9.32 L120.96,9.37 C121.394099,9.37546141 121.744674,9.73047389 121.75,10.17 C121.756667,15.8633333 121.753333,21.5266667 121.74,27.16 C121.73,30.13 123.1,31.89 126.23,30.7 C126.67,30.5333333 126.956667,30.6766667 127.09,31.13 L127.79,33.59 C127.896667,33.9566667 127.78,34.2266667 127.44,34.4 C122.713333,36.7733333 119.326667,35.6966667 117.28,31.17 C117.106667,30.79 116.893333,30.7633333 116.64,31.09 C112.16,36.86 103.89,36.77 99.32,32.52 C93.56,27.17 93.48,16.81 99.58,11.58 C104.13,7.68 112.3,7.64 116.18,12.93 C116.56,13.45 116.75,13.3866667 116.75,12.74 Z M108.2755,31.05 C112.837355,31.0420239 116.528539,27.0688243 116.52,22.1756 C116.515906,19.8257712 115.641723,17.5737022 114.089764,15.914828 C112.537804,14.2559538 110.435198,13.3261626 108.2445,13.33 C103.682645,13.3379761 99.9914612,17.3111757 100,22.2044 C100.004094,24.5542288 100.878277,26.8062978 102.430236,28.465172 C103.982196,30.1240462 106.084802,31.0538374 108.2755,31.05 Z" id="Shape"></path>
            <path d="M56.2,12.34 C61.14,7.98 67.48,7.49 71.71,12.9 C71.93,13.18 72.1566667,13.19 72.39,12.93 C76.71,8.13 85.84,7.08 89.01,13.32 C91.34,17.88 90.28,28.83 90.24,34.5 C90.2346323,34.8622613 89.9422613,35.1546323 89.58,35.16 L85.9,35.21 C85.3066667,35.2166667 85.01,34.9233333 85.01,34.33 C84.9966667,29.3566667 84.98,24.42 84.96,19.52 C84.93,12.9 77.22,12.35 74.07,16.85 C72.03,19.76 72.99,30.61 73.01,34.47 C73.0154617,34.8361746 72.7215186,35.1390251 72.35,35.15 L68.58,35.25 C68.3617306,35.255391 68.1505283,35.1724379 67.9942704,35.0199452 C67.8380124,34.8674525 67.7499334,34.6583359 67.75,34.44 C67.75,29.2733333 67.7466667,24.13 67.74,19.01 C67.73,11.69 56.08,12.32 56.02,20.66 C55.9866667,25.0533333 55.9833333,29.48 56.01,33.94 C56.0127977,34.2970773 55.8708069,34.6400539 55.6164301,34.8906622 C55.3620533,35.1412704 55.0169958,35.2781266 54.66,35.27 L51.26,35.2 C50.8535099,35.1945426 50.5253133,34.861911 50.52,34.45 C50.4733333,28.09 50.4733333,21.7766667 50.52,15.51 C50.5333333,14.33 49.8433333,13.9533333 48.45,14.38 C48.2671804,14.4380982 48.0679407,14.4111274 47.9071471,14.3065147 C47.7463535,14.2019019 47.6409638,14.0306802 47.62,13.84 L47.25,10.51 C47.2195501,10.2220834 47.3917486,9.94738579 47.67,9.84 C51.0633333,8.53333333 53.7066667,9.33666667 55.6,12.25 C55.7666667,12.5166667 55.9666667,12.5466667 56.2,12.34 Z" id="Path"></path>
        </g>
    </g>
</svg>