<?xml version="1.0" encoding="UTF-8"?>
<svg width="60px" height="49px" viewBox="0 0 60 49" version="1.1" xmlns="http://www.w3.org/2000/svg" xmlns:xlink="http://www.w3.org/1999/xlink">
    <!-- Generator: Sketch 54.1 (76490) - https://sketchapp.com -->
    <title>Screenshot 2023-10-09 at 9.30.12 AM</title>
    <desc>Created with Sketch.</desc>
    <g id="logos" stroke="none" stroke-width="1" fill="none" fill-rule="evenodd">
        <g id="Screenshot-2023-10-09-at-9.30.12-AM" transform="translate(0.000000, -1.000000)" fill-rule="nonzero">
            <path d="M49.17,37.17 C49.03,28.4166667 45.25,23.8366667 37.83,23.43 C29.04,22.94 11.45,33.31 7.47,18.87 C6.22333333,14.39 6.97333333,10.1 9.72,6 C9.87789568,5.76632628 9.87516769,5.45944109 9.71314289,5.22861124 C9.5511181,4.99778139 9.26342678,4.89091853 8.99,4.96 C8.05,5.2 7.12,4.94 6.2,4.18 C14.39,-1.69 24.59,0.87 29.46,9.28 C29.5403089,9.41951249 29.689024,9.50550056 29.85,9.50550056 C30.010976,9.50550056 30.1596911,9.41951249 30.24,9.28 C38.5,-5.42 61.16,0.65 59.78,18.02 C59.2133333,25.1466667 55.6766667,31.53 49.17,37.17 Z" id="Path" fill="#FFFFFF"></path>
            <path d="M6.2,4.18 C7.12,4.94 8.05,5.2 8.99,4.96 C9.26342678,4.89091853 9.5511181,4.99778139 9.71314289,5.22861124 C9.87516769,5.45944109 9.87789568,5.76632628 9.72,6 C6.97333333,10.1 6.22333333,14.39 7.47,18.87 C5.07,17.5766667 2.64333333,17.59 0.19,18.91 C-0.416666667,12.67 1.58666667,7.76 6.2,4.18 Z" id="Path" fill="#EFEFEF"></path>
            <path d="M7.47,18.87 C11.45,33.31 29.04,22.94 37.83,23.43 C45.25,23.8366667 49.03,28.4166667 49.17,37.17 L46.25,39.56 C46.5633333,38.4333333 46.3133333,37.8466667 45.5,37.8 C35.5933333,37.18 24.46,37.3233333 12.1,38.23 C5.88,33.7633333 1.91,27.3233333 0.19,18.91 C2.64333333,17.59 5.07,17.5766667 7.47,18.87 Z" id="Path" fill="#F3F3F3"></path>
            <path d="M46.25,39.56 C41.33,43.4066667 35.9866667,46.71 30.22,49.47 C29.94,49.6033333 29.6566667,49.6066667 29.37,49.48 C23.4833333,46.8666667 17.7266667,43.1166667 12.1,38.23 C24.46,37.3233333 35.5933333,37.18 45.5,37.8 C46.3133333,37.8466667 46.5633333,38.4333333 46.25,39.56 Z" id="Path" fill="#FFFFFF"></path>
        </g>
    </g>
</svg>