<?xml version="1.0" encoding="UTF-8"?>
<svg width="45px" height="40px" viewBox="0 0 45 40" version="1.1" xmlns="http://www.w3.org/2000/svg" xmlns:xlink="http://www.w3.org/1999/xlink">
    <!-- Generator: Sketch 54.1 (76490) - https://sketchapp.com -->
    <title>logo</title>
    <desc>Created with Sketch.</desc>
    <g id="logos" stroke="none" stroke-width="1" fill="none" fill-rule="evenodd">
        <g id="logo" fill-rule="nonzero">
            <path d="M22.2398,1.83855 L29.6012,3.33095 L30.6484,2.18888 C33.201,-0.592742 37.4863,-0.743384 40.2214,1.85256 L40.6141,2.22391 C43.3286,4.80584 43.494,9.13242 40.9827,11.9175 L39.6358,13.1892 L39.8046,13.7883 C40.8139,13.8864 41.8129,14.0756 42.7912,14.3558 C43.8419,14.6922 44.5343,15.7116 44.4688,16.8327 L44.0003,20.329 L43.2907,20.7143 L42.6603,22.8549 C42.0541,24.9989 41.4547,26.4562 40.2008,27.5808 L38.2786,34.64 L27.748,40 L16.7178,40 L6.19753,34.647 L4.27535,27.5878 C3.02146,26.4562 2.41863,25.0059 1.81579,22.8619 L1.1854,20.7213 L0.475783,20.336 L0.00385022,16.8432 C-0.0581555,15.7221 0.634242,14.7062 1.68489,14.3664 C2.66321,14.0896 3.66219,13.9039 4.6715,13.8093 L4.8403,13.2103 L3.49339,11.9386 C0.968384,9.14643 1.13373,4.80935 3.86198,2.22391 L4.25469,1.85256 C6.98983,-0.739881 11.2751,-0.589239 13.8277,2.18888 L14.8749,3.33095 L22.2363,1.83855 L22.2398,1.83855 Z" id="Path" fill="#FFFFFF"></path>
            <path d="M22.6873,31.4032 C23.7896,31.3051 26.4903,30.8777 26.2492,29.2031 C26.1631,28.6671 25.7669,27.4865 22.2326,28.2572 C18.6914,27.49 18.2987,28.6671 18.216,29.2031 C17.9783,30.8742 20.6583,31.3016 21.7572,31.4032 L21.7572,32.9481 L18.216,32.9481 L18.5433,34.1497 L25.8978,34.1497 L26.2251,32.9481 L22.6839,32.9481 L22.6839,31.4032 L22.6873,31.4032 Z" id="Path" fill="#1B1D3F"></path>
            <path d="M22.2408,3.76974 L14.2214,5.39528 L12.4715,3.48948 C10.6182,1.46808 7.50758,1.35597 5.51995,3.24075 L5.12725,3.60509 C3.13617,5.48636 3.0225,8.64984 4.86889,10.6747 C4.87233,10.6783 4.87578,10.6853 4.88267,10.6888 L6.92541,12.6086 L6.109,15.5619 C3.47721,15.7615 2.24743,16.1609 2.22676,16.1749 C1.98218,16.2625 1.82717,16.5112 1.85472,16.774 L2.17509,19.1422 L2.31632,19.2193 C2.76414,19.461 2.87782,19.8184 3.4841,21.9799 L3.59088,22.3618 C4.24883,24.702 4.80344,25.7284 5.89543,26.5272 L7.7556,33.3656 L17.1047,38.1686 L27.3632,38.1686 L36.7123,33.3656 L38.5793,26.5272 C39.6748,25.7284 40.2259,24.7055 40.8839,22.3618 L40.9907,21.9799 C41.5969,19.8219 41.7106,19.4575 42.1584,19.2193 L42.2997,19.1422 L42.6235,16.774 C42.6476,16.5112 42.496,16.2625 42.248,16.1749 C42.2308,16.1749 40.9976,15.758 38.3658,15.5619 L37.5528,12.6086 L39.599,10.6958 C41.4591,8.68487 41.3661,5.51789 39.3854,3.62611 C39.3785,3.6191 39.3716,3.6121 39.3647,3.60509 L38.972,3.23374 C36.9878,1.34546 33.8738,1.45406 32.0205,3.46846 C32.0205,3.46846 32.0136,3.47547 32.0102,3.47897 L30.2602,5.38476 L22.2477,3.76624 L22.2408,3.76974 Z M22.2477,5.93829 L33.8841,8.54124 L36.1267,15.4743 L35.0726,15.4743 C33.3846,15.4883 31.6967,15.6074 30.0225,15.8351 C29.0856,15.9612 28.152,16.1224 27.2219,16.3116 C26.4675,16.4797 25.8613,16.6304 25.3239,16.767 C24.1423,17.0648 23.3569,17.2645 22.258,17.268 L22.2305,17.268 C21.1282,17.268 20.3462,17.0683 19.1647,16.767 C18.6307,16.6304 18.0244,16.4762 17.2666,16.3116 C16.3331,16.1084 15.3995,15.9472 14.4591,15.8281 C12.785,15.6004 11.1005,15.4778 9.41253,15.4673 L8.3481,15.4673 L10.5975,8.53774 L22.2339,5.93829 L22.2408,5.93829 L22.2477,5.93829 Z M6.98742,25.4412 C6.49482,25.0768 6.09867,24.5969 5.82998,24.0398 C5.52684,23.4057 5.33393,22.7261 5.25126,22.0289 C4.89645,19.4085 5.26848,18.5256 5.52339,18.2279 C5.75419,17.9581 6.04355,17.7479 6.36736,17.6148 C6.95642,17.3836 7.57647,17.2399 8.21031,17.1944 C8.92337,17.1243 9.63988,17.0893 10.3564,17.0963 C11.0212,17.0963 11.7756,17.1173 12.5817,17.1594 C12.6058,17.1594 15.2824,17.4046 16.8257,17.9476 C17.5835,18.2139 18.6135,18.6448 18.8271,19.3349 C19.0406,20.0251 18.8787,21.7592 18.4929,22.6841 C17.9865,23.7561 17.2321,24.6879 16.2986,25.3991 C15.7853,25.7529 14.342,26.5762 12.0374,26.5762 L11.9858,26.5762 C10.2289,26.5657 8.82692,26.338 7.80727,25.8966 C7.52136,25.774 7.24578,25.6233 6.99431,25.4412 L6.98742,25.4412 Z M35.2551,32.143 L26.9567,36.4065 L17.5249,36.4065 L9.22651,32.143 L7.94506,27.4275 C9.22651,27.7358 10.539,27.89 11.8549,27.89 C12.4646,27.89 13.0709,27.8584 13.6771,27.7849 C16.9979,27.3855 18.6583,25.266 18.9545,24.8456 C19.6125,23.9172 20.3565,22.2672 20.9973,20.7748 C21.2246,20.2493 22.1237,20.2247 22.2408,20.2247 C22.3579,20.2247 23.257,20.2493 23.4844,20.7748 C24.1251,22.2672 24.8623,23.9172 25.5271,24.8456 C25.8268,25.266 27.4941,27.3855 30.8045,27.7849 C31.4108,27.8549 32.0171,27.89 32.6268,27.89 C33.9427,27.89 35.2551,27.7393 36.5331,27.4275 L35.2551,32.143 Z M39.2269,22.0289 C39.1443,22.7261 38.9479,23.4057 38.6482,24.0398 C38.3795,24.5934 37.9799,25.0768 37.4908,25.4412 C37.2359,25.6233 36.9637,25.774 36.6778,25.8966 C35.6582,26.338 34.2527,26.5657 32.4993,26.5762 L32.4442,26.5762 C30.1397,26.5762 28.7066,25.7529 28.183,25.3991 C27.2461,24.6915 26.4951,23.7596 25.9853,22.6911 C25.5926,21.7697 25.4272,20.0461 25.6477,19.3419 C25.8682,18.6378 26.8947,18.2209 27.6525,17.9546 C29.1924,17.4116 31.8689,17.1699 31.8965,17.1664 C32.7026,17.1278 33.4535,17.1033 34.1218,17.1033 C34.8383,17.0963 35.5548,17.1313 36.2679,17.2014 C36.8983,17.2504 37.5183,17.3906 38.1108,17.6218 C38.4346,17.7549 38.724,17.9651 38.9548,18.2349 C39.2097,18.5256 39.5818,19.4155 39.2269,22.0324 L39.2269,22.0289 Z" id="Shape" fill="#1B1D3F"></path>
        </g>
    </g>
</svg>