<?xml version="1.0" encoding="UTF-8"?>
<svg width="594px" height="80px" viewBox="0 0 594 80" version="1.1" xmlns="http://www.w3.org/2000/svg" xmlns:xlink="http://www.w3.org/1999/xlink">
    <!-- Generator: Sketch 54.1 (76490) - https://sketchapp.com -->
    <title>Screenshot 2023-10-12 at 9.27.02 AM</title>
    <desc>Created with Sketch.</desc>
    <g id="logos" stroke="none" stroke-width="1" fill="none" fill-rule="evenodd">
        <g id="Screenshot-2023-10-12-at-9.27.02-AM" fill="#FFFFFF" fill-rule="nonzero">
            <path d="M412.66,48.96 L405.83,49.29 C405.701845,49.2954567 405.577026,49.2494125 405.484496,49.1625474 C405.391966,49.0756823 405.339764,48.9555444 405.34,48.83 L405.32,39.97 C405.32,39.6633333 405.473333,39.51 405.78,39.51 L434.76,39.52 C435.086667,39.52 435.25,39.6833333 435.25,40.01 L435.25,47.46 C435.25,47.8933333 435.033333,48.1066667 434.6,48.1 C427.66,48.08 428.27,52.32 428.14,57.5 C428.006667,62.9533333 427.993333,68.4133333 428.1,73.88 C428.106667,74.2666667 427.916667,74.4633333 427.53,74.47 C424.61,74.5 421.99,74.4 419.19,75.23 C410.34,77.82 404.16,79.75 396.34,79.84 C344.73,80.42 347.86,-0.68 397.01,0.19 C403.43,0.296666667 409.646667,1.71 415.66,4.43 C416.113333,4.63666667 416.303333,4.49333333 416.23,4 L415.86,1.49 C415.836909,1.33551004 415.883095,1.17857301 415.986638,1.05969025 C416.090182,0.940807488 416.240937,0.871626105 416.4,0.87 L425.02,0.85 C425.473333,0.85 425.7,1.07333333 425.7,1.52 L425.7,26.8 C425.7,27.1333333 425.533333,27.3 425.2,27.3 L417.77,27.27 C417.45,27.27 417.263333,27.1133333 417.21,26.8 C415.81,17.64 411.12,12.0333333 403.14,9.98 C388.83,6.3 380.02,17.69 377.76,30.17 C376.14,39.1 376.94,50.35 381.12,58.61 C387.51,71.24 400.27,71.86 412.47,67.51 C412.745024,67.4158939 412.929854,67.1547209 412.93,66.86 L413.14,49.42 C413.140119,49.2944548 413.088919,49.1743159 412.998277,49.0874504 C412.907634,49.000585 412.785427,48.9545415 412.66,48.96 Z" id="Path"></path>
            <path d="M446.27,59.11 C434.41,32.61 449.64,-0.35 481.26,0.06 C493.533333,0.22 503.016667,4.74 509.71,13.62 C522.04,29.96 521.03,52.74 507.6,68.34 C497.54,80.03 478.68,82.45 464.74,77.28 C456.3,74.15 450.01,67.49 446.27,59.11 Z M480.32,70.61 C500.14,71.25 501.77,43.48 499.12,30.33 C496.95,19.53 490.98,7.6 477.61,9.45 C452.87,12.86 455.8,69.82 480.32,70.61 Z" id="Shape"></path>
            <path d="M136.57,13.58 C148.23,-1.45 170.7,-3.34 184.35,10.34 C184.553068,10.5407917 184.566101,10.8666133 184.38,11.09 L177.76,19.04 C177.672953,19.1458111 177.545579,19.210343 177.408775,19.2179432 C177.27197,19.2255435 177.138232,19.1755178 177.04,19.08 C171.746667,13.8333333 165.73,11.91 158.99,13.31 C137.48,17.78 136.83,56.11 153.3,65.34 C161.95,70.19 172,67.77 178.45,60.43 C178.552101,60.315446 178.69884,60.2507671 178.852279,60.2526851 C179.005718,60.2546031 179.150794,60.3229297 179.25,60.44 L185.83,68.18 C186.003333,68.3866667 186.003333,68.59 185.83,68.79 C180.936667,74.65 175.083333,78.09 168.27,79.11 C145.77,82.48 129.65,67.27 128.38,45.5 C127.68,33.51 129.28,22.98 136.57,13.58 Z" id="Path"></path>
            <path d="M574.78,11.36 L568.99,11.54 C568.61,11.5533333 568.42,11.37 568.42,10.99 L568.45,2.28 C568.45,1.93333333 568.623333,1.76 568.97,1.76 L593.47,1.76 C593.776667,1.76 593.93,1.91333333 593.93,2.22 L593.94,9.46 C593.94,9.76666667 593.786667,9.95333333 593.48,10.02 C588.7,11.0133333 585.336667,14.08 583.39,19.22 C575.95,38.8466667 568.57,58.5033333 561.25,78.19 C561.116667,78.55 560.856667,78.73 560.47,78.73 L551.79,78.72 C551.43,78.72 551.18,78.5566667 551.04,78.23 C542.48,58.3366667 533.966667,38.4366667 525.5,18.53 C524.946667,17.23 524.276667,14.9533333 523.49,11.7 C523.423333,11.4266667 523.25,11.2966667 522.97,11.31 L518.27,11.56 C517.883333,11.58 517.693333,11.4 517.7,11.02 L517.72,2.27 C517.726667,1.93 517.896667,1.76 518.23,1.76 L550.05,1.76 C550.348234,1.76 550.59,2.00176624 550.59,2.3 L550.58,9 C550.58,9.7 550.23,10.0933333 549.53,10.18 C543.38,10.93 542.49,12.87 544.78,18.44 C549.733333,30.4933333 554.586667,42.5566667 559.34,54.63 C559.376956,54.7233459 559.468109,54.7838251 559.56848,54.7815947 C559.668851,54.7793642 559.757227,54.7148955 559.79,54.62 L575.18,11.92 C575.32,11.5333333 575.186667,11.3466667 574.78,11.36 Z" id="Path"></path>
            <path d="M277.99,24.25 L268.04,24.25 C267.925751,24.2510984 267.817759,24.1979993 267.747386,24.1061225 C267.677012,24.0142457 267.652143,23.8938877 267.68,23.78 L268.44,20.93 C268.517457,20.634715 268.784726,20.4291228 269.09,20.43 L278.77,20.44 C279.103333,20.44 279.306667,20.2766667 279.38,19.95 L283.05,2.8 C283.123333,2.44 283.343333,2.26 283.71,2.26 L286.93,2.26 C287.383333,2.26 287.56,2.48 287.46,2.92 L283.74,19.79 C283.70348,19.9504114 283.743449,20.1187192 283.848573,20.2472046 C283.953697,20.37569 284.112516,20.4503438 284.28,20.45 L295.49,20.42 C295.62987,20.4218719 295.761269,20.4873009 295.845526,20.5970305 C295.929782,20.7067601 295.957307,20.8483024 295.92,20.98 L295.23,23.71 C295.136667,24.0766667 294.903333,24.26 294.53,24.26 L283.53,24.25 C283.143333,24.25 282.906667,24.44 282.82,24.82 C279.66,39.1333333 276.553333,53.4366667 273.5,67.73 C271.74,75.94 279.82,74.97 285.77,74.25 C285.902657,74.2320441 286.035502,74.2816386 286.123938,74.3821342 C286.212375,74.4826298 286.244676,74.6207024 286.21,74.75 L285.46,77.75 C285.393333,78.0166667 285.226667,78.1566667 284.96,78.17 C279,78.59 270.96,80.07 268.98,72.03 C268.526667,70.19 268.803333,67.1633333 269.81,62.95 C272.83,50.2633333 275.7,37.54 278.42,24.78 C278.493333,24.4266667 278.35,24.25 277.99,24.25 Z" id="Path"></path>
            <path d="M35.44,14.13 L35.45,77.89 C35.45,78.0832997 35.2932997,78.24 35.1,78.24 L22.31,78.23 C22.2171742,78.23 22.1281504,78.1931251 22.0625126,78.1274874 C21.9968749,78.0618496 21.96,77.9728258 21.96,77.88 L21.98,14.15 C21.98,13.9567003 21.8232997,13.8 21.63,13.8 L0.42,13.79 C0.226700338,13.79 0.07,13.6332997 0.07,13.44 L0.05,2.84 C0.05,2.74717423 0.0868748941,2.65815036 0.152512627,2.59251263 C0.218150359,2.52687489 0.307174229,2.49 0.4,2.49 L56.93,2.49 C57.1232997,2.49 57.28,2.64670034 57.28,2.84 L57.27,13.45 C57.27,13.6432997 57.1132997,13.8 56.92,13.8 L35.79,13.78 C35.5967003,13.78 35.44,13.9367003 35.44,14.13 Z" id="Path"></path>
            <path d="M83.73,33.22 L110.2,33.14 C110.300782,33.14 110.397437,33.1800356 110.468701,33.2512994 C110.539964,33.3225632 110.58,33.4192177 110.58,33.52 L110.55,44.12 C110.55,44.2207823 110.509964,44.3174368 110.438701,44.3887006 C110.367437,44.4599644 110.270782,44.5 110.17,44.5 L83.73,44.5 C83.6292177,44.5 83.5325632,44.5400356 83.4612994,44.6112994 C83.3900356,44.6825632 83.35,44.7792177 83.35,44.88 L83.34,66.49 C83.34,66.5907823 83.3800356,66.6874368 83.4512994,66.7587006 C83.5225632,66.8299644 83.6192177,66.87 83.72,66.87 L116.21,66.85 C116.419868,66.85 116.59,67.0201318 116.59,67.23 L116.58,77.86 C116.58,77.9607823 116.539964,78.0574368 116.468701,78.1287006 C116.397437,78.1999644 116.300782,78.24 116.2,78.24 L70.14,78.23 C69.9301318,78.23 69.76,78.0598682 69.76,77.85 L69.76,2.87 C69.76,2.6601318 69.9301318,2.49 70.14,2.49 L115.12,2.49 C115.329868,2.49 115.5,2.6601318 115.5,2.87 L115.5,13.42 C115.5,13.6298682 115.329868,13.8 115.12,13.8 L83.73,13.79 C83.6292177,13.79 83.5325632,13.8300356 83.4612994,13.9012994 C83.3900356,13.9725632 83.35,14.0692177 83.35,14.17 L83.35,32.84 C83.35,32.9407823 83.3900356,33.0374368 83.4612994,33.1087006 C83.5325632,33.1799644 83.6292177,33.22 83.73,33.22 L83.73,33.22 Z" id="Path"></path>
            <path d="M242.38,44.59 L212.54,44.61 C212.455131,44.61 212.373737,44.6437142 212.313726,44.7037258 C212.253714,44.7637375 212.22,44.8451307 212.22,44.93 L212.23,77.92 C212.23,78.0967311 212.086731,78.24 211.91,78.24 L199.07,78.23 C198.893269,78.23 198.75,78.0867311 198.75,77.91 L198.75,2.81 C198.75,2.63326888 198.893269,2.49 199.07,2.49 L211.91,2.48 C212.086731,2.48 212.23,2.62326888 212.23,2.8 L212.22,32.52 C212.22,32.6967311 212.363269,32.84 212.54,32.84 L242.37,32.84 C242.546731,32.84 242.69,32.6967311 242.69,32.52 L242.68,2.81 C242.68,2.63326888 242.823269,2.49 243,2.49 L255.92,2.49 C256.096731,2.49 256.24,2.63326888 256.24,2.81 L256.24,77.92 C256.24,78.0967311 256.096731,78.24 255.92,78.24 L243,78.23 C242.823269,78.23 242.68,78.0867311 242.68,77.91 L242.7,44.91 C242.7,44.7332689 242.556731,44.59 242.38,44.59 Z" id="Path"></path>
            <path d="M320.06,79.65 C280.03,82.9 290.83,18.53 326.23,19.24 C341.076667,19.54 348.63,27.04 348.89,41.74 C349.2,59.15 338.87,78.12 320.06,79.65 Z M341.58,57.29 C345.72,46.89 347.08,29.12 334.55,24.2 C330.87,22.76 326.96,22.3766667 322.82,23.05 C305.28,25.91 296.95,45.22 299.66,61.12 C301.33,70.9 309.24,76.59 318.76,76.11 C329.87,75.54 337.57,67.34 341.58,57.29 Z" id="Shape"></path>
        </g>
    </g>
</svg>