<svg id="Layer_1" data-name="Layer 1" xmlns="http://www.w3.org/2000/svg" width="400" height="400" viewBox="0 0 400 400"><defs><style>.cls-1{fill:#ea5424;}</style></defs><title>3Artboard 1</title><path class="cls-1" d="M32.73,191.68V168.3c.87-.38.53-1.2.59-1.82,1-10.87,2.72-21.65,6-32.06C50.3,100,61.43,65.68,72.44,31.29c1.89-5.91,4.16-11.7,5.48-17.79H320a4.64,4.64,0,0,0,.55,2.5c11.32,35.1,22.32,70.31,34.09,105.27,9.71,28.84,13.4,58,8,88.11-7.65,42.69-28.26,77.85-62.81,104.08-32.73,24.84-66.23,48.66-99.35,73-1.42,1-2.2.59-3.33-.23-32.18-23.57-64.58-46.83-96.5-70.73C62.85,287.21,41,249.28,34.18,202.59,33.65,199,33.79,195.23,32.73,191.68ZM296.07,315.59a8.29,8.29,0,0,0-.78-3.73q-17.53-54.39-35.12-108.75c-.64-2-.4-3,1.34-4.25q46.17-33.6,92.22-67.37c.84-.61,1.92-1,2.52-2.38h-3.37q-56.75,0-113.49.06c-2.43,0-3.38-.72-4.11-3Q217.72,71.37,200,16.64c-.25-.76-.58-1.49-1.07-2.73-.45,1.25-.73,1.94-1,2.66q-17.68,54.75-35.27,109.52c-.79,2.48-1.9,3.07-4.33,3.06q-56.74-.11-113.49-.05H41.91a8.88,8.88,0,0,0,2.5,2.53q46,33.63,92,67.2c1.74,1.26,2,2.29,1.33,4.25q-17.68,54.47-35.2,109c-.32,1-1.06,2-.57,3.37.77-.53,1.49-1,2.17-1.5q46.1-33.7,92.17-67.44c2-1.45,3.2-1.55,5.24,0q45.7,33.59,91.53,67C294,314.11,294.89,314.75,296.07,315.59Z"/></svg>