<?xml version="1.0" encoding="UTF-8"?>
<svg width="54px" height="54px" viewBox="0 0 54 54" version="1.1" xmlns="http://www.w3.org/2000/svg" xmlns:xlink="http://www.w3.org/1999/xlink">
    <!-- Generator: Sketch 54.1 (76490) - https://sketchapp.com -->
    <title>Screenshot 2023-10-09 at 3.16.01 PM</title>
    <desc>Created with Sketch.</desc>
    <g id="logos" stroke="none" stroke-width="1" fill="none" fill-rule="evenodd">
        <g id="Screenshot-2023-10-09-at-3.16.01-PM" fill-rule="nonzero">
            <path d="M48.1,24.36 C47.36,23.48 46.98,22.61 46.96,21.75 C48.3866667,21.5033333 49.6166667,20.9833333 50.65,20.19 C50.91,19.99 50.9866667,19.7333333 50.88,19.42 C46.05,5.68 30.27,-1.15 17.42,5.4 C-3.71,16.19 1.59,48.67 25.4,51.02 C36.91,52.15 46.73,45.64 50.98,34.84 C51.0992152,34.5416286 51.014359,34.2022039 50.77,34 C49.8166667,33.2 48.63,32.7033333 47.21,32.51 C47.1433333,31.5233333 47.4333333,30.62 48.08,29.8 C50.22,30.1733333 52.0766667,31.0966667 53.65,32.57 C53.8916937,32.7926332 54.0264053,33.1057466 54.02,33.43 C54.02,34.5033333 53.83,35.5033333 53.45,36.43 C44.65,57.91 14.29,60.94 3.72,38.9 C-7.12,16.31 15.88,-7.59 38.72,2.3 C46.12,5.5 50.65,10.71 53.56,18.19 C55.13,22.22 51.23,23.82 48.1,24.36 Z" id="Path" fill="#2B6AF6"></path>
            <path d="M46.96,21.75 C46.9066667,21.81 46.8533333,21.87 46.8,21.93 C41.5,11.21 36.84,6.64 23.82,8.36 C14.25,9.62 6.31,22.71 9.46,31.76 C13.41,43.1 20.9,47.61 33.18,45.59 C40.1,44.45 43.6,39.2 46.34,32.92 C46.6866667,32.6266667 46.9766667,32.49 47.21,32.51 C48.63,32.7033333 49.8166667,33.2 50.77,34 C51.014359,34.2022039 51.0992152,34.5416286 50.98,34.84 C46.73,45.64 36.91,52.15 25.4,51.02 C1.59,48.67 -3.71,16.19 17.42,5.4 C30.27,-1.15 46.05,5.68 50.88,19.42 C50.9866667,19.7333333 50.91,19.99 50.65,20.19 C49.6166667,20.9833333 48.3866667,21.5033333 46.96,21.75 Z" id="Path" fill="#FFFFFF"></path>
            <path d="M46.8,21.93 C39.71,22.68 38.02,17.5 32.44,15.82 C12.1,9.7 11.37,44.17 32.54,38.21 C38.21,36.61 38.92,31.52 46.34,32.92 C43.6,39.2 40.1,44.45 33.18,45.59 C20.9,47.61 13.41,43.1 9.46,31.76 C6.31,22.71 14.25,9.62 23.82,8.36 C36.84,6.64 41.5,11.21 46.8,21.93 Z" id="Path" fill="#2B6AF6"></path>
            <path d="M46.8,21.93 C46.8533333,21.87 46.9066667,21.81 46.96,21.75 C46.98,22.61 47.36,23.48 48.1,24.36 C47.9866667,24.68 47.79,24.82 47.51,24.78 C44.7233333,25.3 42.0733333,25.08 39.56,24.12 C35.87,22.71 34.38,19.3 30.07,18.97 C21.55,18.3 19.63,22.77 20.84,30.43 C21.53,34.79 26.17,35.58 30,35.22 C32.91,34.94 34.53,33.33 36.75,31.69 C39.98,29.32 43.52,28.52 47.47,29.19 C47.7233333,29.31 47.9266667,29.5133333 48.08,29.8 C47.4333333,30.62 47.1433333,31.5233333 47.21,32.51 C46.9766667,32.49 46.6866667,32.6266667 46.34,32.92 C38.92,31.52 38.21,36.61 32.54,38.21 C11.37,44.17 12.1,9.7 32.44,15.82 C38.02,17.5 39.71,22.68 46.8,21.93 Z" id="Path" fill="#6AE5EE"></path>
            <path d="M47.51,24.78 C47.89,26.2533333 47.8766667,27.7233333 47.47,29.19 C43.52,28.52 39.98,29.32 36.75,31.69 C34.53,33.33 32.91,34.94 30,35.22 C26.17,35.58 21.53,34.79 20.84,30.43 C19.63,22.77 21.55,18.3 30.07,18.97 C34.38,19.3 35.87,22.71 39.56,24.12 C42.0733333,25.08 44.7233333,25.3 47.51,24.78 Z" id="Path" fill="#2B6AF6"></path>
        </g>
    </g>
</svg>