<svg xmlns="http://www.w3.org/2000/svg" width="100%" viewBox="0 0 186 32" fill="none" aria-hidden="true"><path d="M22.557 7.2832C23.0312 6.87369 22.9261 7.20719 23.2729 7.18748C23.8513 7.15463 24.4881 5.36866 25.061 5.13691C25.5 4.95932 25.901 5.02645 26.1913 5.41234C27.087 6.60269 24.8408 7.21394 24.3476 7.83034C24.1486 8.07913 24.2304 8.3187 24.3718 8.56145L23.8277 9.13807C25.0795 10.791 26.0238 12.7541 26.154 14.8517L26.8889 14.8625C27.0691 14.922 27.0464 15.4034 27.5404 15.4235C28.3475 15.4564 30.4436 14.3919 30.5404 15.898C30.5926 16.7112 29.9154 16.8902 29.2525 16.8294C28.5337 16.7637 27.2526 16.0838 26.9958 17.0397L26.2208 17.0816C25.9178 19.1526 25.1631 21.1362 23.8317 22.7626C23.8465 22.9478 24.029 22.9675 24.1329 23.0774C24.5272 23.4942 24.2356 23.4036 24.2322 23.7563C24.2256 24.4338 26.1941 24.9985 26.351 25.7595C26.4637 26.3061 26.119 26.8719 25.5422 26.9116C24.4913 26.9839 23.9967 24.8604 23.3423 24.7865C23.1422 24.7639 22.949 24.8866 22.797 24.8465C22.629 24.8023 22.3858 24.345 22.2262 24.3692C20.5692 25.7058 18.6207 26.4322 16.5264 26.7676L16.5002 27.509C15.5009 27.8145 16.3089 29.2558 16.3481 30.0119C16.4147 31.2964 14.6689 31.3719 14.5208 30.2655C14.4398 29.6607 15.0432 28.3622 14.8248 27.8383C14.7396 27.6337 14.3711 27.5465 14.3606 27.509L14.3336 26.7683C13.6684 26.5701 12.9715 26.5076 12.3045 26.3121C10.9803 25.9239 9.73524 25.1862 8.63456 24.3692C8.47474 24.3448 8.23162 24.8023 8.06381 24.8465C7.83508 24.9065 7.57953 24.6418 7.26681 24.8959C6.95745 25.1472 6.52983 26.0527 6.22722 26.4116C5.14342 27.6969 3.85718 26.1239 4.85396 25.2525C5.20966 24.9415 6.36272 24.3777 6.55629 24.0447C6.76033 23.6938 6.45897 23.4969 6.5277 23.3154C6.57689 23.1857 7.06933 22.9632 7.04039 22.7768C5.71134 21.1133 4.96442 19.1814 4.63979 17.082L3.86535 17.0395C3.67782 16.0653 2.3232 16.765 1.60807 16.8296C0.750155 16.9072 0.116355 16.5249 0.430147 15.5812C0.78283 14.5203 2.58336 15.4551 3.32034 15.4235C3.81545 15.4022 3.79094 14.9224 3.97154 14.8627L4.70621 14.8519C4.89037 12.8013 5.72573 10.7683 7.04483 9.20093C7.07217 9.04803 6.60601 8.79143 6.5625 8.6268C6.52237 8.47497 6.64526 8.28193 6.62271 8.08197C6.57511 7.66234 5.28549 7.03156 4.92517 6.72079C3.76395 5.71885 5.23151 4.41751 6.126 5.37913C6.45933 5.73732 7.12811 7.16084 7.5877 7.18819C7.77452 7.1992 7.91162 7.01575 8.06434 7.05536C8.2556 7.1049 8.4632 7.59912 8.70365 7.53501C8.79226 7.51139 9.65124 6.83533 9.8686 6.70534C11.2049 5.90745 12.7481 5.39742 14.2983 5.24168C14.4492 5.13904 14.3086 4.6505 14.3738 4.46546C14.4158 4.34595 14.8635 4.30723 14.899 3.89151C14.941 3.40244 14.5563 2.43158 14.5222 1.88036C14.4522 0.749676 16.165 0.557884 16.3387 1.63618C16.4366 2.24352 15.7303 3.84853 16.1363 4.24739C16.2403 4.3495 16.4444 4.3463 16.4861 4.46546C16.5563 4.66578 16.3952 5.05433 16.5946 5.20865C16.6774 5.27276 18.3048 5.54411 18.6415 5.64729C19.4443 5.89324 20.3188 6.29671 21.0346 6.73322C21.2292 6.85184 22.09 7.51441 22.1564 7.53306C22.4482 7.61528 22.4357 7.38797 22.557 7.2832ZM14.2795 6.00192C8.37316 6.54 4.34074 12.5578 5.66481 18.257C7.58007 26.4996 18.4406 28.783 23.4835 21.9389C28.7333 14.8137 23.0381 5.20403 14.2795 6.00192Z" fill="currentColor"></path><path d="M15.3473 6.42405C23.1321 6.34325 27.7074 15.2145 23.1585 21.5433C19.0362 27.2785 10.2048 26.6273 6.96758 20.3614C3.71387 14.0636 8.28437 6.49739 15.3473 6.42405ZM15.2674 6.91756C14.9848 7.00244 14.9816 7.55509 15.3274 7.6128C15.9773 7.72148 15.9219 6.72061 15.2674 6.91756ZM12.0019 7.5526C11.5853 7.66572 11.6977 8.34569 12.1168 8.30787C12.6466 8.2601 12.4754 7.42421 12.0019 7.5526ZM18.5015 7.63056C18.1533 7.97987 18.7361 8.59342 19.0576 8.15053C19.3312 7.77351 18.7871 7.34411 18.5015 7.63056ZM11.0272 11.1611H13.1223C13.5103 11.4268 14.039 12.2369 14.3968 12.4422C14.7547 12.6475 15.9132 12.428 16.3773 12.5122C16.7893 11.2378 18.4609 10.6934 19.366 11.8061C20.4663 13.159 19.0753 15.0595 17.439 14.4409C16.8965 14.2358 16.639 13.7777 16.3799 13.2994L14.1535 13.2532L12.8238 11.9563L8.6628 11.9405C7.9791 13.0133 7.61718 14.2916 7.54704 15.5608H8.11584C8.09986 15.0058 8.22488 14.4081 8.38098 13.8744C8.46977 13.5709 8.65623 12.8288 8.99915 12.789C9.12523 12.7745 9.63277 12.7276 9.60773 12.8991C9.57328 13.1337 9.24102 13.6828 9.14459 13.9986C8.994 14.4914 8.88993 15.0461 8.89686 15.5604H13.7973C14.0411 14.2332 15.8099 13.845 16.6681 14.8563C17.5117 15.8504 16.9415 17.5085 15.6115 17.6208C14.5758 17.7083 14.1203 17.1946 13.6908 16.3409H7.65394C7.47743 16.3409 7.6147 17.1321 7.63796 17.2793C8.26022 21.1918 11.9421 24.0914 15.8953 23.8655C19.1039 23.6821 22.1946 21.3291 22.9591 18.1862L22.4588 18.2185C21.0474 22.3941 16.4284 24.4855 12.3514 22.6462C10.4573 21.7917 8.73934 19.8118 8.29307 17.7605C8.26608 17.6366 8.14443 17.2926 8.25418 17.2255L8.95848 17.2018C9.73453 20.923 13.3255 23.2474 17.0651 22.338C19.1119 21.8402 20.951 20.1917 21.6094 18.186H18.6621L17.2982 19.5197L14.4815 19.5437C14.2665 19.8887 14.1793 20.1984 13.8327 20.4564C12.6077 21.3687 10.916 20.3637 11.1305 18.8917C11.3996 17.0454 13.977 16.9902 14.484 18.7562C15.2143 18.6992 16.0294 18.8225 16.7479 18.7568C17.4124 18.696 17.8738 17.6943 18.4506 17.4068L23.1768 17.3746C23.9896 13.4241 21.4551 9.46696 17.6156 8.37482C14.9804 7.62523 12.1296 8.29437 10.103 10.1311C10.0055 10.2194 9.14725 11.0698 9.25221 11.1606C9.97675 11.3272 10.1755 10.771 10.6386 10.3824C15.4066 6.38249 22.6279 9.61933 22.8193 15.8055C22.8234 15.9362 22.8456 16.5226 22.6984 16.5567C22.538 16.5329 22.0179 16.6314 21.9728 16.4418C22.5075 10.863 15.8033 7.22868 11.3898 10.7775C11.2733 10.8711 11.0185 11.004 11.0272 11.1611ZM9.16075 9.47087C8.85353 9.56055 8.7999 9.99013 9.11103 10.131C9.74572 10.4181 9.80716 9.2821 9.16075 9.47087ZM21.4455 9.4714C21.0337 9.59909 21.2006 10.3007 21.7 10.1547C22.1234 10.031 22.0243 9.29204 21.4455 9.4714ZM17.7534 12.0277C16.9326 12.2158 16.9945 13.6747 17.9594 13.7816C19.3593 13.9366 19.3083 11.6713 17.7534 12.0277ZM23.4363 12.2373C22.9744 12.3073 23.0402 13.0002 23.4913 13.0004C24.017 13.0004 23.9386 12.1611 23.4363 12.2373ZM7.24142 12.3097C6.8296 12.4374 6.99653 13.1391 7.49589 12.9931C7.91926 12.8693 7.82016 12.1304 7.24142 12.3097ZM15.1983 15.0799C14.2736 15.2695 14.2819 16.6957 15.1862 16.833C16.7537 17.0708 16.544 14.8041 15.1983 15.0799ZM24.0747 15.5706C23.4654 15.7249 24.0344 16.7499 24.4551 16.169C24.6675 15.8756 24.3506 15.5008 24.0747 15.5706ZM6.52912 15.6427C6.25635 15.7371 6.29382 16.2379 6.60406 16.3283C7.24053 16.5137 7.20945 15.4072 6.52912 15.6427ZM12.7783 18.2105C11.5823 18.2446 11.6178 20.1558 12.9096 20.0341C14.0115 19.9304 13.9282 18.1777 12.7783 18.2105ZM7.36803 18.9242C6.93224 18.9441 6.88838 19.6863 7.36999 19.6831C7.88995 19.6797 7.86403 18.9015 7.36803 18.9242ZM23.4363 18.9072C22.9742 18.9773 23.0406 19.6706 23.4913 19.6705C24.0203 19.6703 23.9575 18.8282 23.4363 18.9072ZM9.23196 21.7455C8.72301 21.8242 8.85868 22.507 9.28684 22.5084C9.78638 22.51 9.7395 21.6672 9.23196 21.7455ZM21.5187 21.7443C21.1021 21.8574 21.2145 22.5374 21.6336 22.4996C22.1633 22.4518 21.9921 21.6159 21.5187 21.7443ZM12.0021 23.6604C11.5924 23.7702 11.6603 24.5242 12.2555 24.3454C12.6123 24.2381 12.4942 23.5287 12.0021 23.6604ZM18.6775 23.6626C18.3703 23.7522 18.3167 24.1818 18.6278 24.3226C19.2625 24.6098 19.3239 23.4738 18.6775 23.6626ZM15.4108 24.3001C14.9212 24.3756 14.9917 25.0603 15.4655 25.0633C15.964 25.0665 15.9198 24.2216 15.4108 24.3001Z" fill="currentColor"></path><path d="M36.9654 18.8935H42.7369V13.0687H36.9654V18.8935ZM44.9568 18.8935H46.1643V21.1133H36.7435C35.6487 21.1133 34.7596 20.2328 34.7458 19.1413L34.7456 19.1155V12.8468C34.7456 11.7434 35.6401 10.8489 36.7435 10.8489H42.9589C44.0623 10.8489 44.9568 11.7434 44.9568 12.8468V18.8935Z" fill="currentColor"></path><path d="M57.5653 19.1155C57.5653 20.2189 56.6708 21.1133 55.5674 21.1133H49.352C48.2572 21.1133 47.3681 20.2328 47.3543 19.1413L47.3542 19.1155V10.8401H49.574V18.8935H55.3455V10.8401H57.5653V19.1155Z" fill="currentColor"></path><path d="M61.5254 13.0332H67.2969V15.5905H61.5254V13.0332ZM69.5167 12.8112C69.5167 11.7079 68.6223 10.8134 67.5189 10.8134H61.3034C60.2087 10.8134 59.3196 11.694 59.3058 12.7854L59.3056 12.8112V21.0867H61.5254V17.8103H67.2969V21.0867H69.5167V12.8112Z" fill="currentColor"></path><path d="M132.186 13.0332H137.958V15.5905H132.186V13.0332ZM140.178 12.8112C140.178 11.7079 139.283 10.8134 138.18 10.8134H131.964C130.87 10.8134 129.981 11.694 129.967 12.7854L129.967 12.8112V21.0867H132.186V17.8103H137.958V21.0867H140.178V12.8112Z" fill="currentColor"></path><path d="M151.987 16.8602C151.987 15.7568 151.093 14.8624 149.989 14.8624H143.996V13.0332H149.767V13.9389H151.987V12.8112C151.987 11.7079 151.093 10.8134 149.989 10.8134H143.774C142.67 10.8134 141.776 11.7079 141.776 12.8112V15.0843C141.776 16.1877 142.67 17.0822 143.774 17.0822H149.767V18.8758H143.996V18.0456H141.776V19.0977C141.776 20.2011 142.67 21.0956 143.774 21.0956H149.989C151.093 21.0956 151.987 20.2011 151.987 19.0977V16.8602Z" fill="currentColor"></path><path d="M103.356 21.0956V18.8758H96.0657V17.0999H101.882V14.8801H96.0657V13.0332H103.356V10.8134H93.8458V21.0956H103.356Z" fill="currentColor"></path><path d="M173.963 21.0956V18.8758H166.673V17.0999H172.489V14.8801H166.673V13.0332H173.963V10.8134H164.454V21.0956H173.963Z" fill="currentColor"></path><path d="M88.7314 21.0867V13.0332H92.6827V10.8134H82.5603V13.0332H86.5116V21.0867H88.7314Z" fill="currentColor"></path><path d="M159.339 21.0867V13.0332H163.29V10.8134H153.168V13.0332H157.119V21.0867H159.339Z" fill="currentColor"></path><path d="M118.832 21.0867V14.1421L122.426 18.4711L126.024 14.1567V21.0867H128.244V10.8134H125.922L122.43 15.0006L118.954 10.8134H116.612V21.0867H118.832Z" fill="currentColor"></path><path d="M73.4591 13.0332H79.2306V15.5905H73.4591V13.0332ZM81.4504 12.8112C81.4504 11.7079 80.556 10.8134 79.4526 10.8134H73.2371C72.1424 10.8134 71.2395 10.8134 71.2395 10.8134L71.2393 21.0867H73.4591V17.8103H76.338L79.2028 21.0889H81.4504V20.2565L79.2858 17.8103H79.4526C80.556 17.8103 81.4504 16.9158 81.4504 15.8124V12.8112Z" fill="currentColor"></path><path d="M107.067 13.0332H112.839V15.5905H107.067V13.0332ZM115.058 12.8112C115.058 11.7079 114.164 10.8134 113.061 10.8134H106.845C105.75 10.8134 104.847 10.8134 104.847 10.8134L104.847 21.0867H107.067V17.8103H109.946L112.811 21.0889H115.058V20.2565L112.894 17.8103H113.061C114.164 17.8103 115.058 16.9158 115.058 15.8124V12.8112Z" fill="currentColor"></path><path d="M177.675 13.0332H183.446V15.5905H177.675V13.0332ZM185.666 12.8112C185.666 11.7079 184.772 10.8134 183.668 10.8134H177.453C176.358 10.8134 175.455 10.8134 175.455 10.8134L175.455 21.0867H177.675V17.8103H180.554L183.418 21.0889H185.666V20.2565L183.501 17.8103H183.668C184.772 17.8103 185.666 16.9158 185.666 15.8124V12.8112Z" fill="currentColor"></path></svg>