<?xml version="1.0" encoding="UTF-8"?>
<svg width="80px" height="85px" viewBox="0 0 80 85" version="1.1" xmlns="http://www.w3.org/2000/svg" xmlns:xlink="http://www.w3.org/1999/xlink">
    <!-- Generator: Sketch 54.1 (76490) - https://sketchapp.com -->
    <title>Screenshot 2023-10-31 at 11.01.58 AM</title>
    <desc>Created with Sketch.</desc>
    <g id="logos" stroke="none" stroke-width="1" fill="none" fill-rule="evenodd">
        <g id="Screenshot-2023-10-31-at-11.01.58-AM" fill="#FFFFFF" fill-rule="nonzero">
            <path d="M19.49,42.75 L47.98,81.01 C48.0800934,81.1404009 48.1167002,81.308784 48.0801175,81.4705181 C48.0435347,81.6322522 47.9374567,81.7710053 47.79,81.85 C38.9,86.49 31.36,84.16 25.71,76.58 C17.29,65.2933333 8.89333333,53.9933333 0.52,42.68 C0.330016723,42.4312151 0.330016723,42.0841747 0.52,41.83 C8.97333333,30.41 17.42,19.03 25.86,7.69 C31.47,0.15 39.41,-1.8 47.87,3.2 C48.1166667,3.34 48.1533333,3.52333333 47.98,3.75 L19.49,41.75 C19.2433333,42.0833333 19.2433333,42.4166667 19.49,42.75 Z" id="Path"></path>
            <path d="M47.22,42.76 L75.7,81.04 C75.7892647,81.1609704 75.8228956,81.3140514 75.7922194,81.4597636 C75.7615431,81.6054758 75.6695628,81.7295545 75.54,81.8 C69.72,84.9133333 64.3733333,85.0666667 59.5,82.26 C57.3933333,81.0466667 54.84,78.4233333 51.84,74.39 C43.9733333,63.81 36.1,53.24 28.22,42.68 C28.0066667,42.3933333 28.0066667,42.11 28.22,41.83 C36.48,30.75 44.7,19.7033333 52.88,8.69 C55.18,5.59 57.29,3.50333333 59.21,2.43 C64.23,-0.37 69.6833333,-0.146666667 75.57,3.1 C75.8566667,3.25333333 75.9,3.46333333 75.7,3.73 L47.22,41.74 C46.9666667,42.08 46.9666667,42.42 47.22,42.76 Z" id="Path"></path>
            <circle id="Oval" cx="71.17" cy="42.37" r="8.47"></circle>
        </g>
    </g>
</svg>