<svg id="Layer_1" data-name="Layer 1" xmlns="http://www.w3.org/2000/svg" width="400" height="400" viewBox="0 0 400 400"><defs><style>.cls-1{fill:#fff;}.cls-2{opacity:0.6;}.cls-3{opacity:0.8;}</style></defs><title>3Artboard 1</title><path class="cls-1" d="M90,114.1,81.52,139.8H70.61L98.36,58.11h12.73L139,139.8H127.69L119,114.1Zm26.79-8.24-8-23.51c-1.82-5.33-3-10.18-4.24-14.91h-.24c-1.21,4.85-2.55,9.82-4.12,14.79l-8,23.64Z"/><path class="cls-1" d="M146,53.75h10.67V139.8H146Z"/><path class="cls-1" d="M170.35,53.75H181V139.8H170.35Z"/><path class="cls-1" d="M206.58,64.65c.12,3.64-2.54,6.54-6.79,6.54a6.34,6.34,0,0,1-6.42-6.54A6.5,6.5,0,0,1,200,58,6.33,6.33,0,0,1,206.58,64.65ZM194.71,139.8V81.14h10.67V139.8Z"/><path class="cls-1" d="M224.76,112.41c.24,14.42,9.45,20.36,20.12,20.36,7.64,0,12.24-1.33,16.24-3l1.82,7.64c-3.76,1.7-10.18,3.63-19.51,3.63-18.06,0-28.85-11.88-28.85-29.57S225,79.8,242.09,79.8c19.15,0,24.24,16.85,24.24,27.64a40.06,40.06,0,0,1-.36,5ZM256,104.77c.12-6.79-2.79-17.33-14.79-17.33-10.79,0-15.51,9.94-16.36,17.33Z"/><path class="cls-1" d="M326,53.75v70.9c0,5.21.12,11.15.48,15.15h-9.57l-.48-10.18h-.24c-3.27,6.54-10.42,11.51-20,11.51-14.18,0-25.09-12-25.09-29.82-.12-19.51,12-31.51,26.3-31.51,9,0,15,4.24,17.7,9h.24v-35ZM315.29,105a18.8,18.8,0,0,0-.49-4.48,15.68,15.68,0,0,0-15.39-12.36c-11,0-17.58,9.69-17.58,22.66,0,11.88,5.82,21.7,17.33,21.7,7.15,0,13.69-4.73,15.63-12.73a18.5,18.5,0,0,0,.49-4.61Z"/><g class="cls-2"><path class="cls-1" d="M126.48,311.37c-.62-11.68-1.37-25.72-1.24-36.15h-.37C122,285,118.53,295.46,114.3,307L99.52,347.64h-8.2L77.78,307.76c-4-11.8-7.33-22.61-9.69-32.55h-.25c-.25,10.44-.87,24.48-1.62,37L64,348.14H53.68l5.84-83.73H73.31l14.29,40.5c3.48,10.31,6.34,19.5,8.45,28.2h.37c2.11-8.45,5.09-17.64,8.82-28.2l14.91-40.5h13.79l5.22,83.73H128.59Z"/><path class="cls-1" d="M157.91,320.06c.25,14.78,9.69,20.87,20.62,20.87,7.83,0,12.55-1.37,16.65-3.11l1.86,7.83c-3.85,1.74-10.44,3.73-20,3.73-18.51,0-29.57-12.17-29.57-30.31s10.68-32.42,28.2-32.42c19.63,0,24.85,17.27,24.85,28.32a41.19,41.19,0,0,1-.37,5.09ZM190,312.24c.12-7-2.86-17.77-15.16-17.77-11.06,0-15.9,10.19-16.77,17.77Z"/><path class="cls-1" d="M261.65,259.93v72.68c0,5.34.12,11.43.5,15.53h-9.81l-.5-10.44h-.25c-3.35,6.71-10.69,11.8-20.5,11.8-14.53,0-25.72-12.3-25.72-30.56-.12-20,12.3-32.3,27-32.3,9.19,0,15.4,4.35,18.14,9.19h.25v-35.9Zm-10.93,52.55a19.29,19.29,0,0,0-.5-4.6,16.08,16.08,0,0,0-15.78-12.67c-11.3,0-18,9.94-18,23.23,0,12.17,6,22.24,17.77,22.24,7.33,0,14-4.84,16-13a19,19,0,0,0,.5-4.72Z"/><path class="cls-1" d="M287.61,271.12c.12,3.73-2.61,6.71-7,6.71a6.5,6.5,0,0,1-6.59-6.71,6.66,6.66,0,0,1,6.83-6.83A6.49,6.49,0,0,1,287.61,271.12Zm-12.17,77V288h10.93v60.13Z"/><path class="cls-1" d="M333.46,348.14l-.87-7.58h-.37a22.4,22.4,0,0,1-18.39,8.95c-12.17,0-18.39-8.57-18.39-17.27,0-14.53,12.92-22.49,36.15-22.36v-1.24c0-5-1.37-13.91-13.67-13.91a30,30,0,0,0-15.65,4.47L299.79,292c5-3.23,12.17-5.34,19.75-5.34,18.39,0,22.86,12.55,22.86,24.6v22.49a84.66,84.66,0,0,0,1,14.41Zm-1.61-30.69c-11.93-.25-25.47,1.86-25.47,13.54,0,7.08,4.72,10.43,10.31,10.43a15,15,0,0,0,14.53-10.06,11.42,11.42,0,0,0,.62-3.48Z"/></g><g class="cls-3"><path class="cls-1" d="M56.66,158.43v35.89H98.15V158.43h11.2v85.78H98.15V204H56.66v40.22H45.59V158.43Z"/><path class="cls-1" d="M131.25,215.45c.25,15.14,9.93,21.38,21.13,21.38,8,0,12.85-1.4,17.05-3.18l1.91,8c-3.95,1.78-10.69,3.82-20.49,3.82-19,0-30.29-12.47-30.29-31.05s10.94-33.22,28.89-33.22c20.11,0,25.45,17.69,25.45,29a42.32,42.32,0,0,1-.38,5.22Zm32.83-8c.13-7.13-2.93-18.2-15.53-18.2-11.33,0-16.29,10.43-17.18,18.2Z"/><path class="cls-1" d="M219.71,244.21l-.89-7.76h-.38a22.94,22.94,0,0,1-18.84,9.16c-12.47,0-18.84-8.78-18.84-17.69,0-14.89,13.24-23,37-22.91v-1.27c0-5.09-1.4-14.25-14-14.25a30.69,30.69,0,0,0-16,4.58l-2.55-7.38c5.09-3.31,12.47-5.47,20.24-5.47,18.84,0,23.42,12.85,23.42,25.2v23a86.65,86.65,0,0,0,1,14.76Zm-1.65-31.44c-12.22-.26-26.09,1.91-26.09,13.87,0,7.25,4.84,10.69,10.56,10.69A15.33,15.33,0,0,0,217.42,227a11.7,11.7,0,0,0,.64-3.56Z"/><path class="cls-1" d="M243.76,153.85H255v90.36h-11.2Z"/><path class="cls-1" d="M284.11,164.92v17.69h16v8.53h-16v33.22c0,7.64,2.16,12,8.4,12a25,25,0,0,0,6.49-.76l.51,8.4a27.44,27.44,0,0,1-9.93,1.53c-5.22,0-9.42-1.65-12.09-4.71-3.18-3.31-4.33-8.78-4.33-16v-33.6h-9.55v-8.53h9.55V167.85Z"/><path class="cls-1" d="M309.57,153.85h11.2v38.43H321a20.81,20.81,0,0,1,8-7.89,23,23,0,0,1,11.46-3.18c8.27,0,21.51,5.09,21.51,26.34v36.65H350.8V208.83c0-9.93-3.69-18.33-14.25-18.33a16.09,16.09,0,0,0-15,11.2,13.55,13.55,0,0,0-.76,5.35v37.16h-11.2Z"/></g></svg>