<?xml version="1.0" encoding="UTF-8"?>
<svg width="52px" height="60px" viewBox="0 0 52 60" version="1.1" xmlns="http://www.w3.org/2000/svg" xmlns:xlink="http://www.w3.org/1999/xlink">
    <!-- Generator: Sketch 54.1 (76490) - https://sketchapp.com -->
    <title>Screenshot 2023-10-10 at 2.15.57 PM</title>
    <desc>Created with Sketch.</desc>
    <g id="logos" stroke="none" stroke-width="1" fill="none" fill-rule="evenodd">
        <g id="Screenshot-2023-10-10-at-2.15.57-PM" fill="#FFFFFF" fill-rule="nonzero">
            <path d="M11.28,23.35 C11.2266667,27.6433333 11.22,31.9333333 11.26,36.22 C11.32,42.46 16.13,42.18 17.8,46.9 C18.9866667,50.2533333 18.5566667,53.1733333 16.51,55.66 C8.1,65.88 -6.68,51.04 5.97,41.91 C9.38,39.45 8.24,28.72 8.27,24.8 C8.31,17.15 5.45,18.45 2.32,13.46 C-4.33,2.85 13.23,-6.16 17.81,5.48 C21.32,14.39 11.38,15.43 11.28,23.35 Z" id="Path"></path>
            <path d="M48.81,43.94 C59.24,54.12 40.26,66.21 34.87,53.73 C33.65,50.92 34.95,46.75 34.03,44.58 C32.19,40.2933333 29.2066667,38.1433333 25.08,38.13 C21.98,38.1166667 20.3066667,38.0833333 20.06,38.03 C11.58,36.05 10.91,23.93 19.33,21.2 C20.11,20.9466667 21.73,20.8666667 24.19,20.96 C28.4633333,21.1133333 31.55,19.2966667 33.45,15.51 C35.11,12.21 33.29,8.59 34.82,5.45 C37.64,-0.35 44.57,-1.83 49.2,2.67 C53.47,6.81 51.87,14.2 46.68,16.7 C43.28,18.34 39.49,16.56 36.08,18.32 C29.94,21.5 31.26,25.43 30.78,31.21 C30.34,36.5 33.82,40.4 38.7,41.86 C38.9939783,41.945006 39.3060217,41.945006 39.6,41.86 C43.22,40.78 46.29,41.4733333 48.81,43.94 Z" id="Path"></path>
        </g>
    </g>
</svg>