<?xml version="1.0" encoding="UTF-8"?>
<svg width="20px" height="22px" viewBox="0 0 20 22" version="1.1" xmlns="http://www.w3.org/2000/svg" xmlns:xlink="http://www.w3.org/1999/xlink">
    <!-- Generator: Sketch 54.1 (76490) - https://sketchapp.com -->
    <title>logo</title>
    <desc>Created with Sketch.</desc>
    <g id="logos" stroke="none" stroke-width="1" fill="none" fill-rule="evenodd">
        <g id="logo" fill="#EE3D2C" fill-rule="nonzero">
            <polygon id="Path" points="18.3176 9.27479 9.68663 14.1339 0.444511 8.94223 0 9.18241 0 12.9515 9.68663 18.3833 18.3176 13.5427 18.3176 15.5381 9.68663 20.3972 0.444511 15.2055 0 15.4457 0 16.0923 9.68663 21.5242 19.3547 16.0923 19.3547 12.3233 18.9102 12.0831 9.68663 17.2563 1.03719 12.4157 1.03719 10.4203 9.68663 15.2609 19.3547 9.82906 19.3547 6.11545 18.8732 5.83831 9.68663 10.993 1.4817 6.41106 9.68663 1.81061 16.4284 5.59813 17.0211 5.26557 17.0211 4.80367 9.68663 0.683594 0 6.11545 0 6.70667 9.68663 12.1385 18.3176 7.27942"></polygon>
        </g>
    </g>
</svg>