<?xml version="1.0" encoding="UTF-8"?>
<svg width="457px" height="55px" viewBox="0 0 457 55" version="1.1" xmlns="http://www.w3.org/2000/svg" xmlns:xlink="http://www.w3.org/1999/xlink">
    <!-- Generator: Sketch 50.2 (55047) - http://www.bohemiancoding.com/sketch -->
    <title>logo-progressive</title>
    <desc>Created with Sketch.</desc>
    <defs></defs>
    <g id="Page-1" stroke="none" stroke-width="1" fill="none" fill-rule="evenodd">
        <g id="Artboard" transform="translate(0.000000, -1.000000)" fill="#FFFFFF" fill-rule="nonzero">
            <g id="logo-progressive">
                <path d="M221.54,30.52 C226.44,30.01 229.95,27.7 231.93,23.6 C233.55,20.26 236.05,14.85 236.07,14.79 C238.55,9.67 237.79,6.54 236.71,4.79 C235.09,2.2 231.92,1.28 229.51,1.28 L204.96,1.28 L179.55,55.28 L192.31,55.28 L202.04,34.07 L208.88,34.07 C210.035859,34.139455 211.099886,34.7228354 211.78,35.66 C212.6,37.02 212.38,39.1 211.09,41.84 C208.01,48.45 205.56,55.3 205.56,55.3 L218.5,55.3 C218.85828,53.514566 219.383935,51.7668474 220.07,50.08 C221.07,47.72 224.07,40.26 224.07,40.19 C226.54,34.14 223.48,31.72 221.54,30.52 Z M220.19,21.61 C219.11,23.89 217.45,25.05 215.24,25.05 L206.34,25.05 L213.09,10.35 L222.83,10.35 C223.352502,10.3743359 223.836725,10.6311208 224.15,11.05 C224.54,11.69 224.4,12.76 223.75,14.15 L221.52,18.83 L220.19,21.61 Z" id="Shape"></path>
                <path d="M85.34,30.52 C90.24,30 93.73,27.69 95.73,23.59 C97.35,20.25 99.85,14.84 99.88,14.78 C102.36,9.66 101.6,6.53 100.52,4.78 C98.9,2.23 95.73,1.31 93.31,1.31 L68.73,1.31 L43.32,55.31 L56.11,55.31 L65.84,34.1 L72.69,34.1 C73.8458586,34.169455 74.9098856,34.7528354 75.59,35.69 C76.42,37.05 76.19,39.13 74.9,41.87 C71.82,48.48 69.37,55.33 69.37,55.33 L82.31,55.33 C82.6635326,53.5445273 83.1858789,51.7966761 83.87,50.11 C84.87,47.75 87.87,40.29 87.87,40.22 C90.35,34.14 87.28,31.72 85.34,30.52 Z M83.99,21.6 C82.91,23.89 81.25,25 79.05,25 L70.15,25 L77.09,10.3 L86.63,10.3 C87.1525023,10.3243359 87.6367252,10.5811208 87.95,11 C88.34,11.64 88.2,12.71 87.55,14.1 L85.32,18.78 L83.99,21.6 Z" id="Shape"></path>
                <path d="M145.26,14.74 C149.73,5.16 144.67,1 138.23,1 L122.73,1 C116.21,1 111.61,4.08 108.65,10.41 C107.06,13.81 104.41,19.41 101.34,25.8 L94.86,39.46 C88.35,53.16 98.09,55.46 102.86,55.46 L112.65,55.46 C122.46,55.56 127.29,52.79 131.08,44.89 C133.62,39.61 137.14,32.07 140.88,24.08 L145.26,14.74 Z M132.53,13.22 L119.53,40.91 C117.72,44.73 116.53,45.38 113.72,45.38 L108.1,45.38 C107.1,45.38 105.1,45.11 106.6,41.84 C108.78,37.14 117.92,17.44 119.79,13.48 C121.06,10.78 122.38,10.24 124.1,10.24 L131.1,10.24 C132.43,10.18 133.62,10.91 132.53,13.22 Z" id="Shape"></path>
                <path d="M166.52,25.33 L162.28,34.33 L169,34.33 L165.22,42.5 C164.12,44.87 163.37,45.35 160.78,45.35 L154.1,45.35 C152.1,45.35 151.4,44.35 152.6,41.81 C154.12,38.59 166.12,13.53 166.12,13.53 C167.48,10.68 168.29,10.25 170.39,10.25 L177.29,10.25 C178.96,10.25 179.86,11.02 178.74,13.25 C178.49,13.74 175.74,19.75 175.74,19.75 L187.91,19.84 L190.68,13.89 C194.73,5.19 191.11,1.12 182.73,1 L169.51,1 C163.071823,0.831869739 157.160433,4.54028193 154.51,10.41 C152.1,15.54 140.73,39.46 140.73,39.46 C136.57,48.21 138.98,55.46 150.36,55.46 L160.52,55.46 C168.64,55.54 172.63,54.27 176.34,46.15 L185.81,25.4 L166.52,25.33 Z" id="Shape"></path>
                <polygon id="Shape" points="349.96 1.14 324.52 55.22 337.63 55.22 363.23 1.14"></polygon>
                <polygon id="Shape" points="395.73 1.15 366.04 48.79 381.06 1.15 367.31 1.15 354.71 55.22 372.45 55.22 409.52 1.15"></polygon>
                <path d="M294.18,36.46 L293.08,16.46 C292.95,14.05 293.54,10.78 297.95,10.78 L306.81,10.78 L311.36,1.14 L296.26,1.14 C284.26,1.14 280.26,8.45 280.69,17.04 C280.97,22.29 281.69,39.37 281.69,39.37 C281.87,43.49 280.29,45.37 276.44,45.37 L266.34,45.37 L261.81,55.1803842 L277.91,55.18 C288.59,55.24 294.88,48.27 294.18,36.46 Z" id="Shape"></path>
                <path d="M323.27,16.48 C323.14,14.07 323.73,10.8 328.14,10.8 L337,10.8 L341.55,1.16 L326.45,1.16 C316.53,1.16 310.31,6.58 310.88,17.06 C311.17,22.31 311.88,39.39 311.88,39.39 C312.07,43.51 310.49,45.39 306.63,45.39 L296.79,45.39 L292.26,55.2 L308.1,55.2 C319.84,55.2 324.98,46.8 324.36,36.42 L323.27,16.48 Z" id="Shape"></path>
                <path d="M249.16,31.05 L265.57,31.05 L269.78,22.05 L253.31,22.05 L258.55,10.83 L275.55,10.83 C275.55,10.83 280.01,1.24 280.01,1.24 L250.39,1.24 L225.12,55.24 L257.12,55.24 L261.73,45.45 L242.32,45.45 L249.16,31.05 Z" id="Shape"></path>
                <path d="M388.61,55.23 L420.61,55.23 L425.26,45.45 L405.81,45.45 L412.65,31.05 L429.06,31.05 L433.27,22.05 L416.8,22.05 L422.04,10.83 L439.04,10.83 C439.04,10.83 443.49,1.24 443.49,1.24 L413.88,1.24 L388.61,55.23 Z" id="Shape"></path>
                <path d="M50.43,27.13 C51.5,24.92 53.62,20.34 56.03,15.02 C60.26,5.66 55.03,1.33 49.48,1.31 L25.2,1.31 L0,55.39 L13.1,55.39 L21.9,36.45 C21.9,36.45 29.3,36.45 34.66,36.45 C42.83,36.51 47.1,34 50.43,27.13 Z M43.67,14.59 C41.31,19.59 39.51,23.33 39.31,23.74 C38.25,26 36.73,27 34.44,27 L26.22,27 L33.99,10.17 L42.23,10.17 C44.04,10.18 45.33,11.09 43.67,14.59 Z" id="Shape"></path>
                <path d="M454.08,4.91 C454.097977,4.48405273 453.888611,4.08054764 453.53,3.85 C453.159345,3.66214124 452.744397,3.57915169 452.33,3.61 L450.19,3.61 L450.19,8.53 L450.79,8.53 L450.79,6.26 L451.89,6.26 L453.3,8.53 L454.01,8.53 L452.53,6.26 C453.4,6.24 454.08,5.88 454.08,4.91 Z M451.73,5.79 L450.81,5.79 L450.81,4 L452.22,4 C452.83,4 453.5,4.09 453.5,4.85 C453.47,5.9 452.4,5.79 451.73,5.79 Z" id="Shape"></path>
                <path d="M451.83,1.67 C450.048553,1.66595584 448.440455,2.73649631 447.756855,4.38156848 C447.073255,6.02664065 447.449065,7.92158171 448.708742,9.1812585 C449.968418,10.4409353 451.863359,10.8167446 453.508432,10.1331447 C455.153504,9.44954485 456.224044,7.84144741 456.22,6.06 C456.214501,3.63775132 454.252249,1.67549888 451.83,1.67 Z M451.83,9.94 C449.696641,9.92346184 447.979047,8.18354916 447.990051,6.05015493 C448.001056,3.91676069 449.736507,2.19465897 451.869923,2.200129 C454.003338,2.20559904 455.729936,3.93657739 455.73,6.07 C455.732701,7.10333903 455.322032,8.09484251 454.589473,8.82364527 C453.856913,9.55244804 452.863311,9.95801394 451.83,9.95 L451.83,9.94 Z" id="Shape"></path>
            </g>
        </g>
    </g>
</svg>