<?xml version="1.0" encoding="UTF-8" standalone="no"?>
<!DOCTYPE svg PUBLIC "-//W3C//DTD SVG 1.1//EN" "http://www.w3.org/Graphics/SVG/1.1/DTD/svg11.dtd">
<svg xmlns="http://www.w3.org/2000/svg" version="1.1" viewBox="0.00 0.00 1500.00 287.00">
<path fill="#310708" d="
  M 1451.37 0.00
  L 1457.52 0.00
  Q 1479.32 2.57 1491.09 18.75
  C 1504.56 37.24 1502.37 63.27 1485.13 78.86
  C 1460.84 100.82 1422.42 90.75 1411.72 60.02
  C 1402.86 34.54 1418.94 6.52 1445.45 1.14
  Q 1448.40 0.55 1451.37 0.00
  Z
  M 1431.02 35.69
  L 1442.38 35.69
  Q 1442.93 35.69 1443.22 36.16
  L 1455.36 55.83
  Q 1455.71 56.40 1456.02 55.80
  L 1475.92 17.69
  A 0.58 0.57 32.6 0 0 1475.75 16.96
  C 1459.21 4.70 1435.54 9.11 1424.54 26.54
  C 1416.84 38.74 1417.53 54.49 1425.82 66.22
  C 1437.82 83.21 1462.11 85.54 1477.70 72.41
  C 1490.66 61.49 1493.24 43.52 1486.00 28.77
  A 0.37 0.36 -44.8 0 0 1485.35 28.77
  L 1464.36 69.61
  Q 1464.09 70.14 1463.50 70.14
  L 1448.90 70.15
  A 0.91 0.90 75.3 0 1 1448.11 69.68
  L 1433.38 43.13
  Q 1433.14 42.69 1432.65 42.81
  Q 1431.85 43.00 1431.04 42.92
  Q 1430.46 42.86 1430.46 42.28
  L 1430.47 36.23
  Q 1430.48 35.69 1431.02 35.69
  Z"
/>
<path fill="#310708" d="
  M 790.75 117.19
  L 790.74 260.76
  Q 790.74 261.39 791.18 261.83
  L 797.71 268.38
  Q 798.06 268.73 798.56 268.73
  L 848.25 268.74
  A 0.51 0.50 90.0 0 1 848.75 269.25
  L 848.76 282.73
  A 0.49 0.49 0.0 0 1 848.27 283.22
  L 718.72 283.22
  Q 718.47 283.22 718.47 282.97
  L 718.45 269.27
  A 0.54 0.54 0.0 0 1 718.99 268.73
  L 750.50 268.73
  A 1.23 1.23 0.0 0 0 751.37 268.37
  L 757.95 261.76
  Q 758.25 261.46 758.25 261.03
  L 758.25 116.98
  A 0.37 0.36 0.0 0 0 757.88 116.62
  L 719.30 116.64
  A 0.84 0.84 0.0 0 1 718.46 115.80
  L 718.47 102.51
  A 0.27 0.27 0.0 0 1 718.74 102.24
  L 758.01 102.24
  A 0.24 0.24 0.0 0 0 758.25 102.00
  L 758.25 62.78
  Q 758.25 62.33 758.57 62.01
  Q 774.42 45.98 790.35 30.11
  C 800.77 19.72 814.74 10.75 829.22 7.51
  Q 833.78 6.49 843.85 5.89
  Q 855.04 5.23 866.25 4.45
  A 0.44 0.44 0.0 0 1 866.70 4.97
  L 859.65 40.22
  A 0.52 0.52 0.0 0 1 859.14 40.64
  L 798.51 40.64
  Q 798.05 40.64 797.73 40.96
  L 791.11 47.62
  Q 790.74 47.99 790.74 48.51
  L 790.74 101.74
  Q 790.74 102.24 791.24 102.24
  L 848.24 102.24
  Q 848.75 102.24 848.75 102.74
  L 848.75 116.19
  A 0.44 0.44 0.0 0 1 848.31 116.63
  L 791.31 116.62
  Q 790.75 116.62 790.75 117.19
  Z"
/>
<path fill="#310708" d="
  M 1276.14 287.00
  L 1268.50 287.00
  C 1210.90 283.02 1181.95 235.45 1185.76 181.77
  Q 1187.71 154.35 1201.74 132.69
  C 1224.83 97.06 1270.37 85.60 1308.18 102.55
  Q 1317.81 106.87 1326.20 115.22
  Q 1326.55 115.57 1327.05 115.56
  L 1329.71 115.52
  Q 1330.19 115.51 1330.19 115.04
  L 1330.19 33.80
  Q 1330.19 33.42 1329.80 33.42
  L 1276.23 33.42
  Q 1275.79 33.42 1275.79 32.98
  L 1275.79 19.24
  A 0.43 0.43 0.0 0 1 1276.22 18.81
  C 1304.88 19.15 1335.94 16.08 1362.54 4.69
  A 0.12 0.12 0.0 0 1 1362.71 4.80
  L 1362.71 261.00
  A 1.30 1.28 22.9 0 0 1363.09 261.91
  L 1369.52 268.36
  Q 1369.89 268.73 1370.42 268.73
  L 1391.23 268.74
  A 0.50 0.49 0.6 0 1 1391.73 269.24
  L 1391.70 282.76
  A 0.46 0.46 0.0 0 1 1391.24 283.22
  L 1334.21 283.22
  Q 1333.69 283.22 1333.69 282.71
  L 1333.70 258.22
  Q 1333.70 257.75 1333.22 257.75
  L 1330.54 257.77
  Q 1330.13 257.78 1329.91 258.13
  C 1317.92 278.06 1298.03 284.69 1276.14 287.00
  Z
  M 1290.75 114.20
  C 1272.48 110.42 1252.39 115.60 1239.83 130.08
  C 1219.24 153.79 1218.56 193.95 1224.96 222.21
  C 1231.02 249.01 1247.61 267.75 1275.52 268.63
  C 1312.97 269.82 1330.01 241.05 1330.15 207.25
  Q 1330.23 189.00 1330.15 170.75
  C 1330.03 144.69 1318.61 119.96 1290.75 114.20
  Z"
/>
<rect fill="#310708" x="637.10" y="11.72" width="43.40" height="43.46" rx="0.33"/>
<rect fill="#310708" x="890.37" y="11.72" width="43.38" height="43.46" rx="0.44"/>
<path fill="#310708" d="
  M 0.00 33.33
  L 0.00 18.86
  L 263.64 18.88
  Q 264.27 18.88 264.27 19.50
  L 264.27 32.96
  A 0.48 0.47 0.0 0 1 263.79 33.43
  L 242.09 33.41
  Q 241.43 33.41 241.19 34.03
  L 148.58 282.70
  A 0.81 0.80 -79.3 0 1 147.83 283.22
  L 121.77 283.22
  A 0.71 0.71 0.0 0 1 121.10 282.75
  L 30.26 34.01
  A 0.98 0.97 -9.7 0 0 29.34 33.37
  L 0.00 33.33
  Z
  M 145.73 238.31
  A 0.70 0.70 0.0 0 0 146.39 237.85
  L 218.84 41.06
  A 0.70 0.70 0.0 0 0 218.67 40.32
  L 211.99 33.63
  A 0.70 0.70 0.0 0 0 211.49 33.42
  L 79.95 33.42
  A 0.70 0.70 0.0 0 0 79.45 33.63
  L 72.71 40.37
  A 0.70 0.70 0.0 0 0 72.55 41.10
  L 142.45 237.85
  A 0.70 0.70 0.0 0 0 143.12 238.32
  L 145.73 238.31
  Z"
/>
<path fill="#310708" d="
  M 343.15 287.00
  L 335.16 287.00
  Q 325.75 286.06 322.49 285.45
  C 270.85 275.77 251.29 228.71 255.76 180.50
  C 259.21 143.36 276.84 111.33 313.59 99.37
  C 327.37 94.88 342.53 93.98 356.99 95.84
  C 398.76 101.22 421.87 133.29 421.65 174.18
  A 0.99 0.98 68.2 0 1 421.35 174.89
  L 411.41 184.86
  Q 410.84 185.43 410.04 185.43
  L 291.79 185.42
  A 0.52 0.52 0.0 0 0 291.27 185.91
  C 288.83 220.89 304.34 267.38 346.66 268.66
  C 380.56 269.69 402.39 238.97 410.42 209.73
  Q 411.54 205.67 412.52 201.55
  Q 412.65 201.00 413.21 201.11
  L 424.75 203.44
  Q 425.24 203.54 425.16 204.03
  C 418.85 242.26 397.60 277.69 356.74 285.21
  Q 350.95 286.27 343.15 287.00
  Z
  M 385.36 163.32
  C 386.07 136.83 373.81 108.91 342.82 109.82
  C 310.87 110.75 295.87 142.94 292.97 170.42
  Q 292.91 170.99 293.49 170.99
  L 377.69 170.99
  Q 378.20 170.99 378.55 170.63
  L 384.97 164.23
  A 1.38 1.38 0.0 0 0 385.36 163.32
  Z"
/>
<path fill="#310708" d="
  M 511.01 142.05
  L 513.75 142.00
  Q 514.28 142.00 514.46 141.49
  Q 522.35 119.15 540.03 106.80
  Q 552.87 97.83 569.99 96.66
  Q 583.38 95.75 596.76 95.01
  Q 597.29 94.98 597.19 95.50
  L 590.14 130.73
  Q 590.05 131.19 589.58 131.19
  Q 578.86 131.14 568.00 131.18
  Q 553.88 131.24 548.14 132.75
  C 523.24 139.28 514.19 164.41 514.14 187.50
  Q 514.05 224.18 514.05 260.87
  A 1.34 1.30 23.1 0 0 514.44 261.80
  L 520.92 268.29
  Q 521.36 268.73 521.97 268.73
  L 578.75 268.74
  Q 579.25 268.74 579.25 269.25
  L 579.26 282.73
  Q 579.26 283.22 578.77 283.22
  L 452.99 283.22
  A 0.48 0.48 0.0 0 1 452.51 282.74
  L 452.52 269.49
  A 0.74 0.74 0.0 0 1 453.26 268.75
  L 473.72 268.75
  A 1.24 1.23 -67.0 0 0 474.58 268.40
  L 480.55 262.50
  A 3.19 3.16 67.8 0 0 481.49 260.24
  L 481.49 124.44
  Q 481.49 123.90 480.94 123.90
  L 453.11 123.94
  Q 452.53 123.94 452.53 123.36
  L 452.53 110.01
  Q 452.53 109.55 452.99 109.54
  Q 482.91 108.48 509.70 95.27
  Q 510.46 94.90 510.46 95.75
  L 510.46 141.51
  A 0.54 0.54 0.0 0 0 511.01 142.05
  Z"
/>
<path fill="#310708" d="
  M 644.18 123.90
  L 615.82 123.94
  A 0.37 0.37 0.0 0 1 615.45 123.57
  L 615.44 109.85
  A 0.38 0.37 89.2 0 1 615.80 109.47
  Q 647.73 108.87 676.50 95.22
  Q 676.96 95.00 676.96 95.51
  L 676.96 260.78
  Q 676.96 261.42 677.41 261.88
  L 683.88 268.37
  A 1.23 1.23 0.0 0 0 684.75 268.73
  L 705.29 268.73
  Q 705.85 268.74 705.85 269.29
  L 705.84 282.56
  Q 705.84 283.22 705.19 283.22
  L 615.94 283.22
  Q 615.41 283.22 615.41 282.69
  L 615.44 269.03
  A 0.29 0.28 90.0 0 1 615.72 268.74
  L 636.51 268.73
  A 1.47 1.47 0.0 0 0 637.55 268.30
  L 643.57 262.27
  A 3.11 3.11 0.0 0 0 644.47 260.08
  L 644.40 124.11
  A 0.21 0.21 0.0 0 0 644.18 123.90
  Z"
/>
<path fill="#310708" d="
  M 897.69 124.23
  A 0.34 0.33 -0.0 0 0 897.35 123.90
  L 869.15 123.94
  Q 868.62 123.94 868.62 123.40
  L 868.63 109.97
  Q 868.63 109.50 869.09 109.49
  Q 901.01 108.86 929.78 95.21
  Q 930.26 94.99 930.26 95.51
  L 930.26 261.00
  A 1.26 1.22 -68.1 0 0 930.62 261.88
  L 937.06 268.36
  Q 937.43 268.73 937.95 268.73
  L 958.73 268.73
  Q 959.22 268.73 959.22 269.23
  L 959.22 282.75
  Q 959.22 283.22 958.75 283.22
  L 869.22 283.22
  Q 868.58 283.22 868.58 282.58
  L 868.60 269.32
  A 0.58 0.57 0.0 0 1 869.18 268.75
  L 889.75 268.74
  Q 890.37 268.74 890.80 268.30
  L 897.28 261.81
  Q 897.71 261.38 897.71 260.78
  L 897.69 124.23
  Z"
/>
<path fill="#310708" d="
  M 1070.66 287.00
  L 1062.67 287.00
  Q 1052.94 286.04 1049.99 285.48
  C 988.64 273.94 972.48 208.92 987.62 156.50
  C 997.26 123.10 1021.45 100.88 1056.48 95.78
  C 1070.91 93.69 1087.78 95.05 1101.59 99.95
  C 1133.75 111.34 1149.30 140.78 1148.93 174.26
  Q 1148.92 174.76 1148.57 175.11
  L 1138.59 185.08
  Q 1138.24 185.43 1137.75 185.43
  L 1019.25 185.42
  Q 1018.65 185.42 1018.61 186.03
  C 1017.40 204.19 1020.47 223.04 1029.08 239.19
  C 1038.96 257.71 1057.01 269.89 1078.43 268.62
  C 1113.40 266.55 1133.63 231.90 1139.86 201.45
  A 0.46 0.46 0.0 0 1 1140.40 201.09
  L 1152.23 203.44
  Q 1152.62 203.51 1152.56 203.91
  C 1145.84 244.30 1122.98 280.53 1078.99 286.03
  Q 1074.85 286.54 1070.66 287.00
  Z
  M 1073.24 109.86
  C 1039.39 108.70 1023.24 141.95 1020.29 170.76
  Q 1020.27 170.99 1020.51 170.99
  L 1105.04 170.99
  A 1.50 1.46 21.9 0 0 1106.09 170.56
  L 1112.33 164.30
  Q 1112.73 163.90 1112.74 163.34
  C 1113.35 138.34 1102.56 110.86 1073.24 109.86
  Z"
/>
</svg>
