<?xml version="1.0" encoding="UTF-8"?>
<svg width="184px" height="70px" viewBox="0 0 184 70" version="1.1" xmlns="http://www.w3.org/2000/svg" xmlns:xlink="http://www.w3.org/1999/xlink">
    <!-- Generator: Sketch 54.1 (76490) - https://sketchapp.com -->
    <title>Screenshot 2023-10-05 at 12.10.47 PM</title>
    <desc>Created with Sketch.</desc>
    <g id="logos" stroke="none" stroke-width="1" fill="none" fill-rule="evenodd">
        <g id="Screenshot-2023-10-05-at-12.10.47-PM" transform="translate(-1.000000, 0.000000)" fill="#FFFFFF" fill-rule="nonzero">
            <path d="M128.81,19.96 C128.68,24.25 127.77,36.54 129.8,39.95 C131.73,43.2 134.76,41.42 137.39,39.91 C137.696667,39.73 137.963333,39.78 138.19,40.06 L143.29,46.29 C143.51,46.5633333 143.49,46.8166667 143.23,47.05 C133.15,56.16 119.46,50.99 119.17,36.74 C118.93,24.66 118.896667,12.5733333 119.07,0.48 C119.076667,0.16 119.24,0 119.56,0 L128,0 C128.5,0 128.75,0.25 128.75,0.75 L128.75,10.5 C128.75,10.8333333 128.916667,11 129.25,11 L139.75,11 C140.25,11 140.5,11.25 140.5,11.75 L140.5,18.88 C140.5,19.2933333 140.29,19.5 139.87,19.5 L129.28,19.5 C128.973333,19.5 128.816667,19.6533333 128.81,19.96 Z" id="Path"></path>
            <path d="M32.74,12.75 L32.77,11.75 C32.7861281,11.3309769 33.1306668,10.9996897 33.55,11 L41.98,11 C42.32,11 42.49,11.17 42.49,11.51 C42.5033333,21.7366667 42.51,31.95 42.51,42.15 C42.5166667,48.9833333 42.0066667,53.8233333 40.98,56.67 C36.88,68.06 22.65,73.61 11.67,67.14 C11.39,66.98 11.33,66.7566667 11.49,66.47 L15.7,58.93 C15.88,58.6033333 16.1333333,58.5333333 16.46,58.72 C23.95,62.95 32.1,57.44 32.49,49.25 C32.51,48.8966667 32.36,48.7933333 32.04,48.94 C22.9133333,53.06 15.05,52.29 8.45,46.63 C-10.5,30.37 9.72,1.14 32.04,13.15 C32.4866667,13.39 32.72,13.2566667 32.74,12.75 Z M32.36,30.93 C32.36,28.0762706 31.2263604,25.3394225 29.208469,23.321531 C27.1905775,21.3036396 24.4537294,20.17 21.6,20.17 C15.6574161,20.17 10.84,24.9874161 10.84,30.93 C10.84,36.8725839 15.6574161,41.69 21.6,41.69 C27.5425839,41.69 32.36,36.8725839 32.36,30.93 L32.36,30.93 Z" id="Shape"></path>
            <path d="M92.31,38.71 C95.04,41.6 101.77,45.43 104.23,40.23 C104.365526,39.9404776 104.39047,39.6161995 104.3,39.32 C103.28,36.06 95.72,33 93.17,31.34 C76.2,20.29 98.42,0.38 112.34,16.19 C112.632697,16.5144874 112.619502,17.0115002 112.31,17.32 L107.06,22.57 C106.806667,22.8233333 106.56,22.8166667 106.32,22.55 C104.39,20.44 97.47,16.7 96.73,21.37 C96.5641981,22.3963737 97.092127,23.4116217 98.03,23.87 C101.55,25.5633333 104.846667,27.39 107.92,29.35 C116.26,34.67 115.12,46.85 105.77,50.32 C98.3766667,53.06 91.82,51.4366667 86.1,45.45 C85.8266667,45.1633333 85.8233333,44.87 86.09,44.57 L91.45,38.72 C91.7366667,38.4066667 92.0233333,38.4033333 92.31,38.71 Z" id="Path"></path>
            <path d="M184.96,30.94 C184.96,42.3004973 175.750497,51.51 164.39,51.51 C153.029503,51.51 143.82,42.3004973 143.82,30.94 C143.82,19.5795027 153.029503,10.37 164.39,10.37 C175.750497,10.37 184.96,19.5795027 184.96,30.94 L184.96,30.94 Z M175.12,30.93 C175.12,24.9984618 170.311538,20.19 164.38,20.19 C158.448462,20.19 153.64,24.9984618 153.64,30.93 C153.64,36.8615382 158.448462,41.67 164.38,41.67 C170.311538,41.67 175.12,36.8615382 175.12,30.93 L175.12,30.93 Z" id="Shape"></path>
            <path d="M78.91,43.75 C72.85,54.37 56.38,54.61 50.83,42.44 C47.59,35.33 48.76,19.55 49.16,11.58 C49.18,11.1933333 49.38,11 49.76,11 L58.48,11 C58.7506195,11 58.97,11.2193805 58.97,11.49 C59.03,19.35 59.0333333,27.1833333 58.98,34.99 C58.92,44.75 71.54,45.17 71.5,33.27 C71.4666667,26.0166667 71.4733333,18.7666667 71.52,11.52 C71.5266667,11.1733333 71.7,11 72.04,11 L80.72,11 C81.0933333,11 81.2933333,11.1866667 81.32,11.56 C81.79,19.77 82.99,36.61 78.91,43.75 Z" id="Path"></path>
        </g>
    </g>
</svg>