<?xml version="1.0" encoding="UTF-8"?>
<svg width="280px" height="56px" viewBox="0 0 280 56" version="1.1" xmlns="http://www.w3.org/2000/svg" xmlns:xlink="http://www.w3.org/1999/xlink">
    <!-- Generator: Sketch 54.1 (76490) - https://sketchapp.com -->
    <title>Screenshot 2023-10-02 at 1.52.35 PM</title>
    <desc>Created with Sketch.</desc>
    <g id="Page-1" stroke="none" stroke-width="1" fill="none" fill-rule="evenodd">
        <g id="Screenshot-2023-10-02-at-1.52.35-PM" fill="#000000" fill-rule="nonzero">
            <path d="M23.38,31.25 L13.24,39.65 C13.1840422,39.6958422 13.1452676,39.7592916 13.13,39.83 L10.48,54.49 C10.4508211,54.6429934 10.3157266,54.7527576 10.16,54.75 L0.4,54.75 C0.305380927,54.7487228 0.216178995,54.7056334 0.156362301,54.6323097 C0.0965456068,54.558986 0.0722486878,54.4629478 0.09,54.37 L9.69,0.26 C9.71917891,0.107006604 9.85427337,-0.00275764824 10.01,-3.55271368e-15 L19.78,-3.55271368e-15 C19.8746191,0.00127720988 19.963821,0.0443666086 20.0236377,0.117690298 C20.0834544,0.191013987 20.1077513,0.287052213 20.09,0.38 L15.03,29.02 C15.0018694,29.1537992 15.061854,29.2906903 15.179293,29.360702 C15.296732,29.4307137 15.4456788,29.4183779 15.55,29.33 L25.7,21.09 C25.7600049,21.0391216 25.7991648,20.9679218 25.81,20.89 L29.42,0.26 C29.4491789,0.107006604 29.5842734,-0.00275764824 29.74,-3.55271368e-15 L39.5,-3.55271368e-15 C39.5946191,0.00127720988 39.683821,0.0443666086 39.7436377,0.117690298 C39.8034544,0.191013987 39.8277513,0.287052213 39.81,0.38 L30.22,54.49 C30.1908211,54.6429934 30.0557266,54.7527576 29.9,54.75 L20.18,54.75 C20.0853809,54.7487228 19.996179,54.7056334 19.9363623,54.6323097 C19.8765456,54.558986 19.8522487,54.4629478 19.87,54.37 L23.9,31.55 C23.9225784,31.4179583 23.860522,31.2858272 23.7444893,31.2188852 C23.6284566,31.1519433 23.4830074,31.1643596 23.38,31.25 Z" id="Path"></path>
            <path d="M120.44,13.15 L122.69,0.59 C122.756667,0.196666667 122.993333,0 123.4,0 L132.28,0 C132.753333,0 132.946667,0.233333333 132.86,0.7 L123.37,54.23 C123.31,54.5766667 123.103333,54.75 122.75,54.75 L113.82,54.75 C113.667561,54.7484821 113.524144,54.6774783 113.432024,54.5579183 C113.339904,54.4383582 113.309584,54.283873 113.35,54.14 L114.61,49.81 C114.65358,49.6494735 114.58617,49.4776191 114.445627,49.3909511 C114.305084,49.3042831 114.126431,49.3243984 114.01,49.44 C112.95,50.42 111.93,51.4166667 110.95,52.43 C106.65,56.85 99.18,56.89 97.98,49.75 C96.44,40.57 99.26,13.02 110.08,9.22 C113.666667,7.96 116.803333,9.33666667 119.49,13.35 C119.97,14.07 120.286667,14.0033333 120.44,13.15 Z M107.74,42.24 C106.98,47.19 112.79,45.91 114.56,43.36 C115.08,42.6066667 115.5,41.2933333 115.82,39.42 C116.793333,33.76 117.77,28.1033333 118.75,22.45 C119.69,17.02 112.7,16.09 111.45,21.95 C110.01,28.6766667 108.773333,35.44 107.74,42.24 Z" id="Shape"></path>
            <path d="M173,13.96 C175.36,12.23 178.13,9.33 181.63,8.88 C189.18,7.89 189.88,15.19 188.92,20.53 C186.9,31.7766667 184.863333,43.0233333 182.81,54.27 C182.75,54.59 182.556667,54.75 182.23,54.75 L173.26,54.75 C173.098816,54.7497171 172.946082,54.6774853 172.842159,54.5523928 C172.738236,54.4273003 172.693583,54.2619362 172.72,54.1 C174.56,43.6266667 176.39,33.1733333 178.21,22.74 C178.39,21.7133333 178.333333,20.51 178.04,19.13 C177.966667,18.79 177.78,18.5333333 177.48,18.36 C174.12,16.5 170.74,20.87 170.28,23.71 C168.673333,33.61 166.95,43.7766667 165.11,54.21 C165.043333,54.57 164.826667,54.75 164.46,54.75 L155.51,54.75 C155.07,54.75 154.886667,54.5333333 154.96,54.1 L164.4,0.54 C164.46,0.18 164.673333,3.55271368e-15 165.04,3.55271368e-15 L173.93,3.55271368e-15 C174.115765,-0.000516614903 174.291974,0.0822901723 174.410134,0.225632542 C174.528295,0.368974911 174.575955,0.557746958 174.54,0.74 L172.29,13.52 C172.258308,13.7010858 172.339954,13.8832404 172.496218,13.9800802 C172.652482,14.07692 172.851939,14.0689699 173,13.96 Z" id="Path"></path>
            <path d="M229.85,34.7 L226.36,54.21 C226.293333,54.57 226.076667,54.75 225.71,54.75 L216.82,54.75 C216.353333,54.75 216.163333,54.5233333 216.25,54.07 L225.68,0.69 C225.76,0.23 226.033333,0 226.5,0 L235.39,0 C235.77,0 235.926667,0.186666667 235.86,0.56 L231.28,26.56 C231.236523,26.8333512 231.388009,27.1026601 231.643556,27.2063254 C231.899103,27.3099908 232.189295,27.219853 232.34,26.99 L243.71,9.93 C243.903333,9.64333333 244.173333,9.5 244.52,9.5 L254.25,9.5 C254.703333,9.5 254.803333,9.68666667 254.55,10.06 L241.22,30.3 C241.033333,30.5933333 240.993333,30.9066667 241.1,31.24 L248.45,54.06 C248.596667,54.52 248.43,54.75 247.95,54.75 L237.9,54.75 C237.466667,54.75 237.186667,54.5433333 237.06,54.13 L230.94,34.63 C230.865908,34.3791691 230.628058,34.2130297 230.367051,34.2297916 C230.106044,34.2465536 229.891399,34.4417523 229.85,34.7 L229.85,34.7 Z" id="Path"></path>
            <path d="M51.92,49.7 C51.9934994,49.4917044 51.9005365,49.2640952 51.701914,49.166041 C51.5032916,49.0679869 51.2595033,49.1293519 51.13,49.31 C48.5,53.02 43.96,56.41 39.34,55.34 C28.93,52.93 36.86,38.12 41.38,34.1 C45.58,30.3666667 49.9133333,26.7733333 54.38,23.32 C56.69,21.53 57.39,15.3 53.04,15.79 C49.77,16.17 49,23.08 48.61,25.73 C48.5566667,26.0766667 48.3566667,26.25 48.01,26.25 L39.02,26.25 C38.7,26.25 38.5533333,26.09 38.58,25.77 C39.42,16.3 45.61,8.06 55.67,8.76 C62.76,9.26 66.96,14.17 66.01,21.27 C65.39,25.93 63.49,36.8733333 60.31,54.1 C60.23,54.5333333 59.97,54.75 59.53,54.75 L51.03,54.75 C50.8544761,54.7490218 50.6899607,54.6643242 50.5871915,54.5220283 C50.4844223,54.3797325 50.4557436,54.1969307 50.51,54.03 L51.92,49.7 Z M44.72,45.36 C46.72,47.1 49.43,45.32 50.88,43.85 C53.05,41.67 53.5,35.12 53.96,32.07 C54,31.79 53.9,31.7233333 53.66,31.87 C50.65,33.65 41.04,42.17 44.72,45.36 Z" id="Shape"></path>
            <path d="M80.88,14.84 C84.1,11.73 86.4,9.33 90.34,8.81 C97.25,7.91 98.52,14.63 97.72,19.74 C95.92,31.24 93.9166667,42.71 91.71,54.15 C91.63,54.55 91.39,54.75 90.99,54.75 L82.03,54.75 C81.6966667,54.75 81.56,54.5866667 81.62,54.26 C83.5466667,43.4333333 85.4266667,32.5966667 87.26,21.75 C87.5133333,20.2633333 87.0666667,19.2866667 85.92,18.82 C83.25,17.73 79.88,20.94 79.49,23.25 C77.7033333,33.6033333 75.8666667,43.9533333 73.98,54.3 C73.9266667,54.6 73.7466667,54.75 73.44,54.75 L64.36,54.75 C63.9733333,54.75 63.8133333,54.56 63.88,54.18 L71.65,10.15 C71.73,9.71666667 71.99,9.5 72.43,9.5 L81.19,9.5 C81.3504175,9.50118845 81.5005232,9.57927689 81.5935791,9.70995122 C81.6866351,9.84062555 81.7113394,10.0080149 81.66,10.16 L80.2,14.41 C80.1292632,14.5926793 80.197638,14.7998785 80.3632084,14.9045774 C80.5287788,15.0092763 80.7452844,14.9822222 80.88,14.84 Z" id="Path"></path>
            <path d="M137.92,46.25 C138.09,51.28 147.54,47.7 142.95,41.31 C139.57,36.6 134.33,30.45 132.84,25.74 C129.98,16.74 138.89,8 147.85,8.7 C156.49,9.38 160.23,16.32 157.27,24.36 C157.176667,24.62 156.993333,24.75 156.72,24.75 L147.78,24.75 C147.406667,24.75 147.263333,24.5666667 147.35,24.2 C147.83,22.26 148.93,17.79 147.3,16.22 C146.473333,15.42 145.54,15.28 144.5,15.8 C141.44,17.34 142.19,20.96 143.93,23.44 C147.32,28.26 153.08,34.6 154.12,39.94 C157.76,58.39 121.96,63.43 128.67,39.46 C128.756667,39.1533333 128.956667,39 129.27,39 L138.24,39 C138.375472,39.0013253 138.503675,39.0610272 138.590407,39.1631783 C138.677139,39.2653294 138.713577,39.3995382 138.69,39.53 C138.143333,42.9833333 137.886667,45.2233333 137.92,46.25 Z" id="Path"></path>
            <path d="M204.34,49.78 C204.426924,49.5286031 204.314038,49.2517187 204.07612,49.1327597 C203.838202,49.0138008 203.548963,49.0896228 203.4,49.31 C200.78,53.37 194.54,57.55 189.77,54.56 C182.06,49.75 189.9,37.36 194.63,33.37 C200.27,28.61 204.63,25.04 207.71,22.66 C207.956667,22.4733333 208.113333,22.2266667 208.18,21.92 C208.66,19.56 209.07,15.73 206.01,15.76 C201.9,15.81 201.5,22.98 200.9,25.73 C200.833952,26.0346172 200.567071,26.2514582 200.26,26.25 L191.28,26.25 C191.073333,26.25 190.976667,26.1466667 190.99,25.94 C191.65,15.3 199.55,6.74 210.29,9 C218.27,10.68 218.96,17.28 217.81,24.53 C216.243333,34.45 214.52,44.3466667 212.64,54.22 C212.573333,54.5733333 212.36,54.75 212,54.75 L203.18,54.75 C203.035415,54.7520949 202.899031,54.6830163 202.815173,54.5652159 C202.731315,54.4474156 202.710689,54.2959321 202.76,54.16 L204.34,49.78 Z M198.35,46.07 C205.34,46.23 205.63,36.82 206.36,32 C206.433333,31.5533333 206.28,31.46 205.9,31.72 C201.98,34.42 197.05,38.82 196.43,43.85 C196.36208,44.4049933 196.53198,44.9628317 196.897738,45.38574 C197.263497,45.8086482 197.791013,46.0571972 198.35,46.07 L198.35,46.07 Z" id="Shape"></path>
            <path d="M259.68,35.72 C259.04,38.6333333 258.533333,41.5533333 258.16,44.48 C257.73,47.88 260.86,49.63 263.5,47.81 C265.74,46.26 266.38,42.03 266.65,39.54 C266.67604,39.2334954 266.937198,38.9984532 267.25,39 L277,39 C277.142807,39.0004423 277.278001,39.064449 277.368852,39.1746305 C277.459704,39.2848121 277.496777,39.4297255 277.47,39.57 C275.73,48.41 268.54,55.96 259.01,55.4 C244.6,54.56 248.53,35.94 250.51,27.25 C252.64,17.9 258.23,8.1 269.25,8.72 C282.26,9.44 280.83,25.56 278.16,34.9 C278.093333,35.1333333 277.94,35.25 277.7,35.25 L260.26,35.25 C259.94,35.25 259.746667,35.4066667 259.68,35.72 Z M268.5,16.05 C262.28,14.48 261.9,23.13 261.12,27.79 C261.046667,28.2633333 261.246667,28.5 261.72,28.5 L267.99,28.5 C268.376667,28.5 268.606667,28.31 268.68,27.93 C269.26,24.83 270.89,19.41 269.22,16.59 C269.060362,16.3209715 268.801339,16.1267043 268.5,16.05 L268.5,16.05 Z" id="Shape"></path>
        </g>
    </g>
</svg>