<svg id="Layer_1" data-name="Layer 1" xmlns="http://www.w3.org/2000/svg" width="400" height="400" viewBox="0 0 400 400"><defs><style>.cls-1{fill:#fff;}</style></defs><title>3Artboard 1</title><path class="cls-1" d="M200.61,23.42c-100.17,0-181.39,81.21-181.39,181.39a181.44,181.44,0,0,0,124,172.12c9.06,1.68,12.39-3.94,12.39-8.73,0-4.32-.17-18.62-.25-33.77C104.95,345.4,94.3,313,94.3,313c-8.25-21-20.14-26.54-20.14-26.54-16.46-11.26,1.24-11,1.24-11,18.21,1.28,27.81,18.69,27.81,18.69,16.18,27.73,42.43,19.71,52.79,15.08,1.63-11.72,6.33-19.73,11.52-24.26-40.29-4.58-82.65-20.14-82.65-89.64,0-19.8,7.09-36,18.69-48.69-1.88-4.57-8.09-23,1.76-48,0,0,15.23-4.87,49.89,18.6a172,172,0,0,1,90.84,0c34.62-23.47,49.83-18.6,49.83-18.6,9.87,25,3.66,43.43,1.78,48,11.63,12.7,18.67,28.88,18.67,48.69,0,69.67-42.43,85-82.83,89.5,6.51,5.63,12.3,16.67,12.3,33.59,0,24.27-.21,43.8-.21,49.78,0,4.83,3.26,10.48,12.46,8.7A181.42,181.42,0,0,0,200.61,23.42Z"/><path class="cls-1" d="M87.92,283.85c-.4.9-1.82,1.17-3.11.55s-2.05-1.82-1.63-2.73,1.81-1.18,3.12-.57,2.07,1.83,1.61,2.74Zm-2.23-1.65"/><path class="cls-1" d="M95.27,292c-.87.8-2.56.43-3.7-.84s-1.41-3-.53-3.77,2.53-.43,3.72.84,1.42,3,.52,3.77Zm-1.73-1.86"/><path class="cls-1" d="M102.42,302.49c-1.11.77-2.93,0-4.05-1.56s-1.11-3.55,0-4.32,2.92-.08,4.05,1.52,1.11,3.58,0,4.36Zm0,0"/><path class="cls-1" d="M112.22,312.59c-1,1.1-3.11.8-4.66-.7s-2-3.54-1-4.63,3.14-.79,4.7.7,2.05,3.55,1,4.63Zm0,0"/><path class="cls-1" d="M125.73,318.45c-.44,1.42-2.48,2.07-4.53,1.46s-3.39-2.29-3-3.72,2.48-2.1,4.54-1.46,3.39,2.27,3,3.72Zm0,0"/><path class="cls-1" d="M140.58,319.53c0,1.5-1.69,2.74-3.85,2.76s-3.92-1.16-3.95-2.63,1.7-2.74,3.87-2.77,3.93,1.16,3.93,2.65Zm0,0"/><path class="cls-1" d="M154.39,317.18c.26,1.46-1.24,3-3.38,3.36s-4.05-.52-4.32-2,1.26-3,3.37-3.38,4.07.5,4.34,2Zm0,0"/></svg>