<?xml version="1.0" encoding="UTF-8"?>
<svg width="163px" height="128px" viewBox="0 0 163 128" version="1.1" xmlns="http://www.w3.org/2000/svg" xmlns:xlink="http://www.w3.org/1999/xlink">
    <!-- Generator: Sketch 54.1 (76490) - https://sketchapp.com -->
    <title>CS_Logos_2020_FullBlack</title>
    <desc>Created with Sketch.</desc>
    <g id="logos" stroke="none" stroke-width="1" fill="none" fill-rule="evenodd">
        <g id="CS_Logos_2020_FullBlack" transform="translate(-1.000000, 0.000000)" fill="#FFFFFF">
            <path d="M155.845,102.684 C152.337,102.335 146.115,101.47 138.325,105.396 C130.542,109.321 127.478,109.491 123.657,109.084 C124.781,111.137 127.055,113.958 134.212,114.461 C141.369,114.965 144.79,115.187 141.024,124.104 C141.112,121.411 140.483,116.201 133.377,117.116 C126.276,118.032 124.616,124.424 132.236,127.616 C129.757,128.114 124.506,128.41 120.755,118.597 C118.156,119.726 114.15,121.989 106.886,116.378 C109.416,117.296 112.547,117.355 112.547,117.355 C106.097,114.276 99.941,108.552 95.993,103.143 C99.123,105.471 102.575,107.795 106.066,108.229 C101.941,103.196 92.4,93.131 80.725,82.789 C88.232,87.69 97.29,95.44 112.108,93.697 C126.931,91.954 136.892,88.557 155.845,102.684" id="Fill-1"></path>
            <path d="M92.407,99.19 C83.111,95.162 81.121,94.354 69.171,91.316 C57.219,88.28 45.465,81.963 37.607,72.102 C43.149,76.161 54.461,84.325 66.084,83.441 C64.316,80.856 61.06,78.841 57.164,76.809 C61.568,77.865 74.859,81.264 92.407,99.19" id="Fill-2"></path>
            <path d="M72.171,64.79 C69.773,57.915 65.452,49.112 44.948,36.034 C34.961,29.446 20.302,21.17 0.998,0.066 C2.378,5.754 8.477,20.546 39.211,39.751 C49.308,46.638 62.337,50.889 72.171,64.79" id="Fill-3"></path>
            <path d="M73.439,74.755 C70.917,68.936 65.847,61.471 45.985,50.813 C36.825,45.684 21.178,37.789 7.105,22.781 C8.382,28.199 14.913,40.102 43.023,54.967 C50.808,59.254 63.966,63.277 73.439,74.755" id="Fill-4"></path>
            <path d="M92.704,44.678 C53.987,33.601 38.588,19.62 26.678,4.981 C32.117,21.829 45.089,27.857 58.947,39.168 C72.804,50.481 73.593,56.557 77.676,63.24 C86.768,78.129 88.215,80.588 97.241,87.087 C107.879,94.145 120.744,89.37 134.856,91.584 C148.967,93.795 160.63,104.55 163.169,108.691 C166.127,103.414 159.059,95.808 157.152,93.899 C158.169,86.985 141.823,83.948 135.632,81.582 C134.419,81.118 131.409,80.421 134.018,74.216 C137.536,65.653 141.202,58.203 92.704,44.678 M148.582,90.105 C155.923,91.212 155.554,92.771 155.631,95.453 C152.509,92.042 148.582,90.105 148.582,90.105" id="Fill-5"></path>
        </g>
    </g>
</svg>