<?xml version="1.0" encoding="UTF-8"?>
<svg width="54px" height="53px" viewBox="0 0 54 53" version="1.1" xmlns="http://www.w3.org/2000/svg" xmlns:xlink="http://www.w3.org/1999/xlink">
    <!-- Generator: Sketch 54.1 (76490) - https://sketchapp.com -->
    <title>Screenshot 2023-10-11 at 2.58.59 PM</title>
    <desc>Created with Sketch.</desc>
    <g id="logos" stroke="none" stroke-width="1" fill="none" fill-rule="evenodd">
        <g id="Screenshot-2023-10-11-at-2.58.59-PM" fill="#FFFFFF" fill-rule="nonzero">
            <path d="M5.56,0.92 C6.51347187,-0.0363427884 8.06101611,-0.0408154596 9.02,0.91 L21,12.85 C22.6610048,14.5059395 23.8629408,16.4858663 24.3412027,18.3539012 C24.8194646,20.2219361 24.5348441,21.8249353 23.55,22.81 L23.54,22.82 C22.5575752,23.807457 20.9550115,24.0967069 19.0851053,23.6240726 C17.2151992,23.1514384 15.2312448,21.9556664 13.57,20.3 L1.59,8.36 C0.636426501,7.40376979 0.636426501,5.85623021 1.59,4.9 L5.56,0.92 Z" id="Path"></path>
            <path d="M52.69,4.87 C53.6396692,5.82555964 53.6351927,7.3699617 52.68,8.32 L40.75,20.21 C37.257816,23.6912948 32.7766053,24.8597224 30.74,22.82 L30.74,22.82 C28.7053253,20.7780733 29.8872245,16.301182 33.38,12.82 L45.31,0.92 C46.2655596,-0.0296692209 47.8099617,-0.0251926932 48.76,0.93 L52.69,4.87 Z" id="Path"></path>
            <path d="M10.58,50.31 C6.64,54.23 0.34,50.08 1.98,45.13 C2.33333333,44.0833333 3.24,42.8333333 4.7,41.38 C8.48666667,37.62 12.2666667,33.8466667 16.04,30.06 C16.2904798,29.8157333 16.626696,29.6762394 16.98,29.67 L23.45,29.66 C23.8033333,29.66 23.98,29.84 23.98,30.2 L23.95,36.6 C23.9504348,36.8872288 23.834934,37.1615432 23.63,37.36 C19.25,41.6866667 14.9,46.0033333 10.58,50.31 Z" id="Path"></path>
            <path d="M48.77,51.9 C48.3116571,52.3623768 47.6881262,52.6233087 47.0370755,52.6251849 C46.3860247,52.6270611 45.7610003,52.3697274 45.3,51.91 L33.45,40.1 C29.9520409,36.6155238 28.7745606,32.1249812 30.82,30.07 L30.84,30.06 C31.822377,29.0726836 33.4322312,28.790889 35.3152237,29.2766411 C37.1982162,29.7623932 39.2000107,30.9758779 40.88,32.65 L52.73,44.46 C53.6835735,45.4162302 53.6835735,46.9637698 52.73,47.92 L48.77,51.9 Z" id="Path"></path>
        </g>
    </g>
</svg>