<?xml version="1.0" encoding="UTF-8"?>
<svg width="73px" height="73px" viewBox="0 0 73 73" version="1.1" xmlns="http://www.w3.org/2000/svg" xmlns:xlink="http://www.w3.org/1999/xlink">
    <!-- Generator: Sketch 54.1 (76490) - https://sketchapp.com -->
    <title>Screenshot 2023-10-20 at 12.50.52 PM</title>
    <desc>Created with Sketch.</desc>
    <g id="logos" stroke="none" stroke-width="1" fill="none" fill-rule="evenodd">
        <g id="Screenshot-2023-10-20-at-12.50.52-PM" fill="#FFFFFF" fill-rule="nonzero">
            <path d="M39.35,64.69 C38.6667353,63.8963899 37.6783512,63.4303583 36.6299745,63.4074847 C35.5815978,63.384611 34.5714298,63.8070378 33.85,64.57 C27.98,70.79 21.09,74.36 12.5,71.49 C3.15,68.36 -2.18,57.64 1.35,48.24 C2.73,44.56 5.7,40.96 8.76,38.46 C9.37610837,37.954517 9.74465794,37.2081661 9.77146263,36.4116838 C9.79826733,35.6152015 9.48072996,34.8457612 8.9,34.3 C4.21,29.9 0.49,25.39 0.3,18.54 C-0.12,3.85 16.35,-4.92 28.27,3.01 C29.9033333,4.09666667 31.73,5.73 33.75,7.91 C33.9613823,8.13351991 34.2543568,8.2601138 34.56,8.26 L38.39,8.24 C38.77,8.24 39.09,8.1 39.35,7.82 C41.6366667,5.32 43.7066667,3.56666667 45.56,2.56 C55.21,-2.69 66.6,1.05 71.17,11.05 C75.1,19.65 71.29,27.41 64.88,33.51 C64.137731,34.2121052 63.7148772,35.1874563 63.7092145,36.2105245 C63.7035517,37.2335927 64.1155704,38.2157884 64.85,38.93 C71.02,44.91 74.58,51.62 71.66,60.21 C68.39,69.82 57.17,75.07 47.58,70.94 C44.56,69.64 41.51,67.18 39.35,64.69 Z M18.92,28.2 L28.43,18.72 C30.1975871,16.9544168 30.202061,14.0910982 28.44,12.32 L26.82,10.69 C24.6323765,8.49207874 21.7058507,7.20876869 18.684485,7.12249754 C15.6631193,7.03622639 12.7945195,8.1540642 10.71,10.23 L10.5,10.45 C8.41527663,12.5253516 7.28514874,15.3887046 7.35829011,18.4100057 C7.43143148,21.4313069 8.70184918,24.3630021 10.89,26.56 L12.52,28.18 C14.2828218,29.9503592 17.146148,29.9593071 18.92,28.2 Z M44.59,18.73 L54.08,28.19 C54.9310126,29.0393211 56.0847561,29.5154916 57.2870727,29.5136159 C58.4893893,29.5117402 59.6416416,29.0319722 60.49,28.18 L62.12,26.53 C66.6685171,21.9674222 66.8430895,14.7651902 62.51,10.44 L62.31,10.24 C60.226146,8.16195286 57.3586082,7.04073627 54.3388724,7.12326321 C51.3191366,7.20579015 48.3948516,8.48529258 46.21,10.68 L44.58,12.32 C43.7306789,13.1710126 43.2545084,14.3247561 43.2563841,15.5270727 C43.2582598,16.7293893 43.7380278,17.8816416 44.59,18.73 Z M23.43,38.64 C23.4300189,38.9025571 23.5343346,39.1543536 23.72,39.34 L32.99,48.63 C34.9264847,50.5640029 38.0635153,50.5640029 40,48.63 L48.82,39.83 C50.7909623,37.8580559 50.7909623,34.6619441 48.82,32.69 L39.18,23.06 C38.4700523,22.3473691 37.5051788,21.9469491 36.4979329,21.9469491 C35.4906871,21.9469491 34.5237034,22.3473691 33.81,23.06 L23.71,33.17 C23.5178377,33.361978 23.4099054,33.6246131 23.41,33.9 L23.43,38.64 Z M28.43,53.78 L18.92,44.3 C17.146148,42.5406929 14.2828218,42.5496408 12.52,44.32 L10.91,45.93 C6.34685586,50.5106963 6.16331539,57.7269705 10.5,62.05 L10.71,62.27 C15.049326,66.5914712 22.2660646,66.3810576 26.83,61.8 L28.44,60.18 C30.202061,58.4089018 30.1975871,55.5455832 28.43,53.78 Z M54.06,44.33 L44.65,53.67 C42.8718375,55.4373924 42.8628837,58.3115631 44.63,60.09 L46.44,61.92 C50.8870658,66.3987876 58.0051371,66.5420444 62.34,62.24 L62.5,62.08 C66.8306717,57.7751745 66.7366674,50.6577067 62.29,46.18 L60.48,44.35 C58.7126076,42.5718375 55.8384369,42.5628837 54.06,44.33 Z" id="Shape"></path>
        </g>
    </g>
</svg>