<svg width="364" height="86" viewBox="0 0 364 86" fill="none" xmlns="http://www.w3.org/2000/svg">
<path d="M17.36 28.33C16.74 27.9633 16.4367 27.4033 16.45 26.65C16.45 26.5202 16.4079 26.3939 16.33 26.29C15.7567 25.5433 15.4067 24.6967 15.28 23.75C15.1867 23.07 15.3667 22.99 15.82 23.51C23.7867 32.61 31.0633 39.3067 37.65 43.6C49.86 51.57 64.15 59.73 68.56 71.95C68.7533 72.4967 68.6533 72.56 68.26 72.14C67.37 71.2 66.9 69.9 66.09 69.06C62.5567 65.44 59.4667 62.89 56.82 61.41C43.74 54.09 29.62 45.02 19.94 32.93C19.15 31.94 18.72 30.68 17.74 29.67C17.5989 29.5227 17.5201 29.3257 17.52 29.12C17.52 28.96 17.5233 28.7967 17.53 28.63C17.53 28.5687 17.5144 28.5087 17.4845 28.4561C17.4547 28.4034 17.4117 28.3599 17.36 28.33Z" fill="#E73223"/>
<path d="M50.42 45C53.02 49.29 57.72 47.99 61.49 45.52C61.8567 45.28 62.2033 45.31 62.53 45.61L66.8 49.62C66.8657 49.6786 66.9063 49.7606 66.9137 49.8495C66.9211 49.9385 66.8948 50.0279 66.84 50.1C65.0333 52.44 62.7033 54.01 59.85 54.81C59.7747 54.8291 59.6963 54.8318 59.6204 54.818C59.5444 54.8042 59.4727 54.7742 59.41 54.73L41.44 42.17C41.2 42.0033 41.08 41.7733 41.08 41.48C41.12 27.65 56.86 22.71 66.36 31.57C67.16 32.3167 67.1333 33.03 66.28 33.71L62.72 36.53C62.3779 36.8029 61.9438 36.9334 61.5079 36.8943C61.072 36.8552 60.6681 36.6495 60.38 36.32C59.3667 35.1467 57.9833 34.5767 56.23 34.61C50.81 34.71 47.4 40.02 50.42 45Z" fill="#E73223"/>
<path d="M79.49 45.03L79.51 54.25C79.51 54.4167 79.4233 54.5 79.25 54.5H71.25C71.2177 54.5014 71.1854 54.4959 71.1552 54.484C71.1249 54.472 71.0973 54.4538 71.0739 54.4304C71.0506 54.4071 71.032 54.3791 71.0193 54.3481C71.0066 54.3171 71 54.2837 71 54.25V27.74C71 27.3334 71.2033 27.1167 71.61 27.09C76.94 26.8 87.69 26 91.92 29.41C95.12 31.99 96.24 37.47 93.33 40.9C92.4433 41.9467 91.4033 42.81 90.21 43.49C90.1564 43.5189 90.1103 43.5599 90.0754 43.6098C90.0405 43.6597 90.0177 43.7171 90.009 43.7774C90.0002 43.8376 90.0057 43.8991 90.025 43.9569C90.0443 44.0147 90.0768 44.0671 90.12 44.11L93.39 47.42C93.63 47.6667 93.92 47.7834 94.26 47.77C94.5 47.7634 94.7167 47.71 94.91 47.61C95.37 47.37 95.66 47.5034 95.78 48.01L96.93 52.85C96.9661 52.995 96.9618 53.1471 96.9178 53.2898C96.8737 53.4326 96.7915 53.5606 96.68 53.66C94.33 55.73 92.17 54.8 89.64 54.44C89.3133 54.3934 89.0333 54.25 88.8 54.01C86.52 51.67 83.34 45.89 79.87 44.75C79.6167 44.67 79.49 44.7634 79.49 45.03ZM79.49 33.96V38.98C79.49 39.0463 79.5163 39.1099 79.5632 39.1568C79.6101 39.2037 79.6737 39.23 79.74 39.23L83.19 39.24C84.0104 39.2408 84.7973 39.0117 85.3784 38.6031C85.9595 38.1945 86.2873 37.6396 86.29 37.06V35.92C86.2914 35.6318 86.2122 35.3462 86.057 35.0795C85.9018 34.8128 85.6737 34.5703 85.3857 34.366C85.0977 34.1616 84.7555 33.9993 84.3787 33.8885C84.0019 33.7776 83.598 33.7204 83.19 33.72L79.74 33.71C79.6737 33.71 79.6101 33.7364 79.5632 33.7833C79.5163 33.8301 79.49 33.8937 79.49 33.96Z" fill="#E73223"/>
<path d="M127.04 40.9475C127.053 44.6658 125.48 48.2373 122.666 50.8764C119.853 53.5155 116.03 55.006 112.039 55.0199C108.047 55.0338 104.214 53.5701 101.383 50.9507C98.5511 48.3313 96.9531 44.7708 96.9401 41.0525C96.9271 37.3342 98.5003 33.7626 101.314 31.1235C104.127 28.4844 107.95 26.994 111.941 26.9801C115.933 26.9662 119.766 28.4299 122.597 31.0493C125.429 33.6687 127.027 37.2292 127.04 40.9475ZM118.68 41C118.68 39.2283 117.976 37.5292 116.723 36.2765C115.471 35.0238 113.772 34.32 112 34.32C110.228 34.32 108.529 35.0238 107.277 36.2765C106.024 37.5292 105.32 39.2283 105.32 41C105.32 42.7716 106.024 44.4707 107.277 45.7235C108.529 46.9762 110.228 47.68 112 47.68C113.772 47.68 115.471 46.9762 116.723 45.7235C117.976 44.4707 118.68 42.7716 118.68 41Z" fill="#E73223"/>
<path d="M154.81 41.39L158.65 28.19C158.883 27.3967 159.413 27 160.24 27L165.92 27.01C166.068 27.0111 166.214 27.0476 166.345 27.1164C166.476 27.1853 166.589 27.2845 166.674 27.4058C166.76 27.5271 166.815 27.6671 166.835 27.8139C166.855 27.9607 166.839 28.1103 166.79 28.25L157.54 54.35C157.387 54.7833 157.083 55 156.63 55L153.15 55.01C152.703 55.01 152.407 54.8033 152.26 54.39L147.39 40.74C147.09 39.9 146.807 39.9033 146.54 40.75C145.293 44.65 143.857 48.73 142.23 52.99C141.89 53.8767 141.48 54.42 141 54.62C138.527 55.6667 136.88 55.0567 136.06 52.79C133.06 44.4833 129.997 36.0033 126.87 27.35C126.857 27.3135 126.853 27.2744 126.859 27.2361C126.864 27.1978 126.879 27.1613 126.901 27.1299C126.924 27.0985 126.954 27.0729 126.988 27.0556C127.023 27.0382 127.061 27.0294 127.1 27.03L134.72 26.99C134.9 26.99 135.017 27.0767 135.07 27.25L139.09 40.74C139.483 42.0533 139.88 42.0567 140.28 40.75L144.28 27.74C144.347 27.5301 144.478 27.3467 144.654 27.2157C144.83 27.0847 145.042 27.0127 145.26 27.01L148.92 27C149.24 26.9933 149.45 27.1433 149.55 27.45L153.92 41.4C154.227 42.38 154.523 42.3767 154.81 41.39Z" fill="#E73223"/>
<path d="M171.02 27.58C171.02 27.4156 171.085 27.2579 171.202 27.1416C171.318 27.0253 171.476 26.96 171.64 26.96L183.61 26.98C187.156 26.9853 190.555 28.3938 193.058 30.8955C195.562 33.3973 196.965 36.7874 196.96 40.32V41.72C196.957 43.4692 196.609 45.2008 195.935 46.8159C195.26 48.4309 194.273 49.8978 193.03 51.1329C191.787 52.3679 190.311 53.3468 188.688 54.0138C187.065 54.6807 185.326 55.0227 183.57 55.02L171.6 55C171.519 55 171.438 54.984 171.363 54.9528C171.287 54.9217 171.219 54.876 171.162 54.8184C171.104 54.7609 171.058 54.6925 171.027 54.6173C170.996 54.5421 170.98 54.4614 170.98 54.38L171.02 27.58ZM179.03 34.51L178.97 47.43C178.969 47.5049 178.982 47.5793 179.01 47.6489C179.037 47.7186 179.078 47.7822 179.13 47.836C179.182 47.8899 179.244 47.933 179.313 47.9628C179.381 47.9927 179.455 48.0087 179.53 48.01L182.78 48.02C184.345 48.0304 185.849 47.3893 186.963 46.2379C188.077 45.0864 188.709 43.5189 188.72 41.88V40.18C188.725 39.3684 188.578 38.5636 188.287 37.8117C187.995 37.0598 187.565 36.3756 187.021 35.798C186.476 35.2204 185.829 34.7608 185.115 34.4454C184.401 34.13 183.635 33.9651 182.86 33.96L179.61 33.95C179.535 33.9487 179.461 33.9621 179.391 33.9896C179.321 34.017 179.258 34.0579 179.204 34.1099C179.15 34.1619 179.107 34.224 179.077 34.2926C179.047 34.3613 179.031 34.4352 179.03 34.51Z" fill="#E73223"/>
<path d="M210.59 36.66C215.72 38.87 222.29 38.77 222.9 46.07C223.79 56.73 205.42 57 199.64 50.77C199.093 50.1766 199.073 49.5666 199.58 48.94L202.4 45.43C202.504 45.3018 202.633 45.1965 202.779 45.1208C202.926 45.0451 203.086 45.0007 203.251 44.9904C203.415 44.98 203.58 45.004 203.735 45.0607C203.89 45.1175 204.031 45.2057 204.15 45.32C206.297 47.36 209 48.25 212.26 47.99C214.2 47.8366 214.607 46.9866 213.48 45.44C213.293 45.182 213.019 45.0008 212.71 44.93C207.43 43.8 198.12 40.84 200.57 33.28C203.1 25.51 217.45 25.33 222.14 30.94C222.4 31.2466 222.407 31.56 222.16 31.88L218.86 36.1C218.815 36.1556 218.76 36.2017 218.697 36.2354C218.635 36.2692 218.566 36.29 218.495 36.2965C218.424 36.303 218.352 36.2952 218.285 36.2735C218.217 36.2517 218.154 36.2165 218.1 36.17C216.153 34.4966 213.903 33.59 211.35 33.45C210.956 33.4297 210.568 33.5482 210.252 33.7849C209.936 34.0216 209.713 34.3613 209.622 34.7443C209.531 35.1274 209.579 35.5293 209.756 35.8796C209.933 36.2299 210.228 36.5062 210.59 36.66Z" fill="#E73223"/>
<path d="M233.26 34H225.49C225.36 34 225.235 33.9484 225.144 33.8565C225.052 33.7646 225 33.64 225 33.51V27.49C225 27.36 225.052 27.2354 225.144 27.1435C225.235 27.0516 225.36 27 225.49 27H250.51C250.574 27 250.638 27.0127 250.698 27.0373C250.757 27.0619 250.811 27.098 250.856 27.1435C250.902 27.189 250.938 27.243 250.963 27.3025C250.987 27.3619 251 27.4257 251 27.49L250.99 33.52C250.99 33.5843 250.977 33.6481 250.953 33.7075C250.928 33.767 250.892 33.821 250.846 33.8665C250.801 33.912 250.747 33.9481 250.688 33.9727C250.628 33.9973 250.564 34.01 250.5 34.01L242.74 33.99C242.61 33.99 242.485 34.0416 242.394 34.1335C242.302 34.2254 242.25 34.35 242.25 34.48V54.51C242.25 54.5743 242.237 54.6381 242.213 54.6975C242.188 54.757 242.152 54.811 242.106 54.8565C242.061 54.902 242.007 54.9381 241.948 54.9627C241.888 54.9873 241.824 55 241.76 55H234.24C234.176 55 234.112 54.9873 234.052 54.9627C233.993 54.9381 233.939 54.902 233.894 54.8565C233.848 54.811 233.812 54.757 233.787 54.6975C233.763 54.6381 233.75 54.5743 233.75 54.51V34.49C233.75 34.4257 233.737 34.3619 233.713 34.3025C233.688 34.243 233.652 34.189 233.606 34.1435C233.561 34.098 233.507 34.0619 233.448 34.0373C233.388 34.0127 233.324 34 233.26 34Z" fill="#E73223"/>
<path d="M271.76 43.58C271.701 43.6072 271.647 43.6459 271.604 43.6938C271.56 43.7416 271.526 43.7977 271.504 43.8585C271.483 43.9193 271.474 43.9837 271.478 44.0475C271.483 44.1114 271.5 44.1735 271.53 44.23L277.08 54.62C277.099 54.6581 277.108 54.7004 277.107 54.7429C277.106 54.7854 277.094 54.8266 277.073 54.8627C277.052 54.8988 277.022 54.9285 276.987 54.949C276.951 54.9695 276.911 54.9802 276.87 54.98L268.8 55.01C268.647 55.01 268.53 54.9434 268.45 54.81C266.837 52.0234 265.267 49.0934 263.74 46.02C263.313 45.1734 262.633 44.9367 261.7 45.31C261.4 45.43 261.25 45.65 261.25 45.97V54.75C261.25 54.91 261.167 54.99 261 54.99L253.25 55C253.184 55 253.12 54.9737 253.073 54.9268C253.026 54.8799 253 54.8163 253 54.75L253.01 27.75C253.009 27.5976 253.066 27.4507 253.168 27.3393C253.27 27.2279 253.41 27.1602 253.56 27.15C258.78 26.73 268.83 26.16 273 29.28C277.72 32.81 277.68 40.98 271.76 43.58ZM261.27 34.38L261.23 39.14C261.23 39.2408 261.27 39.3375 261.341 39.4087C261.413 39.48 261.509 39.52 261.61 39.52L265.2 39.56C265.53 39.5629 265.857 39.5054 266.162 39.3908C266.468 39.2762 266.746 39.1068 266.981 38.8923C267.216 38.6778 267.403 38.4223 267.532 38.1405C267.66 37.8587 267.728 37.5561 267.73 37.25V36.39C267.735 35.7723 267.475 35.1778 267.008 34.7371C266.541 34.2965 265.905 34.0457 265.24 34.04L261.65 34.01C261.551 34.01 261.456 34.0487 261.385 34.1178C261.314 34.1869 261.273 34.281 261.27 34.38Z" fill="#E73223"/>
<path d="M288.44 27H281.56C281.256 27 281.01 27.2462 281.01 27.55V54.45C281.01 54.7538 281.256 55 281.56 55H288.44C288.744 55 288.99 54.7538 288.99 54.45V27.55C288.99 27.2462 288.744 27 288.44 27Z" fill="#E73223"/>
<path d="M301.72 36.2C303.37 35.1 303.98 33.29 305.13 32C306.217 30.78 307.407 29.2 308.7 27.26C308.749 27.186 308.816 27.1254 308.895 27.0835C308.973 27.0417 309.061 27.0198 309.15 27.02L318.2 27.01C318.252 27.0105 318.303 27.0254 318.347 27.0531C318.391 27.0809 318.426 27.1203 318.449 27.167C318.472 27.2137 318.481 27.2659 318.476 27.3176C318.471 27.3694 318.452 27.4187 318.42 27.46L309.2 39.08C309.082 39.2295 309.015 39.4127 309.01 39.602C309.004 39.7913 309.061 39.9766 309.17 40.13L318.8 53.98C318.867 54.0772 318.907 54.191 318.914 54.309C318.922 54.427 318.897 54.5448 318.842 54.6497C318.788 54.7546 318.706 54.8427 318.605 54.9044C318.504 54.9662 318.388 54.9992 318.27 55H310.95C310.177 55 309.58 54.68 309.16 54.04L303.17 44.94C302.99 44.6667 302.787 44.6467 302.56 44.88C300.49 46.98 301.24 52.05 301.27 54.71C301.271 54.7476 301.265 54.7851 301.252 54.8202C301.238 54.8554 301.218 54.8874 301.192 54.9145C301.165 54.9416 301.134 54.9631 301.1 54.9778C301.065 54.9925 301.028 55 300.99 55H293.25C293.184 55 293.12 54.9737 293.073 54.9268C293.026 54.8799 293 54.8163 293 54.75L293.01 27.75C293.01 27.25 293.257 27 293.75 27H300.5C301 27 301.25 27.25 301.25 27.75V35.95C301.25 36.33 301.407 36.4133 301.72 36.2Z" fill="#E73223"/>
<path d="M331.64 47.96L342.31 48.02C342.486 48.02 342.655 48.0892 342.78 48.2127C342.906 48.3362 342.977 48.504 342.98 48.68L343.02 54.32C343.021 54.4088 343.005 54.497 342.972 54.5795C342.939 54.6619 342.89 54.737 342.827 54.8002C342.765 54.8635 342.691 54.9138 342.609 54.9481C342.527 54.9824 342.439 55 342.35 55H323.67C323.492 55 323.322 54.9294 323.196 54.8038C323.071 54.6781 323 54.5077 323 54.33L323.01 27.67C323.01 27.4923 323.081 27.3219 323.206 27.1962C323.332 27.0706 323.502 27 323.68 27H342.08C342.168 27 342.255 27.0173 342.336 27.051C342.418 27.0847 342.492 27.134 342.554 27.1962C342.616 27.2585 342.665 27.3323 342.699 27.4136C342.733 27.4949 342.75 27.582 342.75 27.67L342.74 33.3C342.74 33.4777 342.669 33.6481 342.544 33.7738C342.418 33.8994 342.248 33.97 342.07 33.97L331.63 34.01C331.541 34.01 331.453 34.0276 331.371 34.0619C331.289 34.0962 331.215 34.1465 331.153 34.2098C331.09 34.273 331.041 34.3481 331.008 34.4305C330.975 34.513 330.959 34.6012 330.96 34.69L331.01 37.08C331.013 37.256 331.084 37.4238 331.21 37.5473C331.335 37.6708 331.504 37.74 331.68 37.74L339.3 37.76C339.476 37.76 339.645 37.8292 339.77 37.9527C339.896 38.0762 339.967 38.244 339.97 38.42L340.01 43.57C340.011 43.6588 339.995 43.747 339.962 43.8295C339.929 43.9119 339.88 43.987 339.817 44.0502C339.755 44.1135 339.681 44.1638 339.599 44.1981C339.517 44.2324 339.429 44.25 339.34 44.25H331.67C331.494 44.25 331.325 44.3192 331.2 44.4427C331.074 44.5662 331.003 44.734 331 44.91L330.97 47.28C330.969 47.3688 330.985 47.457 331.018 47.5395C331.051 47.6219 331.1 47.697 331.163 47.7602C331.225 47.8235 331.299 47.8738 331.381 47.9081C331.463 47.9424 331.551 47.96 331.64 47.96Z" fill="#E73223"/>
<path d="M69.82 78.86L70.46 79.36C70.8133 79.6334 70.78 79.8434 70.36 79.99C70.14 80.0767 69.9267 80.0067 69.72 79.78C62.71 72.31 53.11 68.51 44.21 64.1C36.21 60.13 28.74 54.73 22.31 47.35C20.94 45.77 20.26 43.95 19.33 42.17C18.6767 40.9234 18.84 40.8067 19.82 41.82C29.48 51.77 41.6 58.4 53.79 64.97C59.19 67.8767 63.9633 71.58 68.11 76.08C68.89 76.92 69.02 77.77 69.68 78.71C69.7199 78.7632 69.7668 78.8135 69.82 78.86Z" fill="#E73223"/>
</svg>
