<?xml version="1.0" encoding="UTF-8"?>
<svg width="53px" height="53px" viewBox="0 0 53 53" version="1.1" xmlns="http://www.w3.org/2000/svg" xmlns:xlink="http://www.w3.org/1999/xlink">
    <!-- Generator: Sketch 54.1 (76490) - https://sketchapp.com -->
    <title>Screenshot 2023-10-26 at 2.20.14 PM</title>
    <desc>Created with Sketch.</desc>
    <g id="logos" stroke="none" stroke-width="1" fill="none" fill-rule="evenodd">
        <g id="Screenshot-2023-10-26-at-2.20.14-PM" fill="#DC8774" fill-rule="nonzero">
            <path d="M52.74,26.35 C52.74,33.3358023 49.9649008,40.0354844 45.0251926,44.9751926 C40.0854844,49.9149008 33.3858023,52.69 26.4,52.69 C11.8528197,52.69 0.06,40.8971803 0.06,26.35 C0.06,11.8028197 11.8528197,0.01 26.4,0.01 C33.3858023,0.01 40.0854844,2.78509918 45.0251926,7.72480738 C49.9649008,12.6645156 52.74,19.3641977 52.74,26.35 Z M10.4,32.31 C14.27,42.33 26.17,46.73 35.43,41.29 C37.36,40.17 38.83,38.2 37.35,36.11 C37.1502037,35.8326175 36.8513849,35.6369623 36.51,35.56 C29.46,33.98 24.07,32.68 22.74,24.63 C22.29,21.87 22.24,18.66 20.83,16.65 C19.09,14.18 16.09,13.55 13.39,15.04 C7.64,18.22 8.36,27.03 10.4,32.31 Z" id="Shape"></path>
        </g>
    </g>
</svg>