<?xml version="1.0" encoding="UTF-8"?>
<svg width="142px" height="46px" viewBox="0 0 142 46" version="1.1" xmlns="http://www.w3.org/2000/svg" xmlns:xlink="http://www.w3.org/1999/xlink">
    <!-- Generator: Sketch 54.1 (76490) - https://sketchapp.com -->
    <title>Screenshot 2023-10-19 at 2.15.25 PM</title>
    <desc>Created with Sketch.</desc>
    <g id="logos" stroke="none" stroke-width="1" fill="none" fill-rule="evenodd">
        <g id="Screenshot-2023-10-19-at-2.15.25-PM" fill="#FFFFFF" fill-rule="nonzero">
            <path d="M9.48,25.78 L9.47,35.52 C9.47,35.84 9.31,36 8.99,36 L0.75,36 C0.41,36 0.24,35.8333333 0.24,35.5 L0.25,1 C0.25,0.653333333 0.423333333,0.476666667 0.77,0.47 C4.95666667,0.363333333 9.94,0.383333333 15.72,0.53 C24.05,0.74 28.76,6.36 28.09,14.44 C27.23,24.68 18.28,25.25 10,25.25 C9.65333333,25.25 9.48,25.4266667 9.48,25.78 Z M9.43,8.3 L9.51,17.64 C9.51,17.8112083 9.64879173,17.95 9.82,17.95 L12.79,17.92 C14.3178758,17.9070516 15.778957,17.3929669 16.8517118,16.4908776 C17.9244667,15.5887883 18.520987,14.3726171 18.51,13.11 L18.51,12.67 C18.4873517,10.0414793 15.8907331,7.93284586 12.71,7.96 L9.74,7.99 C9.56879173,7.99 9.43,8.12879173 9.43,8.3 Z" id="Shape"></path>
            <rect id="Rectangle" x="61.24" y="0.44" width="9.06" height="35.56" rx="0.48"></rect>
            <rect id="Rectangle" x="74.5" y="0.44" width="9.16" height="35.56" rx="0.58"></rect>
            <path d="M48.22,32.87 C42.56,39.29 32.23,36.79 31.34,27.73 C31.08,25.0766667 31.0833333,19.0766667 31.35,9.73 C31.3633333,9.33 31.57,9.13 31.97,9.13 L39.72,9.11 C40.1,9.11 40.29,9.30333333 40.29,9.69 C40.29,14.7233333 40.32,19.7433333 40.38,24.75 C40.44,30.4 48.49,30.07 48.09,22.99 C47.9766667,21.0566667 48.0066667,16.6266667 48.18,9.7 C48.1866667,9.31333333 48.3833333,9.12 48.77,9.12 L56.66,9.11 C57.02,9.11 57.2,9.29333333 57.2,9.66 L57.2,35.52 C57.2,35.84 57.0433333,36 56.73,36 L48.98,36 C48.6333333,36 48.4666667,35.8266667 48.48,35.48 L48.56,33.01 C48.5733333,32.65 48.46,32.6033333 48.22,32.87 Z" id="Path"></path>
            <path d="M112.25,17.1 C111.216667,17.16 110.72,17.45 110.76,17.97 C110.78,18.2366667 110.693333,18.46 110.5,18.64 C109.893333,19.2133333 109.47,19.89 109.23,20.67 C109.123333,21.0166667 108.893333,21.14 108.54,21.04 L103.13,19.53 C104.416667,19.3833333 104.603333,18.66 103.69,17.36 C101.54,14.27 97.47,15.84 96.05,18.71 C95.9109636,18.9833577 95.9972269,19.3154716 96.25,19.48 C96.3833333,19.5666667 96.5366667,19.59 96.71,19.55 L95.1,19.83 C94.7733333,19.8833333 94.4533333,19.8633333 94.14,19.77 C92.2266667,19.1766667 91.2066667,19.84 91.08,21.76 C90.96,23.5466667 91.78,24.2766667 93.54,23.95 C95.0533333,23.6633333 95.8166667,23.99 95.83,24.93 C96.48,29.47 101.6,31.87 104.43,27.62 C104.616544,27.3332043 104.937944,27.163051 105.28,27.17 L112.49,27.28 C112.876667,27.2866667 113.043333,27.4833333 112.99,27.87 C111.89,35.67 102.84,37.65 96.25,36.01 C91.0166667,34.7033333 87.99,31.36 87.17,25.98 C85.43,14.67 92.68,6.38 104.53,9.46 C108.303333,10.4466667 110.876667,12.9933333 112.25,17.1 Z" id="Path"></path>
            <path d="M127.47,26.19 C127.501111,26.2966667 127.598889,26.37 127.71,26.37 C127.821111,26.37 127.918889,26.2966667 127.95,26.19 L132.28,9.71 C132.38,9.31666667 132.633333,9.12 133.04,9.12 L141.48,9.12 C141.632863,9.12062647 141.775872,9.19555487 141.8634,9.32087939 C141.950928,9.44620392 141.97204,9.60626672 141.92,9.75 C139.053333,18.1166667 136.186667,26.47 133.32,34.81 C131.926667,38.8566667 130.466667,41.6133333 128.94,43.08 C125.706667,46.18 121.466667,46.8433333 116.22,45.07 C115.826667,44.9366667 115.69,44.67 115.81,44.27 L117.53,38.58 C117.585365,38.399941 117.7184,38.2541051 117.89263,38.1824774 C118.066859,38.1108496 118.264,38.1209466 118.43,38.21 C120.256667,39.1966667 121.66,38.8233333 122.64,37.09 C122.793333,36.81 122.82,36.52 122.72,36.22 L113.83,10.2 C113.74603,9.95225028 113.786879,9.67919923 113.939676,9.46686999 C114.092474,9.25454075 114.338409,9.129075 114.6,9.13 L122.48,9.11 C122.913333,9.11 123.18,9.31666667 123.28,9.73 L127.47,26.19 Z" id="Path"></path>
            <path d="M112.25,17.1 C113.003333,19.4133333 113.26,21.85 113.02,24.41 C112.986667,24.75 112.796667,24.92 112.45,24.92 L95.83,24.93 C95.8166667,23.99 95.0533333,23.6633333 93.54,23.95 C91.78,24.2766667 90.96,23.5466667 91.08,21.76 C91.2066667,19.84 92.2266667,19.1766667 94.14,19.77 C94.4533333,19.8633333 94.7733333,19.8833333 95.1,19.83 L96.71,19.55 L103.13,19.53 L108.54,21.04 C108.893333,21.14 109.123333,21.0166667 109.23,20.67 C109.47,19.89 109.893333,19.2133333 110.5,18.64 C110.693333,18.46 110.78,18.2366667 110.76,17.97 C110.72,17.45 111.216667,17.16 112.25,17.1 Z" id="Path"></path>
        </g>
    </g>
</svg>