<?xml version="1.0" encoding="UTF-8"?>
<svg width="18px" height="24px" viewBox="0 0 18 24" version="1.1" xmlns="http://www.w3.org/2000/svg" xmlns:xlink="http://www.w3.org/1999/xlink">
    <!-- Generator: Sketch 54.1 (76490) - https://sketchapp.com -->
    <title>logo</title>
    <desc>Created with Sketch.</desc>
    <g id="logos" stroke="none" stroke-width="1" fill="none" fill-rule="evenodd">
        <g id="logo">
            <path d="M1.07292,14.5576 C0.52063,14.5576 0.06782,15.0066 0.12037,15.5564 C0.57389,20.3016 4.22268,23.9998 8.65671,23.9998 C13.0907,23.9998 16.7395,20.3016 17.1931,15.5564 C17.2456,15.0066 16.7928,14.5576 16.2405,14.5576 L1.07292,14.5576 Z" id="Path" fill="#FFC329"></path>
            <path d="M8.66723,9.01298 C8.90245,9.01295 10.4296,7.41151 11.0153,5.06997 C11.4788,3.21657 11.4041,0 8.66723,0 C6.25633,0.0202087 5.68837,2.54509 6.31989,5.06997 C6.90556,7.41151 8.44171,9.01298 8.66723,9.01298 Z" id="Path" fill="#025B4B" fill-rule="nonzero"></path>
            <path d="M7.20156,12.9139 C7.36787,12.7475 7.31534,10.5353 6.07374,8.46541 C5.09099,6.82707 2.7637,4.60544 0.82843,6.54072 C-0.862049,8.25977 0.52171,10.4467 2.75362,11.7855 C4.82347,13.0271 7.0421,13.0733 7.20156,12.9139 Z" id="Path" fill="#025B4B" fill-rule="nonzero"></path>
            <path d="M10.1213,12.9228 C10.2876,13.0891 12.4999,13.0365 14.5697,11.7949 C16.2081,10.8122 18.4297,8.48489 16.4944,6.54962 C14.7754,4.85914 12.5884,6.2429 11.2496,8.47481 C10.008,10.5447 9.9618,12.7633 10.1213,12.9228 Z" id="Path" fill="#025B4B" fill-rule="nonzero"></path>
        </g>
    </g>
</svg>