<?xml version="1.0" encoding="UTF-8"?>
<svg width="66px" height="63px" viewBox="0 0 66 63" version="1.1" xmlns="http://www.w3.org/2000/svg" xmlns:xlink="http://www.w3.org/1999/xlink">
    <!-- Generator: Sketch 54.1 (76490) - https://sketchapp.com -->
    <title>Screenshot 2023-10-21 at 2.45.08 PM</title>
    <desc>Created with Sketch.</desc>
    <g id="logos" stroke="none" stroke-width="1" fill="none" fill-rule="evenodd">
        <g id="Screenshot-2023-10-21-at-2.45.08-PM" fill-rule="nonzero">
            <path d="M63.9,24.29 C59.44,25.2766667 55.7466667,26.8733333 52.82,29.08 C46.46,33.8733333 40.1466667,38.65 33.88,43.41 C33.3541016,43.810057 32.6258984,43.810057 32.1,43.41 C25.4866667,38.3233333 18.68,33.2066667 11.68,28.06 C9.81333333,26.6866667 6.62,25.4366667 2.1,24.31 L10.91,1.46 C11.1356082,0.877959903 11.6369891,0.443928662 12.25,0.3 C13.65,-0.0333333333 14.5866667,0.476666667 15.06,1.83 C17.0733333,7.64333333 19.0433333,13.4766667 20.97,19.33 C21.0566667,19.61 21.2466667,19.75 21.54,19.75 L44.47,19.75 C44.7766667,19.75 44.9766667,19.6033333 45.07,19.31 C46.93,13.6366667 48.7633333,7.97666667 50.57,2.33 C51.0766667,0.736666667 52.0866667,0.0433333333 53.6,0.25 C54.2729809,0.342577288 54.8404431,0.791179188 55.08,1.42 L63.9,24.29 Z" id="Path" fill="#D14F36"></path>
            <path d="M2.1,24.31 C6.62,25.4366667 9.81333333,26.6866667 11.68,28.06 C18.68,33.2066667 25.4866667,38.3233333 32.1,43.41 C32.6258984,43.810057 33.3541016,43.810057 33.88,43.41 C40.1466667,38.65 46.46,33.8733333 52.82,29.08 C55.7466667,26.8733333 59.44,25.2766667 63.9,24.29 C66.6066667,32.1766667 64.82,38.5966667 58.54,43.55 C56.5933333,45.0833333 52.0766667,48.46 44.99,53.68 L34.62,45.63 C33.6889191,44.9102285 32.3865335,44.9061329 31.44,45.62 L20.92,53.58 C16.48,50.3666667 12.1,47.07 7.78,43.69 C1.29333333,38.6233333 -0.6,32.1633333 2.1,24.31 Z" id="Path" fill="#EB753C"></path>
            <path d="M44.99,53.68 L34.51,61.59 C33.6107567,62.2700332 32.3692433,62.2700332 31.47,61.59 L20.92,53.58 L31.44,45.62 C32.3865335,44.9061329 33.6889191,44.9102285 34.62,45.63 L44.99,53.68 Z" id="Path" fill="#EFA746"></path>
        </g>
    </g>
</svg>