<?xml version="1.0" encoding="UTF-8"?>
<svg width="58px" height="32px" viewBox="0 0 58 32" version="1.1" xmlns="http://www.w3.org/2000/svg" xmlns:xlink="http://www.w3.org/1999/xlink">
    <!-- Generator: Sketch 54.1 (76490) - https://sketchapp.com -->
    <title>Screenshot 2023-10-25 at 11.10.40 AM</title>
    <desc>Created with Sketch.</desc>
    <g id="logos" stroke="none" stroke-width="1" fill="none" fill-rule="evenodd">
        <g id="Screenshot-2023-10-25-at-11.10.40-AM" transform="translate(-2.000000, 0.000000)" fill="#FFFFFF" fill-rule="nonzero">
            <rect id="Rectangle" x="27.25" y="0.05" width="7.26" height="15.18" rx="3.45"></rect>
            <rect id="Rectangle" transform="translate(8.780000, 15.400000) rotate(-44.900000) translate(-8.780000, -15.400000) " x="5.07" y="7.82" width="7.42" height="15.16" rx="3.57"></rect>
            <rect id="Rectangle" transform="translate(53.070000, 15.420000) rotate(44.600000) translate(-53.070000, -15.420000) " x="49.43" y="7.83" width="7.28" height="15.18" rx="3.51"></rect>
            <path d="M39.3,22.42 C43.7333333,23.86 47.2466667,26.87 49.84,31.45 C50.0466667,31.8166667 49.9366667,32 49.51,32 L12.24,31.99 C12.077092,31.9873675 11.9278852,31.8964725 11.8523918,31.7538738 C11.7768983,31.6112751 11.7875259,31.4404093 11.88,31.31 C18.5733333,21.6166667 27.7133333,18.6533333 39.3,22.42 Z" id="Path"></path>
        </g>
    </g>
</svg>