<svg id="Layer_1" data-name="Layer 1" xmlns="http://www.w3.org/2000/svg" width="400" height="400" viewBox="0 0 400 400"><defs><style>.cls-1{fill:#07304f;}.cls-2{fill:#677f92;}.cls-3{fill:#99aab7;}.cls-4{fill:none;}</style></defs><title>3Artboard 1</title><path class="cls-1" d="M234.62,273.09c-.12,11.95,5.72,22.47,8.14,33.81.71,3.31,1.93,6.51,2.88,9.77,3,10.38.31,14.16-10.36,14.17q-47.45.06-94.91,0c-8,0-16.06,0-24.09,0-11.56,0-16.31-3.5-19.55-14.49Q64.26,206.42,31.86,96.47c-1.65-5.58-3.55-11.12-4.75-16.8C25.7,73,28.65,69.26,35.52,69.24q62.78-.16,125.57,0c8,0,12.75,4.33,15.37,13.06,5.43,18.13,10.73,36.3,16.13,54.44.66,2.23.65,4.83,2.94,6.32a18.4,18.4,0,0,0,.22,4.31q17.81,60.85,35.8,121.65C232,270.57,231.52,273.34,234.62,273.09ZM183,154.75c-5-21.28-12.19-41.9-18-62.94-1.22-4.45-4.47-3-7-3-35.76-.09-71.52.06-107.27-.18-6,0-6.62,1.35-5,6.92Q74,190,101.58,284.66c1.45,5,3.43,6.32,8.41,6.28,33.81-.23,67.62-.12,101.44-.12,12.57,0,12.57,0,8.76-11.79-4.85-16.56-9.62-33.14-14.58-49.67C198.14,204.47,190.54,179.62,183,154.75Z"/><path class="cls-2" d="M234.62,273.09c-3.1.25-2.62-2.52-3.08-4.06q-18-60.79-35.8-121.65a18.4,18.4,0,0,1-.22-4.31c15.16-16.69,33.34-29.48,52.54-41a50,50,0,0,1,27.58-7.19c32.77.48,65.54.18,98.27.18.43,2.15-1,2.31-2,2.88-66.54,39.31-111.22,96-134.77,169.49C236.55,269.33,237.13,271.95,234.62,273.09Z"/><path class="cls-3" d="M220.19,279q-46.29-.22-92.58-.43c-15-.06-15.2-.06-11.16-14.66,10.05-36.3,29.66-67.34,53.47-96,3.94-4.74,6.87-10.67,13.07-13.23,7.55,24.87,15.15,49.73,22.62,74.62C210.57,245.9,215.34,262.48,220.19,279Z"/><rect class="cls-4" x="106" y="106" width="189" height="189"/></svg>