<?xml version="1.0" encoding="UTF-8"?>
<svg width="92px" height="112px" viewBox="0 0 92 112" version="1.1" xmlns="http://www.w3.org/2000/svg" xmlns:xlink="http://www.w3.org/1999/xlink">
    <!-- Generator: Sketch 54.1 (76490) - https://sketchapp.com -->
    <title>Screenshot 2023-10-02 at 10.24.39 AM</title>
    <desc>Created with Sketch.</desc>
    <g id="Page-1" stroke="none" stroke-width="1" fill="none" fill-rule="evenodd">
        <g id="Screenshot-2023-10-02-at-10.24.39-AM" fill-rule="nonzero">
            <path d="M54.32,5.28 C52.6466667,6.90666667 51.85,8.48 51.93,10 L46.21,6.46 C45.95,6.3 45.69,6.3 45.43,6.46 L5.54,30.77 C5.28445643,30.9312816 5.12962886,31.2107265 5.13,31.51 L5.26,81.08 C3.64666667,82.2733333 2.57,83.6566667 2.03,85.23 L0.43,84.28 C0.163941008,84.1262392 5.14106842e-05,83.8403852 7.10542736e-15,83.53 L0,28.51 C0.000636684593,28.1814994 0.17127739,27.8781382 0.45,27.71 L45.27,0.29 C45.53,0.13 45.79,0.13 46.05,0.29 L54.32,5.28 Z" id="Path" fill="#5FB8BD"></path>
            <path d="M54.32,5.28 L69.19,14.36 C67.75,15.2666667 66.67,16.6666667 65.95,18.56 L51.93,10 C51.85,8.48 52.6466667,6.90666667 54.32,5.28 Z" id="Path" fill="#59B898"></path>
            <path d="M27.44,41.8 L41.02,50.15 L57.51,60.22 L80.83,74.39 C80.9665332,74.4737318 81.1377811,74.47666 81.2770971,74.3976449 C81.4164132,74.3186298 81.5017898,74.1701535 81.5,74.01 L81.5,66.04 C81.5,65.74 81.37,65.51 81.11,65.35 L62.5,53.89 L45.76,43.63 L32.01,35.2 L20.81,28.33 C20.5223826,28.1516177 20.1554592,28.1516177 19.86,28.33 L13.28,32.32 C12.8533333,32.58 12.8533333,32.84 13.28,33.1 L27.44,41.8 Z M18.95,52.08 L44.04,67.41 L70.79,83.65 C71.12217,83.8525427 71.5436947,83.8486755 71.88,83.64 L78.39,79.61 C78.73,79.3966667 78.7266667,79.1833333 78.38,78.97 L48.57,60.66 L24.12,45.76 L10.88,37.65 C10.46,37.3966667 10.25,37.5166667 10.25,38.01 L10.25,46.24 C10.2500206,46.563445 10.4166769,46.8626688 10.69,47.03 L18.95,52.08 Z M32.19,75.68 L58.01,91.48 C58.33,91.68 58.6566667,91.6833333 58.99,91.49 L65.58,87.65 C66,87.4033333 66.0033333,87.1566667 65.59,86.91 L37.67,69.82 L10.87,53.42 C10.4566667,53.1666667 10.25,53.2833333 10.25,53.77 L10.25,61.71 C10.25,62.0766667 10.4066667,62.3566667 10.72,62.55 L32.19,75.68 Z M31.06,90.6 L45.27,99.26 C45.59,99.4533333 45.9133333,99.4533333 46.24,99.26 L52.82,95.33 C53.2066667,95.1033333 53.2066667,94.87 52.82,94.63 L36.33,84.55 L10.88,68.9 C10.46,68.6466667 10.25,68.7666667 10.25,69.26 L10.25,77.49 C10.2496881,77.8188153 10.4240641,78.1258687 10.71,78.3 L31.06,90.6 Z" id="Shape" fill="#FFFFFF"></path>
            <path d="M69.19,14.36 L91.02,27.73 C91.32,27.91 91.47,28.1766667 91.47,28.53 L91.48,66.48 C89.46,66.42 88.2266667,67.0866667 87.78,68.48 C87.6933333,68.7533333 87.51,68.9333333 87.23,69.02 C87.03,69.08 86.78,69.0666667 86.48,68.98 L86.47,31.54 C86.4699794,31.216555 86.3033231,30.9173312 86.03,30.75 L65.95,18.56 C66.67,16.6666667 67.75,15.2666667 69.19,14.36 Z" id="Path" fill="#58BB69"></path>
            <path d="M32.01,35.2 C29.3233333,37.1733333 27.8,39.3733333 27.44,41.8 L13.28,33.1 C12.8533333,32.84 12.8533333,32.58 13.28,32.32 L19.86,28.33 C20.1554592,28.1516177 20.5223826,28.1516177 20.81,28.33 L32.01,35.2 Z" id="Path" fill="#5FB8BD"></path>
            <path d="M32.01,35.2 L45.76,43.63 L41.02,50.15 L27.44,41.8 C27.8,39.3733333 29.3233333,37.1733333 32.01,35.2 Z" id="Path" fill="#59B898"></path>
            <path d="M24.12,45.76 L18.95,52.08 L10.69,47.03 C10.4166769,46.8626688 10.2500206,46.563445 10.25,46.24 L10.25,38.01 C10.25,37.5166667 10.46,37.3966667 10.88,37.65 L24.12,45.76 Z" id="Path" fill="#5FB8BD"></path>
            <path d="M45.76,43.63 L62.5,53.89 C61.2733333,54.45 60.42,55.35 59.94,56.59 C59.82,56.89 59.64,57.1466667 59.4,57.36 C58.5333333,58.1066667 57.9033333,59.06 57.51,60.22 L41.02,50.15 L45.76,43.63 Z" id="Path" fill="#58B98A"></path>
            <path d="M24.12,45.76 L48.57,60.66 C45.8966667,62.5133333 44.3866667,64.7633333 44.04,67.41 L18.95,52.08 L24.12,45.76 Z" id="Path" fill="#59B898"></path>
            <path d="M37.67,69.82 C34.9833333,70 33.1566667,71.9533333 32.19,75.68 L10.72,62.55 C10.4066667,62.3566667 10.25,62.0766667 10.25,61.71 L10.25,53.77 C10.25,53.2833333 10.4566667,53.1666667 10.87,53.42 L37.67,69.82 Z" id="Path" fill="#59B898"></path>
            <path d="M62.5,53.89 L81.11,65.35 C81.37,65.51 81.5,65.74 81.5,66.04 L81.5,74.01 C81.5017898,74.1701535 81.4164132,74.3186298 81.2770971,74.3976449 C81.1377811,74.47666 80.9665332,74.4737318 80.83,74.39 L57.51,60.22 C57.9033333,59.06 58.5333333,58.1066667 59.4,57.36 C59.64,57.1466667 59.82,56.89 59.94,56.59 C60.42,55.35 61.2733333,54.45 62.5,53.89 Z" id="Path" fill="#58BB69"></path>
            <path d="M48.57,60.66 L78.38,78.97 C78.7266667,79.1833333 78.73,79.3966667 78.39,79.61 L71.88,83.64 C71.5436947,83.8486755 71.12217,83.8525427 70.79,83.65 L44.04,67.41 C44.3866667,64.7633333 45.8966667,62.5133333 48.57,60.66 Z" id="Path" fill="#58BB69"></path>
            <path d="M91.48,66.48 L91.48,83.42 C91.48,83.76 91.3366667,84.0166667 91.05,84.19 L59.63,103.53 C56.77,100.58 60.55,99.76 59.33,97.6 L86.03,81.25 C86.33,81.07 86.48,80.8066667 86.48,80.46 L86.48,68.98 C86.78,69.0666667 87.03,69.08 87.23,69.02 C87.51,68.9333333 87.6933333,68.7533333 87.78,68.48 C88.2266667,67.0866667 89.46,66.42 91.48,66.48 Z" id="Path" fill="#78CE6F"></path>
            <path d="M36.33,84.55 L31.06,90.6 L10.71,78.3 C10.4240641,78.1258687 10.2496881,77.8188153 10.25,77.49 L10.25,69.26 C10.25,68.7666667 10.46,68.6466667 10.88,68.9 L36.33,84.55 Z" id="Path" fill="#58B98A"></path>
            <path d="M37.67,69.82 L65.59,86.91 C66.0033333,87.1566667 66,87.4033333 65.58,87.65 L58.99,91.49 C58.6566667,91.6833333 58.33,91.68 58.01,91.48 L32.19,75.68 C33.1566667,71.9533333 34.9833333,70 37.67,69.82 Z" id="Path" fill="#58BB69"></path>
            <path d="M5.26,81.08 L14.3,86.65 C12.9533333,87.61 11.8033333,88.9466667 10.85,90.66 L2.03,85.23 C2.57,83.6566667 3.64666667,82.2733333 5.26,81.08 Z" id="Path" fill="#59B898"></path>
            <path d="M36.33,84.55 L52.82,94.63 C53.2066667,94.87 53.2066667,95.1033333 52.82,95.33 L46.24,99.26 C45.9133333,99.4533333 45.59,99.4533333 45.27,99.26 L31.06,90.6 L36.33,84.55 Z" id="Path" fill="#58BB69"></path>
            <path d="M14.3,86.65 L45.24,105.68 C45.5266667,105.853333 45.81,105.853333 46.09,105.68 L59.33,97.6 C60.55,99.76 56.77,100.58 59.63,103.53 L46.19,111.78 C45.89,111.96 45.5866667,111.956667 45.28,111.77 L10.85,90.66 C11.8033333,88.9466667 12.9533333,87.61 14.3,86.65 Z" id="Path" fill="#58BB69"></path>
        </g>
    </g>
</svg>