<svg width="122" height="96" viewBox="0 0 122 96" fill="none" xmlns="http://www.w3.org/2000/svg">
<path d="M40.2 32.65C51.47 12.54 79.91 13.21 90.66 33.34C91.69 35.27 92.34 37.55 92.98 39.71C93.0192 39.8428 93.094 39.9624 93.1962 40.0558C93.2984 40.1492 93.4242 40.2129 93.56 40.24C94.74 40.48 95.8767 40.6933 96.97 40.88C116.39 44.19 118.43 71.45 100.21 77.88C97.5967 78.8 92.91 79.25 86.15 79.23C70.6833 79.1767 55.2167 79.1567 39.75 79.17C35.37 79.1767 31.5133 77.64 28.18 74.56C27.7504 74.1626 27.4892 73.6157 27.4502 73.0318C27.4111 72.4478 27.5971 71.8711 27.97 71.42L28.27 71.06C28.7259 70.5101 29.3682 70.1471 30.0745 70.0401C30.7807 69.9332 31.5017 70.0897 32.1 70.48C34.9333 72.34 37.15 73.2733 38.75 73.28C55.7367 73.3333 72.7267 73.33 89.72 73.27C94.2667 73.25 97.5433 72.75 99.55 71.77C111.74 65.8 108.15 47.57 94.54 46.4C93.14 46.28 91.82 46.2567 90.58 46.33C89.8997 46.3683 89.2303 46.1469 88.7069 45.7108C88.1834 45.2746 87.845 44.656 87.76 43.98C84.81 20.19 52.5 16.64 43.99 38.52C43.2 40.53 38.61 40.22 35.82 39.93C34.0533 39.7433 33.2333 38.7633 33.36 36.99L33.38 36.72C33.5133 34.9467 34.47 34.0767 36.25 34.11C38.18 34.14 39.15 34.52 40.2 32.65Z" fill="#444444"/>
<path d="M42.84 54.98C39.1 55.05 33.56 53.7 31.33 58.34C30.33 60.43 30.8 64.66 30.84 67.1C30.86 68.4933 30.1733 69.1933 28.78 69.2L21.09 69.21C20.8764 69.2113 20.6647 69.1704 20.467 69.0896C20.2693 69.0088 20.0895 68.8896 19.938 68.7391C19.7865 68.5885 19.6663 68.4095 19.5843 68.2123C19.5022 68.0151 19.46 67.8036 19.46 67.59L19.45 58.99C19.45 58.7703 19.4938 58.5528 19.579 58.3501C19.6641 58.1474 19.7889 57.9635 19.9461 57.8091C20.1033 57.6547 20.2898 57.5328 20.4948 57.4506C20.6997 57.3683 20.919 57.3274 21.14 57.33C25.49 57.4 32.61 58.57 33.04 51.93C33.29 48.01 33.65 43.73 30.67 41.69C28.39 40.13 23.91 40.7 21.19 40.71C20.9641 40.7113 20.7402 40.6681 20.531 40.5829C20.3218 40.4977 20.1315 40.3721 19.9708 40.2133C19.8102 40.0545 19.6824 39.8656 19.5947 39.6575C19.5071 39.4493 19.4613 39.2259 19.46 39L19.41 30.44C19.4087 30.222 19.4503 30.0059 19.5325 29.804C19.6147 29.6021 19.7359 29.4183 19.8891 29.2633C20.0423 29.1082 20.2246 28.9848 20.4255 28.9002C20.6264 28.8156 20.842 28.7713 21.06 28.77L29.19 28.76C29.6541 28.76 30.0993 28.9444 30.4274 29.2726C30.7556 29.6008 30.94 30.0459 30.94 30.51C30.94 35.54 29.41 42.88 37.09 42.98C39.01 43 40.9733 43.0033 42.98 42.99C43.1808 42.9874 43.3802 43.0245 43.5664 43.0993C43.7525 43.1742 43.9218 43.2851 44.0643 43.4257C44.2068 43.5664 44.3196 43.7338 44.3961 43.9183C44.4727 44.1027 44.5114 44.3005 44.51 44.5L44.5 53.29C44.4975 53.734 44.3224 54.1593 44.0122 54.4752C43.702 54.791 43.2813 54.9722 42.84 54.98Z" fill="#444444"/>
<path d="M59.6133 32.8262L55.2333 32.8338C54.3994 32.8353 53.7245 33.5125 53.726 34.3465L53.7341 38.9864C53.7355 39.8204 54.4127 40.4953 55.2467 40.4938L59.6267 40.4862C60.4606 40.4847 61.1355 39.8075 61.1341 38.9735L61.126 34.3335C61.1245 33.4996 60.4473 32.8247 59.6133 32.8262Z" fill="#8C8D8C"/>
<path d="M46.44 56.34C43.7 58.5 44.56 64.59 44.57 67.61C44.57 68.0237 44.4067 68.4205 44.116 68.7131C43.8253 69.0057 43.4311 69.17 43.02 69.17L34.65 69.2C34.4627 69.2013 34.277 69.1653 34.1035 69.094C33.9301 69.0228 33.7724 68.9176 33.6395 68.7847C33.5065 68.6518 33.401 68.4937 33.3291 68.3196C33.2571 68.1454 33.22 67.9586 33.22 67.77L33.24 58.77C33.2413 58.5779 33.2805 58.3879 33.3554 58.2112C33.4302 58.0345 33.5392 57.8745 33.6759 57.7405C33.8127 57.6065 33.9746 57.5012 34.1521 57.4307C34.3296 57.3603 34.5192 57.326 34.71 57.33C38.64 57.4 44.05 58.39 46.18 54.3C47.3 52.16 46.81 47.1 46.79 44.68C46.7874 44.4866 46.8234 44.2946 46.8961 44.1152C46.9688 43.9357 47.0767 43.7724 47.2134 43.6347C47.3502 43.497 47.5131 43.3877 47.6928 43.3131C47.8725 43.2384 48.0653 43.2 48.26 43.2L56.77 43.22C57.182 43.2227 57.5762 43.3871 57.8666 43.6775C58.157 43.9679 58.32 44.3607 58.32 44.77L58.33 53.26C58.3297 53.5136 58.2764 53.7643 58.1736 53.9962C58.0707 54.2282 57.9205 54.4363 57.7324 54.6074C57.5444 54.7786 57.3226 54.9089 57.0812 54.9903C56.8398 55.0716 56.584 55.1022 56.33 55.08C53.44 54.83 48.85 54.44 46.44 56.34Z" fill="#4E97B7"/>
<path d="M22.3247 45.2643L16.8847 45.2358C15.852 45.2304 15.0104 46.0633 15.005 47.096L14.9751 52.7959C14.9697 53.8287 15.8026 54.6703 16.8353 54.6757L22.2752 54.7042C23.308 54.7096 24.1496 53.8768 24.155 52.844L24.1849 47.1441C24.1903 46.1113 23.3574 45.2697 22.3247 45.2643Z" fill="#636464"/>
<path d="M69.2168 45.5939L64.7968 45.5861C63.9573 45.5847 63.2756 46.264 63.2741 47.1035L63.2659 51.8035C63.2644 52.643 63.9438 53.3247 64.7833 53.3261L69.2032 53.3339C70.0427 53.3353 70.7244 52.656 70.7259 51.8165L70.7341 47.1165C70.7356 46.277 70.0562 45.5953 69.2168 45.5939Z" fill="#8C8D8C"/>
<path d="M76.4173 50.4592L73.7973 50.4409C73.2119 50.4368 72.7341 50.9081 72.73 51.4935L72.7101 54.3334C72.7061 54.9188 73.1773 55.3967 73.7627 55.4008L76.3826 55.4191C76.9681 55.4232 77.4459 54.9519 77.45 54.3665L77.4698 51.5266C77.4739 50.9412 77.0027 50.4633 76.4173 50.4592Z" fill="#B3B4B4"/>
<path d="M64.8986 55.3269L60.0987 55.2934C59.2206 55.2872 58.5038 55.9941 58.4976 56.8722L58.4626 61.8921C58.4565 62.7702 59.1633 63.487 60.0414 63.4932L64.8413 63.5267C65.7194 63.5328 66.4363 62.8259 66.4424 61.9478L66.4774 56.9279C66.4836 56.0498 65.7767 55.333 64.8986 55.3269Z" fill="#B3B4B4"/>
</svg>
