<?xml version="1.0" encoding="UTF-8"?>
<svg width="39px" height="47px" viewBox="0 0 39 47" version="1.1" xmlns="http://www.w3.org/2000/svg" xmlns:xlink="http://www.w3.org/1999/xlink">
    <!-- Generator: Sketch 54.1 (76490) - https://sketchapp.com -->
    <title>Screenshot 2023-10-03 at 11.20.38 AM</title>
    <desc>Created with Sketch.</desc>
    <g id="logos" stroke="none" stroke-width="1" fill="none" fill-rule="evenodd">
        <g id="Screenshot-2023-10-03-at-11.20.38-AM" fill="#FFFFFF" fill-rule="nonzero">
            <path d="M18.51,36.79 C18.5479847,36.9086045 18.6552967,36.9914074 18.779657,36.9980695 C18.9040172,37.0047317 19.0195615,36.9338675 19.07,36.82 C23.85,25.2066667 29.9566667,14.34 37.39,4.22 C37.4907349,4.08797432 37.6640261,4.03421986 37.8217951,4.08605828 C37.9795642,4.13789669 38.0872021,4.2839564 38.09,4.45 L37.76,39.14 C37.7466667,40.7133333 36.9533333,41.4733333 35.38,41.42 C34.9333333,41.4 34.35,40.8866667 33.63,39.88 C32.5633333,38.3933333 31.5566667,36.85 30.61,35.25 C30.4233333,34.9366667 30.18,34.8833333 29.88,35.09 C21.1,41.1633333 11.4233333,45.0033333 0.85,46.61 C0.576666667,46.65 0.44,46.53 0.44,46.25 L0.53,0.99 C0.53,0.663333333 0.693333333,0.5 1.02,0.5 L36.78,0.5 C37.3866667,0.5 37.47,0.71 37.03,1.13 C30.0233333,7.77666667 24.3333333,15.4 19.96,24 C19.7666667,24.3866667 19.56,24.3933333 19.34,24.02 C16.8,19.67 12.77,12.89 7.63,18.81 C7.44333333,19.0233333 7.48,19.1833333 7.74,19.29 C13.41,21.58 16.98,31.4 18.51,36.79 Z" id="Path"></path>
        </g>
    </g>
</svg>