<svg width="228" height="146" viewBox="0 0 228 146" fill="none" xmlns="http://www.w3.org/2000/svg">
<path d="M62.71 55.71C70.6408 55.71 77.07 49.2808 77.07 41.35C77.07 33.4192 70.6408 26.99 62.71 26.99C54.7792 26.99 48.35 33.4192 48.35 41.35C48.35 49.2808 54.7792 55.71 62.71 55.71Z" fill="#CECECE"/>
<path d="M95.24 55.72C103.176 55.72 109.61 49.2863 109.61 41.35C109.61 33.4137 103.176 26.98 95.24 26.98C87.3037 26.98 80.87 33.4137 80.87 41.35C80.87 49.2863 87.3037 55.72 95.24 55.72Z" fill="#CECECE"/>
<path d="M129.3 55.73C137.236 55.73 143.67 49.2963 143.67 41.36C143.67 33.4237 137.236 26.99 129.3 26.99C121.364 26.99 114.93 33.4237 114.93 41.36C114.93 49.2963 121.364 55.73 129.3 55.73Z" fill="white"/>
<path d="M161.84 55.71C169.771 55.71 176.2 49.2808 176.2 41.35C176.2 33.4192 169.771 26.99 161.84 26.99C153.909 26.99 147.48 33.4192 147.48 41.35C147.48 49.2808 153.909 55.71 161.84 55.71Z" fill="white"/>
<path d="M194.37 55.72C202.301 55.72 208.73 49.2908 208.73 41.36C208.73 33.4292 202.301 27 194.37 27C186.439 27 180.01 33.4292 180.01 41.36C180.01 49.2908 186.439 55.72 194.37 55.72Z" fill="white"/>
<path d="M46.36 88.26C54.2908 88.26 60.72 81.8308 60.72 73.9C60.72 65.9692 54.2908 59.54 46.36 59.54C38.4292 59.54 32 65.9692 32 73.9C32 81.8308 38.4292 88.26 46.36 88.26Z" fill="#CECECE"/>
<path d="M129.3 88.27C137.236 88.27 143.67 81.8363 143.67 73.9C143.67 65.9637 137.236 59.53 129.3 59.53C121.364 59.53 114.93 65.9637 114.93 73.9C114.93 81.8363 121.364 88.27 129.3 88.27Z" fill="white"/>
<path d="M161.85 88.27C169.781 88.27 176.21 81.8408 176.21 73.91C176.21 65.9792 169.781 59.55 161.85 59.55C153.919 59.55 147.49 65.9792 147.49 73.91C147.49 81.8408 153.919 88.27 161.85 88.27Z" fill="white"/>
<path d="M62.71 120.81C70.6408 120.81 77.07 114.381 77.07 106.45C77.07 98.5192 70.6408 92.09 62.71 92.09C54.7792 92.09 48.35 98.5192 48.35 106.45C48.35 114.381 54.7792 120.81 62.71 120.81Z" fill="#CECECE"/>
<path d="M95.24 120.8C103.171 120.8 109.6 114.371 109.6 106.44C109.6 98.5092 103.171 92.08 95.24 92.08C87.3092 92.08 80.88 98.5092 80.88 106.44C80.88 114.371 87.3092 120.8 95.24 120.8Z" fill="#CECECE"/>
<path d="M129.3 120.81C137.231 120.81 143.66 114.381 143.66 106.45C143.66 98.5192 137.231 92.09 129.3 92.09C121.369 92.09 114.94 98.5192 114.94 106.45C114.94 114.381 121.369 120.81 129.3 120.81Z" fill="white"/>
</svg>
