<?xml version="1.0" encoding="UTF-8"?>
<svg width="24px" height="23px" viewBox="0 0 24 23" version="1.1" xmlns="http://www.w3.org/2000/svg" xmlns:xlink="http://www.w3.org/1999/xlink">
    <!-- Generator: Sketch 54.1 (76490) - https://sketchapp.com -->
    <title>logo</title>
    <desc>Created with Sketch.</desc>
    <g id="logos" stroke="none" stroke-width="1" fill="none" fill-rule="evenodd">
        <g id="logo" transform="translate(0.000000, -1.000000)" fill="#FFFFFF">
            <g id="LOGOMARK">
                <path d="M8.11,12.63 C8.52,13.1 8.96,13.58 9.45,14.08 C10.1,14.75 10.78,15.35 11.46,15.88 C11.75,15.65 12.03,15.41 12.31,15.16 C11.74,14.69 11.17,14.18 10.64,13.62 C9.99,12.95 9.41,12.29 8.89,11.63 C8.61,11.98 8.35,12.3 8.11,12.63 Z M11.71,16.09 C12.34,16.56 12.97,16.98 13.6,17.33 C13.87,17.11 14.13,16.88 14.39,16.65 C13.74,16.26 13.08,15.8 12.45,15.3 C12.21,15.56 11.97,15.83 11.71,16.09 Z M13.87,17.47 C14.6,17.86 15.32,18.16 16,18.37 C16.22,18.18 16.44,17.98 16.65,17.77 C15.96,17.49 15.24,17.14 14.53,16.72 C14.32,16.98 14.1,17.23 13.87,17.47 Z M3.68,12.66 C3.44,12.27 3.22,11.88 3.01,11.5 C1.54,14.2 1.18,16.75 1.97,18.27 C2.01,16.64 2.58,14.65 3.68,12.66 Z M5.22,14.86 C4.98,14.56 4.76,14.25 4.54,13.95 C3.56,16.08 3.29,18.06 3.77,19.42 L3.92,19.42 C4.01,18.06 4.44,16.48 5.22,14.86 Z M8.15,18.03 C7.81,17.73 7.48,17.4 7.15,17.07 C6.82,16.73 6.5,16.38 6.2,16.04 C5.76,17.15 5.52,18.2 5.49,19.13 C6.3,18.89 7.22,18.52 8.15,18.03 Z M10.14,19.59 C9.65,19.26 9.16,18.89 8.67,18.49 C7.62,19.14 6.54,19.67 5.52,20.02 C5.56,20.37 5.64,20.7 5.76,20.99 C6.87,20.98 8.48,20.45 10.14,19.59 Z M12.38,20.87 C11.84,20.62 11.3,20.32 10.76,19.99 C9.28,20.93 7.71,21.61 6.35,21.91 C6.43,22 6.52,22.08 6.62,22.15 C7.51,22.83 9.91,22.2 12.38,20.87 Z M19.16,18.65 L19.17,18.5 C18.41,18.38 17.59,18.15 16.74,17.81 C16.58,18.02 16.41,18.23 16.23,18.44 C17.33,18.75 18.33,18.83 19.16,18.65 Z M14.43,20.17 C15.73,20.54 16.89,20.57 17.79,20.25 C16.97,20.15 16.07,19.91 15.15,19.55 C14.91,19.76 14.68,19.97 14.43,20.17 Z M11.97,19.15 C12.61,19.5 13.24,19.78 13.85,19.99 C14.15,19.8 14.44,19.59 14.73,19.38 C14.11,19.12 13.48,18.8 12.85,18.43 C12.57,18.68 12.27,18.92 11.97,19.15 Z M9.79,17.73 C10.34,18.15 10.89,18.52 11.44,18.85 C11.78,18.64 12.12,18.42 12.45,18.19 C11.88,17.83 11.3,17.43 10.74,16.98 C10.44,17.24 10.12,17.49 9.79,17.73 Z M6.74,14.86 C7.02,15.17 7.32,15.49 7.64,15.82 C8.19,16.39 8.76,16.91 9.33,17.37 C9.69,17.15 10.04,16.92 10.39,16.68 C9.9,16.27 9.42,15.82 8.96,15.34 C8.41,14.77 7.9,14.2 7.44,13.63 C7.18,14.05 6.95,14.45 6.74,14.86 Z M1.91,4.44 C1.95,4.39 1.39,6.11 2.87,9.28 C3.2,8.81 3.57,8.35 3.97,7.9 C3,5.39 3.06,3.47 3.72,2.71 C3.76,2.66 3.23,4.28 4.55,7.26 C4.91,6.88 5.27,6.51 5.63,6.17 C4.68,3.67 4.73,1.76 5.39,1 C5.43,0.96 4.9,2.59 6.24,5.61 C10.86,1.47 15.17,0.54 16.56,1.44 C16.64,1.49 12.75,0.7 6.78,6.69 C6.98,7.07 7.21,7.46 7.48,7.87 C12.38,3.14 17.09,2.05 18.54,3 C18.62,3.05 14.47,2.21 8.15,8.87 C8.37,9.18 8.61,9.5 8.87,9.83 C13.96,4.65 18.96,3.45 20.47,4.43 C20.55,4.48 16.21,3.6 9.65,10.77 C10.1,11.29 10.58,11.83 11.12,12.38 C13.73,15.07 16.7,16.65 19.02,16.97 C18.54,14.6 16.92,11.3 14.82,9.06 C17.31,11 19.24,14.3 19.94,17.04 C20.31,17.04 20.65,16.99 20.97,16.91 C21.18,14.71 19.3,10.17 16.64,7.33 C19.48,9.55 21.61,13.54 21.98,16.44 C22.08,16.37 22.17,16.29 22.25,16.21 C23.58,14.9 21.51,9.04 18.31,5.62 C22.35,8.78 24.94,15.5 23.11,17.61 C22.81,17.96 22.4,18.21 21.91,18.38 C21.81,18.75 21.66,19.07 21.44,19.32 C21.11,19.7 20.65,19.97 20.09,20.13 C19.99,20.49 19.84,20.8 19.63,21.04 C18.5,22.34 15.92,22.34 13.08,21.17 C10.15,23.13 6.81,24.11 5.27,23.11 C4.88,22.85 4.57,22.49 4.35,22.04 C3.96,21.98 3.61,21.87 3.33,21.68 C2.9,21.4 2.57,20.99 2.35,20.47 C1.97,20.41 1.63,20.3 1.36,20.12 C-0.73,18.76 -0.4,14.28 2.33,10.06 C1.19,7.33 1.21,5.24 1.91,4.44 Z" id="TUMBLEWEED"></path>
            </g>
        </g>
    </g>
</svg>