<svg width="262.910891089" height="44" viewBox="0 0 1207 202" fill="none" xmlns="http://www.w3.org/2000/svg">
	<path d="M149.4 0.969971H50.72C22.7412 0.969971 0.0599899 23.6512 0.0599899 51.63V150.31C0.0599899 178.289 22.7412 200.97 50.72 200.97H149.4C177.379 200.97 200.06 178.289 200.06 150.31V51.63C200.06 23.6512 177.379 0.969971 149.4 0.969971V0.969971Z" fill="url(#header-llb-horizontal-over-black-paint0_linear)"></path>
	<path d="M66.695 148.64H44.395C43.1873 148.637 42.03 148.156 41.177 147.301C40.324 146.446 39.845 145.288 39.845 144.08V109.74C39.8423 108.8 39.4672 107.9 38.8017 107.236C38.1362 106.573 37.2348 106.2 36.295 106.2C35.3569 106.203 34.4581 106.576 33.7947 107.24C33.1314 107.903 32.7576 108.802 32.755 109.74V144.08C32.7576 147.166 33.9848 150.125 36.1672 152.308C38.3495 154.49 41.3087 155.717 44.395 155.72H66.695V148.64Z" fill="white"></path>
	<path d="M163.795 89.27H159.795V96.36H160.305V144.08C160.302 145.289 159.821 146.447 158.966 147.302C158.112 148.156 156.954 148.637 155.745 148.64H133.365V155.72H155.745C158.831 155.717 161.79 154.49 163.973 152.308C166.155 150.125 167.382 147.166 167.385 144.08V92.81C167.385 92.3409 167.292 91.8765 167.111 91.4437C166.93 91.0109 166.665 90.6184 166.331 90.289C165.997 89.9596 165.6 89.6999 165.165 89.525C164.73 89.3501 164.264 89.2634 163.795 89.27V89.27Z" fill="white"></path>
	<path d="M99.795 121.25C97.1383 121.254 94.5068 120.735 92.0513 119.72C89.5958 118.706 87.3644 117.218 85.485 115.34C81.6953 111.542 79.5669 106.395 79.5669 101.03C79.5669 95.6645 81.6953 90.5182 85.485 86.72C89.2832 82.9303 94.4295 80.8019 99.795 80.8019C105.16 80.8019 110.307 82.9303 114.105 86.72C114.764 87.3849 115.135 88.2835 115.135 89.22C115.135 90.1565 114.764 91.0551 114.105 91.72C113.44 92.3795 112.541 92.7496 111.605 92.7496C110.668 92.7496 109.77 92.3795 109.105 91.72C106.637 89.2554 103.293 87.8711 99.805 87.8711C96.3174 87.8711 92.9725 89.2554 90.505 91.72C88.0404 94.1875 86.656 97.5324 86.656 101.02C86.656 104.508 88.0404 107.852 90.505 110.32C92.9751 112.78 96.3191 114.161 99.805 114.161C103.291 114.161 106.635 112.78 109.105 110.32C109.433 109.991 109.823 109.73 110.252 109.552C110.681 109.374 111.14 109.282 111.605 109.282C112.069 109.282 112.529 109.374 112.958 109.552C113.387 109.73 113.777 109.991 114.105 110.32C114.764 110.985 115.135 111.883 115.135 112.82C115.135 113.757 114.764 114.655 114.105 115.32C112.227 117.201 109.997 118.694 107.541 119.711C105.085 120.729 102.453 121.252 99.795 121.25Z" fill="white"></path>
	<path d="M100.035 164.79C99.4599 164.789 98.8937 164.648 98.3851 164.38C97.8764 164.112 97.4406 163.724 97.115 163.25L69.485 122.97C64.7902 116.133 62.5288 107.916 63.0638 99.6396C63.5987 91.3629 66.8991 83.506 72.435 77.33C75.9092 73.4466 80.1626 70.3389 84.9181 68.2093C89.6736 66.0797 94.8244 64.9759 100.035 64.97C105.243 64.9679 110.392 66.0651 115.146 68.1898C119.901 70.3145 124.153 73.4189 127.625 77.3C133.168 83.4702 136.478 91.3241 137.022 99.6009C137.566 107.878 135.313 116.097 130.625 122.94L102.995 163.25C102.666 163.73 102.223 164.121 101.707 164.389C101.191 164.658 100.617 164.796 100.035 164.79V164.79ZM100.035 72.05C95.8209 72.0557 91.6554 72.9492 87.8096 74.6722C83.9639 76.3951 80.5243 78.909 77.715 82.05C73.2296 87.0421 70.5548 93.3986 70.1213 100.096C69.6877 106.793 71.5207 113.441 75.325 118.97L100.035 154.97L124.735 118.97C128.54 113.444 130.374 106.798 129.942 100.102C129.511 93.407 126.838 87.0517 122.355 82.06C119.547 78.9172 116.107 76.4014 112.262 74.6767C108.416 72.952 104.25 72.0569 100.035 72.05Z" fill="white"></path>
	<path d="M155.695 55.07H133.915C133.039 55.0679 132.182 54.8142 131.447 54.3391C130.711 53.864 130.127 53.1874 129.765 52.39L125.975 43.98C125.05 41.9406 123.558 40.2104 121.677 38.9958C119.795 37.7812 117.604 37.1335 115.365 37.13H84.555C82.3493 37.1352 80.1901 37.7642 78.3268 38.9445C76.4635 40.1247 74.9721 41.808 74.025 43.8L69.945 52.46C69.5748 53.2397 68.9914 53.8986 68.2623 54.3605C67.5331 54.8224 66.6881 55.0684 65.825 55.07H44.375C41.2895 55.0753 38.3319 56.3033 36.1501 58.4851C33.9683 60.6669 32.7403 63.6245 32.735 66.71V92.81C32.7337 93.2757 32.8243 93.7371 33.0016 94.1678C33.1789 94.5984 33.4394 94.9899 33.7683 95.3196C34.0971 95.6494 34.4878 95.911 34.918 96.0896C35.3481 96.2681 35.8093 96.36 36.275 96.36H40.815V89.27H39.815V66.71C39.8176 65.5023 40.2992 64.3451 41.1541 63.4921C42.009 62.6391 43.1673 62.16 44.375 62.16H65.825C68.0305 62.1545 70.1894 61.524 72.0513 60.3417C73.9132 59.1595 75.4019 57.4738 76.345 55.48L80.435 46.83C80.8028 46.0477 81.3853 45.386 82.1148 44.9221C82.8443 44.4582 83.6905 44.2113 84.555 44.21H115.365C116.24 44.2145 117.096 44.4692 117.831 44.9441C118.567 45.4189 119.151 46.0941 119.515 46.89L123.305 55.31C124.23 57.3494 125.722 59.0796 127.603 60.2943C129.485 61.5089 131.676 62.1565 133.915 62.16H155.695C156.903 62.16 158.061 62.6391 158.916 63.4921C159.771 64.3451 160.252 65.5023 160.255 66.71V77.83C160.254 78.2957 160.344 78.7571 160.522 79.1878C160.699 79.6184 160.959 80.0098 161.288 80.3396C161.617 80.6694 162.008 80.9311 162.438 81.1096C162.868 81.2881 163.329 81.38 163.795 81.38C164.261 81.38 164.722 81.2881 165.152 81.1096C165.582 80.9311 165.973 80.6694 166.302 80.3396C166.631 80.0098 166.891 79.6184 167.068 79.1878C167.246 78.7571 167.336 78.2957 167.335 77.83V66.71C167.33 63.6245 166.102 60.6669 163.92 58.4851C161.738 56.3033 158.78 55.0753 155.695 55.07V55.07Z" fill="white"></path>
	<path d="M69.265 92.81C69.265 91.8712 68.892 90.9708 68.2281 90.3069C67.5643 89.643 66.6639 89.27 65.725 89.27H39.845V96.36H65.725C66.1907 96.36 66.6519 96.2681 67.082 96.0896C67.5121 95.9111 67.9028 95.6495 68.2317 95.3197C68.5605 94.9899 68.8211 94.5985 68.9984 94.1678C69.1757 93.7372 69.2663 93.2757 69.265 92.81V92.81Z" fill="url(#header-llb-horizontal-over-black-paint1_linear)"></path>
	<path d="M130.533 92.8097C130.533 91.8708 130.906 90.9704 131.57 90.3065C132.234 89.6426 133.135 89.2697 134.073 89.2697H159.953V96.3597H134.073C133.608 96.3597 133.147 96.2678 132.716 96.0892C132.286 95.9107 131.896 95.6491 131.567 95.3193C131.238 94.9895 130.977 94.5981 130.8 94.1674C130.623 93.7368 130.532 93.2754 130.533 92.8097Z" fill="url(#header-llb-horizontal-over-black-paint2_linear)"></path>
	<path d="M104.2 152.17C104.2 151.231 104.573 150.331 105.237 149.667C105.901 149.003 106.801 148.63 107.74 148.63H133.63V155.71H107.71C106.777 155.699 105.886 155.322 105.229 154.66C104.572 153.997 104.203 153.103 104.2 152.17V152.17Z" fill="url(#header-llb-horizontal-over-black-paint3_linear)"></path>
	<path d="M95.8 152.19C95.8 151.251 95.427 150.351 94.7631 149.687C94.0993 149.023 93.1988 148.65 92.26 148.65H66.37V155.73H92.29C93.2228 155.719 94.114 155.342 94.7709 154.68C95.4277 154.017 95.7974 153.123 95.8 152.19Z" fill="url(#header-llb-horizontal-over-black-paint4_linear)"></path>
	<path d="M540.08 149.52C539.765 149.52 539.454 149.458 539.163 149.337C538.872 149.216 538.609 149.039 538.386 148.816C538.164 148.593 537.989 148.329 537.869 148.038C537.749 147.747 537.689 147.435 537.69 147.12V112.28C537.663 110.542 537.519 108.808 537.26 107.09C537.042 105.48 536.512 103.927 535.7 102.52C534.898 101.178 533.747 100.079 532.37 99.34C530.581 98.4767 528.605 98.0713 526.62 98.16C524.565 98.1023 522.527 98.5559 520.69 99.48C519.115 100.3 517.76 101.487 516.74 102.94C515.724 104.408 514.982 106.048 514.55 107.78C514.081 109.567 513.822 111.403 513.78 113.25V147.12C513.781 147.435 513.72 147.747 513.601 148.038C513.481 148.329 513.306 148.593 513.083 148.816C512.861 149.039 512.598 149.216 512.307 149.337C512.016 149.458 511.705 149.52 511.39 149.52H497.16C496.526 149.52 495.918 149.268 495.47 148.82C495.022 148.372 494.77 147.764 494.77 147.13V113.25C494.723 108.27 493.64 104.487 491.52 101.9C490.468 100.623 489.133 99.6091 487.622 98.9374C486.11 98.2657 484.463 97.955 482.81 98.03C478.663 98.03 475.45 99.2967 473.17 101.83C470.89 104.363 469.737 108.17 469.71 113.25L469.76 147.12C469.761 147.435 469.7 147.747 469.581 148.038C469.461 148.329 469.286 148.593 469.064 148.816C468.841 149.039 468.578 149.216 468.287 149.337C467.996 149.458 467.685 149.52 467.37 149.52H452.59C451.956 149.52 451.348 149.268 450.9 148.82C450.452 148.372 450.2 147.764 450.2 147.13V83.2C450.2 82.5661 450.452 81.9582 450.9 81.51C451.348 81.0618 451.956 80.81 452.59 80.81H466.16C466.684 80.8118 467.194 80.9861 467.609 81.3059C468.025 81.6258 468.324 82.0735 468.46 82.58L469.93 88.15C471.656 85.2166 474.258 82.898 477.37 81.52C480.794 80.1012 484.489 79.4552 488.192 79.628C491.894 79.8009 495.513 80.7883 498.79 82.52C502.139 84.5849 504.642 87.7758 505.85 91.52C508.24 87.8414 511.513 84.8195 515.37 82.73C519.476 80.7318 524.005 79.7574 528.57 79.89C533.198 79.7556 537.81 80.4847 542.17 82.04C545.557 83.3028 548.542 85.4549 550.81 88.27C553.055 91.2187 554.604 94.6375 555.34 98.27C556.263 102.709 556.689 107.237 556.61 111.77V147.16C556.613 147.475 556.553 147.788 556.434 148.079C556.315 148.371 556.139 148.636 555.917 148.859C555.694 149.083 555.43 149.26 555.138 149.38C554.847 149.5 554.535 149.561 554.22 149.56L540.08 149.52Z" fill="white"></path>
	<path d="M1190.21 149.52C1189.9 149.52 1189.58 149.458 1189.29 149.337C1189 149.216 1188.74 149.039 1188.52 148.816C1188.29 148.593 1188.12 148.329 1188 148.038C1187.88 147.747 1187.82 147.435 1187.82 147.12V112.28C1187.79 110.542 1187.65 108.808 1187.39 107.09C1187.2 105.487 1186.71 103.935 1185.93 102.52C1185.13 101.178 1183.98 100.079 1182.6 99.34C1180.81 98.4791 1178.83 98.0738 1176.85 98.16C1174.79 98.1023 1172.76 98.5559 1170.92 99.48C1169.33 100.293 1167.95 101.48 1166.92 102.94C1165.9 104.408 1165.16 106.048 1164.73 107.78C1164.26 109.567 1164 111.403 1163.96 113.25V147.12C1163.96 147.435 1163.9 147.747 1163.78 148.038C1163.66 148.329 1163.49 148.593 1163.26 148.816C1163.04 149.039 1162.78 149.216 1162.49 149.337C1162.2 149.458 1161.88 149.52 1161.57 149.52H1147.25C1146.62 149.52 1146.01 149.268 1145.56 148.82C1145.11 148.372 1144.86 147.764 1144.86 147.13V113.25C1144.81 108.27 1143.72 104.487 1141.61 101.9C1140.56 100.623 1139.22 99.609 1137.71 98.9374C1136.2 98.2657 1134.55 97.955 1132.9 98.03C1128.75 98.03 1125.53 99.2967 1123.26 101.83C1120.99 104.363 1119.83 108.17 1119.8 113.25L1119.85 147.12C1119.85 147.436 1119.79 147.748 1119.67 148.04C1119.55 148.332 1119.37 148.597 1119.15 148.82C1118.93 149.043 1118.66 149.22 1118.37 149.34C1118.08 149.46 1117.77 149.521 1117.45 149.52H1102.72C1102.41 149.52 1102.1 149.458 1101.81 149.338C1101.52 149.218 1101.25 149.042 1101.03 148.82C1100.81 148.598 1100.63 148.335 1100.51 148.045C1100.39 147.755 1100.33 147.444 1100.33 147.13V83.2C1100.33 82.8861 1100.39 82.5754 1100.51 82.2854C1100.63 81.9954 1100.81 81.7319 1101.03 81.51C1101.25 81.2881 1101.52 81.112 1101.81 80.9919C1102.1 80.8718 1102.41 80.81 1102.72 80.81H1116.29C1116.81 80.8118 1117.32 80.9861 1117.74 81.3059C1118.16 81.6258 1118.45 82.0735 1118.59 82.58L1120.1 88.15C1121.82 85.2139 1124.41 82.8885 1127.51 81.5C1130.94 80.0842 1134.63 79.4416 1138.33 79.6179C1142.04 79.7942 1145.65 80.7851 1148.93 82.52C1152.26 84.5916 1154.74 87.7827 1155.93 91.52C1158.33 87.8431 1161.6 84.822 1165.46 82.73C1169.57 80.7318 1174.1 79.7574 1178.66 79.89C1183.29 79.7556 1187.9 80.4847 1192.26 82.04C1195.65 83.2841 1198.65 85.4188 1200.93 88.22C1203.18 91.1687 1204.72 94.5875 1205.46 98.22C1206.38 102.659 1206.81 107.187 1206.73 111.72V147.11C1206.73 147.425 1206.67 147.737 1206.55 148.028C1206.43 148.319 1206.26 148.583 1206.03 148.806C1205.81 149.029 1205.55 149.206 1205.26 149.327C1204.97 149.448 1204.65 149.51 1204.34 149.51L1190.21 149.52Z" fill="white"></path>
	<path d="M589.07 82.77L590.07 90.92C592.913 87.6645 596.326 84.9536 600.14 82.92C604.39 80.7827 609.105 79.7347 613.86 79.87C622.72 79.87 629.983 82.34 635.65 87.28C641.317 92.22 644.94 99.1634 646.52 108.11C647.676 114.002 647.737 120.056 646.7 125.97C645.812 130.965 643.718 135.668 640.6 139.67C637.422 143.566 633.287 146.57 628.6 148.39C623.007 150.521 617.053 151.54 611.07 151.39C607.362 151.368 603.683 150.736 600.18 149.52C596.103 148.033 592.458 145.559 589.57 142.32V178.27C589.57 178.904 589.318 179.512 588.87 179.96C588.422 180.408 587.814 180.66 587.18 180.66H573.39C572.755 180.66 572.146 180.409 571.696 179.961C571.247 179.513 570.993 178.905 570.99 178.27V83.06C570.99 82.7453 571.052 82.4337 571.173 82.1431C571.294 81.8525 571.471 81.5886 571.694 81.3665C571.917 81.1444 572.181 80.9686 572.472 80.8491C572.763 80.7296 573.075 80.6687 573.39 80.67H586.69C587.275 80.6682 587.84 80.8809 588.279 81.2679C588.718 81.6549 588.999 82.1894 589.07 82.77V82.77ZM609.31 134.1C612.157 134.156 614.985 133.614 617.61 132.51C619.896 131.534 621.908 130.013 623.47 128.08C625.039 126.072 626.121 123.727 626.63 121.23C627.207 118.305 627.207 115.295 626.63 112.37C626.105 108.408 624.161 104.77 621.16 102.13C618.3 99.7234 614.557 98.52 609.93 98.52C606.976 98.4337 604.047 99.076 601.4 100.39C599.144 101.539 597.186 103.196 595.68 105.23C594.234 107.207 593.241 109.477 592.77 111.88C592.274 114.271 592.237 116.735 592.66 119.14C593.006 121.037 593.612 122.878 594.46 124.61C595.305 126.373 596.429 127.987 597.79 129.39C599.198 130.81 600.856 131.96 602.68 132.78C604.767 133.699 607.03 134.149 609.31 134.1V134.1Z" fill="white"></path>
	<path d="M716.02 147.41L715.22 141.72C713.266 143.657 711.145 145.418 708.88 146.98C705.322 149.398 701.175 150.808 696.88 151.06C694.78 151.2 692.487 151.27 690 151.27C686.021 151.304 682.071 150.599 678.35 149.19C674.79 147.838 671.522 145.818 668.72 143.24C665.84 140.565 663.454 137.403 661.67 133.9C657.368 125.273 655.982 115.482 657.72 106C658.648 101.167 660.66 96.6065 663.605 92.6626C666.549 88.7187 670.35 85.4937 674.72 83.23C679.679 80.685 685.148 79.2905 690.72 79.15C695.192 79.1139 699.652 79.6243 704 80.67C708.349 81.8796 712.222 84.3923 715.1 87.87L715.8 81.87C715.834 81.5783 715.974 81.3093 716.194 81.1139C716.413 80.9186 716.696 80.8104 716.99 80.81H730.82C731.454 80.81 732.062 81.0618 732.51 81.51C732.958 81.9582 733.21 82.5661 733.21 83.2V147.08C733.226 147.705 732.996 148.31 732.57 148.767C732.143 149.223 731.554 149.494 730.93 149.52H718.43C717.838 149.531 717.263 149.321 716.817 148.931C716.371 148.541 716.087 147.999 716.02 147.41V147.41ZM695.87 97.15C692.879 97.0999 689.914 97.7147 687.19 98.95C684.736 100.072 682.546 101.697 680.76 103.72C679.023 105.737 677.786 108.135 677.15 110.72C676.467 113.484 676.385 116.362 676.91 119.16C677.557 123.342 679.576 127.191 682.65 130.1C685.69 132.96 689.69 134.39 694.65 134.39C697.467 134.429 700.268 133.962 702.92 133.01C705.265 132.158 707.412 130.838 709.23 129.13C710.999 127.429 712.405 125.386 713.363 123.126C714.32 120.866 714.809 118.435 714.8 115.98C715.014 111.027 713.264 106.19 709.93 102.52C706.65 98.94 701.963 97.15 695.87 97.15V97.15Z" fill="white"></path>
	<path d="M1068.7 147.41L1067.9 141.72C1065.95 143.66 1063.83 145.42 1061.56 146.98C1059.75 148.207 1057.78 149.183 1055.71 149.88C1053.74 150.531 1051.69 150.927 1049.62 151.06C1047.52 151.2 1045.23 151.27 1042.74 151.27C1038.76 151.304 1034.81 150.599 1031.09 149.19C1027.53 147.84 1024.26 145.82 1021.46 143.24C1018.6 140.56 1016.23 137.399 1014.46 133.9C1010.14 125.278 1008.74 115.488 1010.46 106C1011.38 101.165 1013.39 96.6025 1016.34 92.6579C1019.28 88.7134 1023.09 85.4896 1027.46 83.23C1032.42 80.685 1037.89 79.2905 1043.46 79.15C1047.93 79.1149 1052.39 79.6253 1056.74 80.67C1061.09 81.8761 1064.96 84.3896 1067.83 87.87L1068.54 81.87C1068.57 81.5783 1068.71 81.3093 1068.93 81.114C1069.15 80.9186 1069.44 80.8105 1069.73 80.81H1083.56C1083.87 80.81 1084.18 80.8718 1084.47 80.9919C1084.76 81.1121 1085.03 81.2881 1085.25 81.51C1085.47 81.732 1085.65 81.9954 1085.77 82.2854C1085.89 82.5754 1085.95 82.8862 1085.95 83.2V147.08C1085.95 147.394 1085.89 147.705 1085.77 147.995C1085.65 148.285 1085.47 148.548 1085.25 148.77C1085.03 148.992 1084.76 149.168 1084.47 149.288C1084.18 149.408 1083.87 149.47 1083.56 149.47H1071.05C1070.48 149.464 1069.92 149.253 1069.49 148.875C1069.06 148.497 1068.78 147.977 1068.7 147.41ZM1048.56 97.15C1045.57 97.0979 1042.6 97.7128 1039.88 98.95C1037.43 100.072 1035.24 101.697 1033.45 103.72C1031.71 105.734 1030.47 108.134 1029.84 110.72C1029.16 113.484 1029.08 116.362 1029.6 119.16C1030.25 123.34 1032.26 127.188 1035.33 130.1C1038.37 132.96 1042.37 134.39 1047.33 134.39C1050.15 134.429 1052.95 133.962 1055.6 133.01C1057.94 132.158 1060.09 130.838 1061.91 129.13C1063.68 127.429 1065.09 125.386 1066.04 123.126C1067 120.866 1067.49 118.435 1067.48 115.98C1067.7 111.013 1065.95 106.16 1062.61 102.48C1059.33 98.9267 1054.65 97.15 1048.56 97.15V97.15Z" fill="white"></path>
	<path d="M797.98 149.52C797.346 149.52 796.738 149.268 796.29 148.82C795.842 148.372 795.59 147.764 795.59 147.13V113.39C795.59 111.55 795.39 109.7 795.16 107.85C794.959 106.079 794.376 104.373 793.45 102.85C792.471 101.307 791.087 100.062 789.45 99.25C787.178 98.2289 784.698 97.7563 782.21 97.8701C777.49 97.7834 773.71 99.2367 770.87 102.23C768.03 105.223 766.613 109.353 766.62 114.62L766.56 147.11C766.563 147.429 766.502 147.745 766.38 148.04C766.259 148.335 766.08 148.603 765.853 148.827C765.627 149.052 765.358 149.229 765.062 149.348C764.766 149.467 764.449 149.525 764.13 149.52H750.08C749.446 149.52 748.838 149.268 748.39 148.82C747.942 148.372 747.69 147.764 747.69 147.13V83.13C747.689 82.8153 747.75 82.5035 747.869 82.2124C747.989 81.9213 748.164 81.6566 748.386 81.4336C748.609 81.2106 748.872 81.0337 749.163 80.913C749.454 80.7922 749.765 80.7301 750.08 80.7301H762.83C763.385 80.729 763.923 80.921 764.352 81.2731C764.78 81.6253 765.073 82.1156 765.18 82.6601L766.18 87.79C768.944 84.8421 772.418 82.6523 776.27 81.43C779.28 80.4898 782.407 79.9749 785.56 79.9C789.793 79.8302 794.009 80.4379 798.05 81.7C801.544 82.8161 804.701 84.7935 807.23 87.45C809.907 90.3962 811.858 93.9265 812.93 97.76C814.332 102.803 814.972 108.028 814.83 113.26V147.13C814.831 147.445 814.77 147.757 814.651 148.048C814.531 148.339 814.356 148.603 814.134 148.826C813.912 149.049 813.648 149.226 813.357 149.347C813.066 149.468 812.755 149.53 812.44 149.53L797.98 149.52Z" fill="white"></path>
	<path d="M895.53 80.6699C895.845 80.6686 896.157 80.7294 896.448 80.849C896.739 80.9685 897.003 81.1443 897.226 81.3664C897.449 81.5884 897.626 81.8524 897.747 82.143C897.868 82.4336 897.93 82.7452 897.93 83.0599V149.19C897.93 155.857 897.047 161.44 895.28 165.94C893.846 170.021 891.439 173.692 888.268 176.635C885.097 179.578 881.257 181.704 877.08 182.83C872.652 184.059 868.075 184.664 863.48 184.63C859.046 184.659 854.627 184.122 850.33 183.03C846.492 182.07 842.878 180.372 839.69 178.03C836.595 175.691 834.094 172.656 832.39 169.17C830.777 165.852 829.806 162.259 829.53 158.58C829.498 158.248 829.536 157.912 829.641 157.596C829.746 157.279 829.915 156.987 830.139 156.74C830.363 156.492 830.637 156.294 830.941 156.158C831.246 156.022 831.576 155.951 831.91 155.95H846.21C846.774 155.957 847.319 156.161 847.749 156.526C848.18 156.891 848.47 157.394 848.57 157.95C848.772 159.226 849.237 160.446 849.936 161.532C850.635 162.618 851.553 163.547 852.63 164.26C855.725 166.145 859.31 167.068 862.93 166.91C867.312 167.02 871.57 165.449 874.83 162.52C878.097 159.567 879.733 155.233 879.74 149.52V141.9C877.477 144.845 874.456 147.119 871 148.48C867.239 149.725 863.291 150.311 859.33 150.21C855.424 150.218 851.539 149.649 847.8 148.52C844.205 147.448 840.922 145.523 838.23 142.91C835.281 139.924 833.057 136.301 831.73 132.32C829.97 127.011 829.128 121.442 829.24 115.85L829.18 83.0899C829.18 82.4551 829.431 81.8462 829.879 81.3964C830.327 80.9466 830.935 80.6925 831.57 80.6899H845.84C846.475 80.6925 847.083 80.9466 847.531 81.3964C847.979 81.8462 848.23 82.4551 848.23 83.0899V115.85C848.229 117.933 848.366 120.015 848.64 122.08C848.865 124.014 849.551 125.866 850.64 127.48C851.851 129.173 853.495 130.51 855.4 131.35C858.156 132.491 861.13 133.013 864.11 132.88C869.163 132.693 872.847 130.94 875.16 127.62C877.588 123.927 878.827 119.578 878.71 115.16V83.0799C878.713 82.4451 878.967 81.8372 879.416 81.3893C879.866 80.9414 880.475 80.6899 881.11 80.6899L895.53 80.6699Z" fill="white"></path>
	<path d="M267.62 100.73C267.62 72.97 289.04 50.5 319.2 50.5C331.67 50.5 342.96 54.4 351.52 61.24C351.773 61.4448 351.981 61.6994 352.131 61.9881C352.281 62.2767 352.37 62.5932 352.393 62.9178C352.415 63.2424 352.371 63.5681 352.262 63.8747C352.153 64.1814 351.982 64.4623 351.76 64.7L341.99 75.39C341.586 75.8281 341.034 76.1004 340.441 76.154C339.848 76.2076 339.256 76.0387 338.78 75.68C333.523 71.6386 327.039 69.5209 320.41 69.68C302.61 69.68 289.64 83.56 289.64 100.76C289.64 118.25 302.31 132.28 319.64 132.28C327.661 132.388 335.415 129.401 341.29 123.94C341.522 123.719 341.796 123.548 342.096 123.435C342.395 123.322 342.715 123.271 343.035 123.284C343.355 123.297 343.669 123.374 343.958 123.511C344.248 123.648 344.507 123.841 344.72 124.08L354.59 135.2C355.011 135.672 355.227 136.293 355.192 136.924C355.156 137.556 354.871 138.148 354.4 138.57C345.24 146.65 333.22 151.44 319.19 151.44C289.04 151.41 267.62 128.93 267.62 100.73V100.73Z" fill="white"></path>
	<path d="M913.46 100.73C913.46 72.97 934.93 50.52 965.04 50.52C977.51 50.52 988.8 54.42 997.36 61.26C997.613 61.4648 997.821 61.7194 997.971 62.0081C998.121 62.2967 998.21 62.6132 998.233 62.9378C998.255 63.2624 998.211 63.5881 998.102 63.8948C997.993 64.2014 997.822 64.4823 997.6 64.72L987.83 75.39C987.426 75.8281 986.874 76.1004 986.281 76.154C985.688 76.2076 985.096 76.0387 984.62 75.68C979.363 71.6386 972.879 69.521 966.25 69.68C948.45 69.68 935.48 83.56 935.48 100.76C935.48 118.25 948.15 132.28 965.48 132.28C973.498 132.387 981.248 129.4 987.12 123.94C987.352 123.719 987.626 123.548 987.926 123.435C988.225 123.322 988.545 123.271 988.865 123.284C989.185 123.297 989.499 123.374 989.788 123.511C990.078 123.648 990.337 123.841 990.55 124.08L1000.42 135.2C1000.84 135.672 1001.06 136.293 1001.02 136.924C1000.99 137.556 1000.7 138.148 1000.23 138.57C991.08 146.65 979.05 151.44 965.02 151.44C934.93 151.41 913.46 128.93 913.46 100.73V100.73Z" fill="white"></path>
	<path d="M363.82 115.13C363.82 94.99 380.22 79.01 400.92 79.01C421.62 79.01 438.15 95.01 438.15 115.13C438.15 135.25 421.76 151.26 400.93 151.26C380.1 151.26 363.82 135.28 363.82 115.13V115.13ZM419.12 115.13C419.12 104.3 411.34 96.24 400.92 96.24C390.5 96.24 382.72 104.3 382.72 115.13C382.72 126.13 390.5 134.03 400.92 134.03C411.34 134.03 419.12 126.11 419.12 115.13Z" fill="white"></path>
	<defs>
		<linearGradient id="header-llb-horizontal-over-black-paint0_linear" x1="38" y1="22.41" x2="117" y2="122.41" gradientUnits="userSpaceOnUse">
			<stop stop-color="#3A85DB"></stop>
			<stop offset="1" stop-color="#0967D2"></stop>
		</linearGradient>
		<linearGradient id="header-llb-horizontal-over-black-paint1_linear" x1="39.815" y1="92.81" x2="69.235" y2="92.81" gradientUnits="userSpaceOnUse">
			<stop offset="0.1" stop-color="white"></stop>
			<stop offset="0.85" stop-color="white" stop-opacity="0"></stop>
		</linearGradient>
		<linearGradient id="header-llb-horizontal-over-black-paint2_linear" x1="159.983" y1="92.8097" x2="130.563" y2="92.8097" gradientUnits="userSpaceOnUse">
			<stop offset="0.1" stop-color="white"></stop>
			<stop offset="0.85" stop-color="white" stop-opacity="0"></stop>
		</linearGradient>
		<linearGradient id="header-llb-horizontal-over-black-paint3_linear" x1="133.365" y1="152.18" x2="103.935" y2="152.18" gradientUnits="userSpaceOnUse">
			<stop stop-color="white"></stop>
			<stop offset="0.85" stop-color="white" stop-opacity="0"></stop>
		</linearGradient>
		<linearGradient id="header-llb-horizontal-over-black-paint4_linear" x1="66.695" y1="152.18" x2="96.125" y2="152.18" gradientUnits="userSpaceOnUse">
			<stop stop-color="white"></stop>
			<stop offset="0.85" stop-color="white" stop-opacity="0"></stop>
		</linearGradient>
	</defs>
</svg>
