<?xml version="1.0" encoding="UTF-8"?>
<svg width="30px" height="28px" viewBox="0 0 30 28" version="1.1" xmlns="http://www.w3.org/2000/svg" xmlns:xlink="http://www.w3.org/1999/xlink">
    <!-- Generator: Sketch 54.1 (76490) - https://sketchapp.com -->
    <title>logo</title>
    <desc>Created with Sketch.</desc>
    <defs>
        <linearGradient x1="-0.1019714%" y1="49.9294781%" x2="99.8979817%" y2="49.9294781%" id="linearGradient-1">
            <stop stop-color="#FFFFFF" offset="10%"></stop>
            <stop stop-color="#FFFFFF" stop-opacity="0" offset="85%"></stop>
        </linearGradient>
        <linearGradient x1="100.101971%" y1="49.9294781%" x2="0.101999133%" y2="49.9294781%" id="linearGradient-2">
            <stop stop-color="#FFFFFF" offset="10%"></stop>
            <stop stop-color="#FFFFFF" stop-opacity="0" offset="85%"></stop>
        </linearGradient>
        <linearGradient x1="99.0995583%" y1="50.1412429%" x2="-0.900441726%" y2="50.1412429%" id="linearGradient-3">
            <stop stop-color="#FFFFFF" offset="0%"></stop>
            <stop stop-color="#FFFFFF" stop-opacity="0" offset="85%"></stop>
        </linearGradient>
        <linearGradient x1="1.10431532%" y1="49.8587571%" x2="101.104315%" y2="49.8587571%" id="linearGradient-4">
            <stop stop-color="#FFFFFF" offset="0%"></stop>
            <stop stop-color="#FFFFFF" stop-opacity="0" offset="85%"></stop>
        </linearGradient>
    </defs>
    <g id="Page-1" stroke="none" stroke-width="1" fill="none" fill-rule="evenodd">
        <g id="logo" fill-rule="nonzero">
            <path d="M7.52762376,24.3770297 L2.67019802,24.3770297 C2.40713465,24.3763762 2.1550495,24.271604 1.96924752,24.0853663 C1.78344554,23.8991287 1.67910891,23.6468911 1.67910891,23.3837624 L1.67910891,15.9037624 C1.67852079,15.6990099 1.59681584,15.5029703 1.45185545,15.3583366 C1.30689505,15.2139208 1.1105505,15.1326733 0.905841584,15.1326733 C0.70150297,15.1333267 0.505724752,15.2145743 0.361221782,15.3592079 C0.216740594,15.5036238 0.135318812,15.6994455 0.134752475,15.9037624 L0.134752475,23.3837624 C0.135318812,24.0559604 0.402629703,24.700495 0.87800396,25.176 C1.35335644,25.6512871 1.99793465,25.9185545 2.67019802,25.9192079 L7.52762376,25.9192079 L7.52762376,24.3770297 Z" id="Path" fill="#FFFFFF"></path>
            <path d="M28.6781188,11.4449505 L27.8068317,11.4449505 L27.8068317,12.9893069 L27.9179208,12.9893069 L27.9179208,23.3837624 C27.9172673,23.6471089 27.812495,23.8993465 27.6262574,24.0855842 C27.4402376,24.271604 27.188,24.3763762 26.9246535,24.3770297 L22.049802,24.3770297 L22.049802,25.9192079 L26.9246535,25.9192079 C27.5968515,25.9185545 28.2413861,25.6512871 28.7168911,25.176 C29.1921782,24.700495 29.4594455,24.0559604 29.460099,23.3837624 L29.460099,12.2160396 C29.460099,12.1138594 29.4398416,12.012703 29.4004158,11.9184297 C29.3609901,11.8241564 29.3032673,11.7386614 29.2305149,11.6669109 C29.1577624,11.5951604 29.0712871,11.5385921 28.9765347,11.500495 C28.8817822,11.462398 28.7802772,11.4435129 28.6781188,11.4449505 L28.6781188,11.4449505 Z" id="Path" fill="#FFFFFF"></path>
            <path d="M14.7375248,18.4108911 C14.1588376,18.4117624 13.5856396,18.2987129 13.0507782,18.0776238 C12.5159168,17.8567525 12.0298693,17.5326337 11.620495,17.1235644 C10.7950158,16.2962772 10.331404,15.1751485 10.331404,14.0065347 C10.331404,12.8378119 10.7950158,11.7168356 11.620495,10.889505 C12.4478257,10.0640257 13.568802,9.60041386 14.7375248,9.60041386 C15.9061386,9.60041386 17.0272673,10.0640257 17.8545545,10.889505 C17.998099,11.0343347 18.0789109,11.2300693 18.0789109,11.4340594 C18.0789109,11.6380495 17.998099,11.8337842 17.8545545,11.9786139 C17.709703,12.1222673 17.5138812,12.2028832 17.31,12.2028832 C17.105901,12.2028832 16.910297,12.1222673 16.7654455,11.9786139 C16.2278614,11.4417703 15.4994653,11.1402396 14.739703,11.1402396 C13.9800277,11.1402396 13.2514356,11.4417703 12.7139604,11.9786139 C12.1771168,12.5160891 11.8755644,13.2446812 11.8755644,14.0043564 C11.8755644,14.7641188 12.1771168,15.4925149 12.7139604,16.030099 C13.252002,16.5659406 13.980398,16.8667525 14.739703,16.8667525 C15.4990297,16.8667525 16.2274257,16.5659406 16.7654455,16.030099 C16.8368911,15.9584356 16.9218416,15.9015842 17.0152871,15.8628119 C17.1087327,15.8240396 17.2087129,15.804 17.31,15.804 C17.4110693,15.804 17.5112673,15.8240396 17.6047129,15.8628119 C17.6981584,15.9015842 17.7831089,15.9584356 17.8545545,16.030099 C17.998099,16.1749505 18.0789109,16.3705545 18.0789109,16.5746535 C18.0789109,16.7787525 17.998099,16.9743564 17.8545545,17.1192079 C17.4454851,17.5289307 16.9597426,17.8541386 16.4247723,18.0756634 C15.889802,18.2974059 15.316495,18.4113267 14.7375248,18.4108911 Z" id="Path" fill="#FFFFFF"></path>
            <path d="M14.789802,27.8948515 C14.6645327,27.8946337 14.541202,27.8639208 14.4304178,27.8055446 C14.3196119,27.7471683 14.2246851,27.6626535 14.1537624,27.5594059 L8.13534653,18.7855446 C7.11271683,17.296297 6.62013465,15.5064554 6.73666931,13.7036752 C6.85318218,11.9008297 7.57208119,10.1894257 8.77792079,8.84415842 C9.53467723,7.99826931 10.4611604,7.32134455 11.4970119,6.85747129 C12.5328634,6.39359802 13.6548198,6.15316634 14.789802,6.15188119 C15.9242178,6.15142376 17.0457822,6.39041782 18.0813069,6.85322376 C19.1170495,7.3160297 20.0432277,7.99223564 20.799505,8.83762376 C22.0068911,10.1816277 22.7278812,11.8923782 22.8463762,13.6952455 C22.9648713,15.4981782 22.4741188,17.2884554 21.4529703,18.7790099 L15.4345545,27.5594059 C15.3628911,27.6639604 15.266396,27.7491287 15.154,27.807505 C15.041604,27.866099 14.9165743,27.8961584 14.789802,27.8948515 L14.789802,27.8948515 Z M14.789802,7.69405941 C13.8718792,7.69530099 12.9645426,7.88992475 12.1268436,8.26523168 C11.2891663,8.64051683 10.5399465,9.18809901 9.9280198,9.87227723 C8.95100198,10.9596653 8.36837228,12.3442495 8.27394653,13.8030891 C8.17949901,15.2618416 8.57876634,16.7099208 9.40742574,17.9142574 L14.789802,25.7558416 L20.17,17.9142574 C20.9988119,16.7105743 21.398297,15.2629307 21.304198,13.804396 C21.2103168,12.3460792 20.6280792,10.9617564 19.6515842,9.87445545 C19.0399406,9.18988515 18.2906337,8.64188911 17.4531089,8.26621188 C16.6153663,7.89053465 15.7079208,7.69556238 14.789802,7.69405941 Z" id="Shape" fill="#FFFFFF"></path>
            <path d="M26.9137624,3.99544554 L22.169604,3.99544554 C21.9787921,3.99498812 21.7921188,3.93972673 21.6320198,3.8362396 C21.471703,3.73275248 21.344495,3.58537426 21.2656436,3.41168317 L20.440099,1.57980198 C20.2386139,1.13557624 19.9136238,0.75870099 19.503901,0.494134653 C19.0939604,0.229568317 18.6167129,0.0884851485 18.1290099,0.0877227723 L11.4179208,0.0877227723 C10.9374713,0.0888554455 10.4671505,0.225865347 10.0612832,0.482960396 C9.65541584,0.740033663 9.33055644,1.10669307 9.12425743,1.54059406 L8.23554455,3.42693069 C8.15490693,3.59676634 8.0278297,3.74028911 7.86901584,3.84090099 C7.7101802,3.94151287 7.52612079,3.99509703 7.33811881,3.99544554 L2.66584158,3.99544554 C1.99375248,3.9966 1.34952277,4.26408515 0.874279208,4.73932871 C0.399035644,5.21457228 0.131550495,5.85880198 0.13039604,6.53089109 L0.13039604,12.2160396 C0.130112871,12.3174792 0.149847525,12.4179822 0.188467327,12.511798 C0.227087129,12.6055921 0.283829703,12.6908693 0.355471287,12.7626851 C0.427091089,12.8345228 0.512194059,12.891505 0.60590099,12.9304079 C0.699586139,12.9692891 0.800045545,12.9893069 0.901485149,12.9893069 L1.89039604,12.9893069 L1.89039604,11.4449505 L1.67257426,11.4449505 L1.67257426,6.53089109 C1.67314059,6.26782772 1.77804356,6.01576436 1.96425941,5.82996238 C2.15047525,5.6441604 2.40277822,5.53980198 2.66584158,5.53980198 L7.33811881,5.53980198 C7.81852475,5.53860396 8.2887802,5.40126733 8.69434257,5.14373663 C9.09990495,4.88622772 9.42417624,4.51904554 9.62960396,4.08475248 L10.520495,2.20059406 C10.6006099,2.03019208 10.7274911,1.88605941 10.8863921,1.78501188 C11.0452931,1.68396436 11.2296139,1.63018416 11.4179208,1.62990099 L18.1290099,1.62990099 C18.319604,1.63088119 18.5060594,1.6863604 18.6661584,1.78980396 C18.8264752,1.89322574 18.9536832,2.04029901 19.0329703,2.21366337 L19.8585149,4.04772277 C20.06,4.49194851 20.3849901,4.86882376 20.7947129,5.13341188 C21.2046535,5.39797822 21.681901,5.5390396 22.169604,5.53980198 L26.9137624,5.53980198 C27.1768911,5.53980198 27.4291287,5.6441604 27.6153663,5.82996238 C27.801604,6.01576436 27.9063762,6.26782772 27.9070297,6.53089109 L27.9070297,8.95306931 C27.9068119,9.05450891 27.9264158,9.15501188 27.9651881,9.24882772 C28.0037426,9.34262178 28.0603762,9.42787723 28.1320396,9.49971485 C28.203703,9.57155248 28.2888713,9.62855644 28.3825347,9.66743762 C28.476198,9.70631881 28.5766139,9.72633663 28.6781188,9.72633663 C28.7796238,9.72633663 28.8800396,9.70631881 28.973703,9.66743762 C29.0673663,9.62855644 29.1525347,9.57155248 29.224198,9.49971485 C29.2958614,9.42787723 29.352495,9.34262178 29.3910495,9.24882772 C29.4298218,9.15501188 29.4494257,9.05450891 29.4492079,8.95306931 L29.4492079,6.53089109 C29.4481188,5.85880198 29.1806337,5.21457228 28.7053465,4.73932871 C28.2300594,4.26408515 27.5857426,3.9966 26.9137624,3.99544554 L26.9137624,3.99544554 Z" id="Path" fill="#FFFFFF"></path>
            <path d="M8.08742574,12.2160396 C8.08742574,12.0115485 8.00617822,11.8154218 7.86156634,11.6708099 C7.71697624,11.526198 7.5208495,11.4449505 7.31633663,11.4449505 L1.67910891,11.4449505 L1.67910891,12.9893069 L7.31633663,12.9893069 C7.41777624,12.9893069 7.51823564,12.9692891 7.61192079,12.9304079 C7.70560594,12.8915267 7.79070891,12.8345446 7.8623505,12.7627069 C7.9339703,12.6908693 7.99073465,12.6056139 8.02935446,12.511798 C8.06797426,12.418004 8.08770891,12.3174792 8.08742574,12.2160396 L8.08742574,12.2160396 Z" id="Path" fill="url(#linearGradient-1)"></path>
            <path d="M21.4329307,12.2159743 C21.4329307,12.0114614 21.5141782,11.8153347 21.6588119,11.6707228 C21.8034455,11.5261109 21.999703,11.4448851 22.2040198,11.4448851 L27.8412475,11.4448851 L27.8412475,12.9892416 L22.2040198,12.9892416 C22.1027327,12.9892416 22.0023168,12.9692238 21.9084356,12.9303208 C21.8147723,12.8914396 21.7298218,12.8344574 21.6581584,12.7626198 C21.586495,12.6907822 21.5296436,12.6055267 21.4910891,12.5117109 C21.4525347,12.4179168 21.4327129,12.3174139 21.4329307,12.2159743 Z" id="Path" fill="url(#linearGradient-2)"></path>
            <path d="M15.6970297,25.1459406 C15.6970297,24.9414059 15.7782772,24.7453663 15.9229109,24.6007327 C16.0675446,24.456099 16.2635842,24.3748515 16.4681188,24.3748515 L22.1075248,24.3748515 L22.1075248,25.9170297 L16.4615842,25.9170297 C16.2583564,25.9146337 16.0642772,25.8325149 15.9211683,25.6883168 C15.7780594,25.543901 15.6976832,25.3491683 15.6970297,25.1459406 L15.6970297,25.1459406 Z" id="Path" fill="url(#linearGradient-3)"></path>
            <path d="M13.8673267,25.150297 C13.8673267,24.9457624 13.7860792,24.7497228 13.6414673,24.6050891 C13.4968772,24.4604554 13.3007287,24.3792079 13.0962376,24.3792079 L7.45683168,24.3792079 L7.45683168,25.9213861 L13.1027723,25.9213861 C13.3059564,25.9189901 13.5000792,25.8368713 13.6431663,25.6926733 C13.7862317,25.5482574 13.8667604,25.3535248 13.8673267,25.150297 Z" id="Path" fill="url(#linearGradient-4)"></path>
        </g>
    </g>
</svg>