<svg width="2609" height="512" viewBox="0 0 2609 512" fill="none" xmlns="http://www.w3.org/2000/svg">
<path fill-rule="evenodd" clip-rule="evenodd" d="M2330.68 97.4C2330.73 96.0919 2330.52 94.7859 2330.05 93.5642C2329.58 92.3426 2328.86 91.2318 2327.94 90.302C2326.08 88.427 2323.52 87.433 2320.89 87.506C2288.13 88.683 2269.56 96.089 2238 117.623L2233.41 97.819C2232.92 95.7339 2231.75 93.8742 2230.07 92.5433C2228.39 91.2125 2226.32 90.489 2224.18 90.491H2166.73C2161.5 90.491 2157.29 94.723 2157.29 99.952V393.932C2157.29 399.164 2161.5 403.399 2166.73 403.399H2227.92C2233.13 403.399 2237.37 399.164 2237.37 393.932V192.392C2263.49 173.952 2283.77 164.762 2318.94 163.502C2323.87 163.329 2327.83 159.414 2328.05 154.497L2330.68 97.4ZM2471.82 319.662C2450.4 319.662 2439.37 303.395 2439.37 273.6V207.997C2439.37 178.225 2450.4 161.958 2471.83 161.958C2491.51 161.958 2509.99 170.467 2527.67 183.08V298.537C2509.99 311.17 2491.51 319.662 2471.82 319.662ZM2540.21 90.656C2536.11 90.656 2532.47 93.286 2531.21 97.165L2527.03 109.899C2502.83 94.496 2480.16 87.502 2454.5 87.502C2394.26 87.502 2359.28 130.495 2359.28 196.649V284.959C2359.28 351.121 2394.26 394.097 2454.5 394.097C2480.16 394.097 2503.45 387.114 2527.67 371.707V393.772C2527.67 418.156 2507.9 437.938 2483.51 437.938C2449.55 437.938 2414.6 434.584 2397.92 432.719C2396.63 432.578 2395.32 432.704 2394.08 433.089C2392.83 433.473 2391.68 434.108 2390.7 434.954C2389.71 435.8 2388.91 436.84 2388.34 438.009C2387.77 439.178 2387.45 440.451 2387.4 441.75L2385.26 494.68C2385.16 497.038 2385.95 499.347 2387.47 501.152C2388.99 502.957 2391.13 504.129 2393.47 504.437C2410.9 506.773 2451.71 511.75 2483.42 511.75C2552.8 511.75 2607.77 472.643 2607.77 396.93V100.118C2607.77 94.888 2603.51 90.658 2598.31 90.658H2540.21V90.656ZM248.434 294.496C248.264 292.674 247.494 290.932 246.156 289.595C244.521 287.932 242.246 286.995 239.856 286.995H176.796C172.575 286.995 168.987 289.857 168.269 293.785C168.044 295.014 167.461 297.722 167.427 297.899C163.217 317.897 145.486 332.898 124.236 332.898C99.866 332.898 80.093 313.139 80.093 288.74V206.107C80.093 181.715 99.866 161.957 124.236 161.957C143.312 161.957 159.51 174.058 165.682 191.001C166.555 193.915 167.293 196.867 167.894 199.849C168.048 200.607 168.221 201.355 168.362 202.124C168.808 204.572 170.442 206.507 172.583 207.693C173.87 208.401 175.296 208.907 176.875 208.907H239.857C241.452 208.907 242.978 208.461 244.319 207.693C244.977 207.311 245.612 206.878 246.148 206.33C246.885 205.591 247.469 204.712 247.864 203.746C248.26 202.78 248.46 201.744 248.453 200.7C248.453 200.536 248.443 199.986 248.434 199.861C247.247 125.771 192.771 87.502 124.15 87.502C123.986 87.502 123.828 87.519 123.663 87.519C54.522 87.698 0 126.782 0 202.315V291.903C0 367.609 54.959 406.716 124.32 406.716C148.347 406.716 170.56 401.946 189.408 392.664C201.628 386.651 212.46 378.78 221.358 368.949C237.015 351.642 246.824 328.456 248.288 299.543C248.334 298.953 248.469 294.899 248.434 294.497V294.496ZM1287.02 319.662C1265.55 319.662 1254.53 303.395 1254.53 273.6V207.997C1254.53 178.225 1265.55 161.958 1287.02 161.958C1306.66 161.958 1325.15 170.467 1342.82 183.08V298.537C1325.15 311.17 1306.66 319.662 1287.02 319.662ZM1355.37 90.656C1351.28 90.656 1347.63 93.286 1346.37 97.165L1342.19 109.899C1318 94.496 1295.31 87.502 1269.67 87.502C1209.44 87.502 1174.43 130.495 1174.43 196.649V284.959C1174.43 351.121 1209.44 394.097 1269.67 394.097C1295.31 394.097 1318.64 387.114 1342.82 371.707V393.772C1342.82 418.156 1323.06 437.938 1298.67 437.938C1264.72 437.938 1229.76 434.584 1213.07 432.719C1211.78 432.579 1210.47 432.705 1209.23 433.089C1207.99 433.473 1206.84 434.108 1205.85 434.954C1204.87 435.804 1204.07 436.847 1203.5 438.019C1202.94 439.19 1202.62 440.465 1202.56 441.765L1200.44 494.681C1200.23 499.575 1203.79 503.779 1208.64 504.437C1226.08 506.773 1266.86 511.75 1298.58 511.75C1367.97 511.75 1422.93 472.643 1422.93 396.93V100.118C1422.93 94.888 1418.69 90.658 1413.47 90.658H1355.37V90.656ZM1550.24 220.164V206.107C1550.24 181.717 1569.98 161.958 1594.38 161.958C1618.76 161.958 1638.54 181.717 1638.54 206.108V220.164H1550.24ZM1594.3 87.502C1524.9 87.502 1470.12 126.609 1470.12 202.317V291.905C1470.12 367.611 1525.1 406.716 1594.47 406.716C1626.19 406.716 1666.98 401.766 1684.44 399.42C1686.78 399.105 1688.91 397.929 1690.43 396.121C1691.94 394.314 1692.73 392.006 1692.63 389.65L1690.49 336.735C1690.43 335.434 1690.11 334.159 1689.54 332.987C1688.98 331.815 1688.18 330.77 1687.19 329.916C1685.22 328.258 1682.59 327.406 1680 327.7C1663.3 329.535 1628.35 332.9 1594.38 332.9C1569.99 332.9 1550.24 313.141 1550.24 288.747V282.622H1709.17C1714.39 282.622 1718.62 278.374 1718.62 273.136V202.317C1718.62 126.609 1663.68 87.502 1594.3 87.502ZM2029.99 288.742C2029.99 313.141 2010.23 332.9 1985.83 332.9C1961.46 332.9 1941.69 313.141 1941.69 288.743V206.107C1941.69 181.717 1961.46 161.958 1985.83 161.958C2010.23 161.958 2029.99 181.717 2029.99 206.108V288.743V288.742ZM1985.75 87.502C1916.38 87.502 1861.6 126.609 1861.6 202.317V291.905C1861.6 367.611 1916.56 406.718 1985.92 406.718C2055.3 406.718 2110.09 367.611 2110.09 291.905V202.317C2110.09 126.609 2055.13 87.502 1985.75 87.502ZM1738.74 361.905C1738.74 338.36 1757.78 318.758 1782.43 318.758C1807.65 318.758 1826.71 338.36 1826.71 361.905C1826.71 386.549 1809.9 407.85 1783.01 407.85C1757.78 407.85 1738.74 387.112 1738.74 361.905ZM951.457 403.565C956.671 403.565 960.902 399.329 960.902 394.097V183.077C978.592 170.465 997.068 161.958 1016.71 161.958C1038.17 161.958 1049.19 178.223 1049.19 207.995V394.097C1049.19 395.341 1049.44 396.572 1049.91 397.721C1050.39 398.87 1051.08 399.914 1051.96 400.794C1052.84 401.673 1053.89 402.37 1055.04 402.846C1056.19 403.321 1057.42 403.565 1058.66 403.564H1119.84C1125.07 403.564 1129.31 399.329 1129.31 394.097V196.647C1129.31 130.495 1094.29 87.502 1034.06 87.502C1008.42 87.502 985.098 94.494 960.902 109.896L957.231 97.45C956.652 95.4899 955.456 93.7694 953.82 92.5447C952.184 91.32 950.196 90.6568 948.152 90.654H890.263C885.035 90.654 880.824 94.886 880.824 100.115V394.097C880.824 399.329 885.034 403.564 890.264 403.564H951.457V403.565ZM442.688 87.08C417.057 87.08 393.718 94.072 369.526 109.477V9.479C369.526 4.246 365.292 0 360.063 0H298.905C293.679 0 289.443 4.246 289.443 9.48V393.676C289.443 398.908 293.679 403.143 298.905 403.143H360.063C365.293 403.143 369.526 398.908 369.526 393.676V182.656C387.211 170.046 405.687 161.537 425.34 161.537C446.794 161.537 457.83 177.802 457.83 207.576V393.676C457.83 398.908 462.066 403.143 467.293 403.143H528.463C533.679 403.143 537.925 398.908 537.925 393.676V196.226C537.925 130.074 502.934 87.08 442.688 87.08ZM750.304 384.304C723.854 397.89 707 406.715 676.2 406.715C617.18 406.715 578.887 365.304 578.887 310.988C578.887 249.938 629.425 213.042 687.876 213.042H750.304V202.95C750.304 173.912 730.439 158.81 707.294 158.81C676.537 158.81 642.833 170.028 626.909 176.1C625.701 176.559 624.413 176.767 623.122 176.712C621.831 176.656 620.565 176.338 619.401 175.776C618.24 175.209 617.207 174.412 616.365 173.433C615.523 172.454 614.888 171.314 614.501 170.082L599.419 121.8C597.967 117.133 600.299 112.14 604.829 110.237C621.941 103.151 663.587 87.503 698.262 87.503C787.18 87.503 830.396 123.771 830.396 208.631V394.098C830.396 399.33 826.163 403.565 820.934 403.565H763.466C761.468 403.564 759.522 402.931 757.905 401.758C756.288 400.585 755.083 398.931 754.462 397.032L750.304 384.306V384.304ZM750.304 272.349H699.208C674.801 272.349 659.65 287.616 659.65 305.609C659.65 323.992 673.216 334.799 697.103 334.799C723.211 334.799 740.557 322.515 750.303 312.399V272.349H750.304Z" fill="white"/>
</svg>
