<?xml version="1.0" encoding="UTF-8"?>
<svg width="583px" height="833px" viewBox="0 0 583 833" version="1.1" xmlns="http://www.w3.org/2000/svg" xmlns:xlink="http://www.w3.org/1999/xlink">
    <!-- Generator: Sketch 54.1 (76490) - https://sketchapp.com -->
    <title>Screenshot 2023-10-02 at 2.32.59 PM</title>
    <desc>Created with Sketch.</desc>
    <g id="logos" stroke="none" stroke-width="1" fill="none" fill-rule="evenodd">
        <g id="Screenshot-2023-10-02-at-2.32.59-PM" fill="#FFFFFF" fill-rule="nonzero">
            <path d="M155.2,798.88 C65.18,751.25 6.8,659.33 1.2,557.68 C0.933333333,552.86 0.796666667,546.193333 0.79,537.68 C0.736666667,458.706667 0.726666667,379.733333 0.76,300.76 C0.766666667,291.346667 0.843333333,284.68 0.99,280.76 C4.67,184.32 54.51,97.56 135.93,45.67 C213.17,-3.56 310.53,-12.98 395.94,19.8 C508.86,63.15 582.16,171.17 582.22,292.06 C582.26,373.373333 582.27,454.686667 582.25,536 C582.243333,544.98 582.14,551.643333 581.94,555.99 C572.03,768.04 343.63,898.57 155.2,798.88 Z M49.16,330.49 C72.67,446.53 171.18,530.43 283,556.83 C288.613333,558.156667 294.213333,558.16 299.8,556.84 C384.17,536.97 459.37,485.83 503.57,410.44 C534.07,358.43 546.08,295.96 535.35,236.44 C523.16,168.86 481.48,105.21 418.44,75.81 C381.29,58.5 339.3,55.51 299.68,68.32 C295.27,69.74 291.47,70.71 286.78,69.21 C245.03,55.8 203.52,57.69 164.01,76.25 C117.98,97.86 82.83,138.2 63.21,184.89 C43.6233333,231.51 38.94,280.043333 49.16,330.49 Z M80.6251,507.7901 C80.630117,504.917804 79.4939111,502.161157 77.4664356,500.126593 C75.4389601,498.092029 72.6862959,496.946208 69.814,496.9412 L68.494,496.9389 C65.6217041,496.933883 62.8650574,498.070089 60.8304931,500.097564 C58.7959287,502.12504 57.6501082,504.877704 57.6451,507.75 L57.6149,525.0299 C57.609883,527.902196 58.7460889,530.658843 60.7735644,532.693407 C62.8010399,534.727971 65.5537041,535.873792 68.426,535.8788 L69.746,535.8811 C72.6182959,535.886117 75.3749426,534.749911 77.4095069,532.722436 C79.4440713,530.69496 80.5898918,527.942296 80.5949,525.07 L80.6251,507.7901 Z M525.3847,507.6601 C525.374326,501.717551 520.548549,496.908563 514.606,496.9189 L513.326,496.9211 C510.472269,496.926082 507.737399,498.064502 505.723033,500.08592 C503.708666,502.107338 502.57981,504.846169 502.5848,507.6999 L502.6153,525.1599 C502.625674,531.102449 507.451451,535.911437 513.394,535.9011 L514.674,535.8989 C517.527731,535.893918 520.262601,534.755498 522.276967,532.73408 C524.291334,530.712662 525.42019,527.973831 525.4152,525.1201 L525.3847,507.6601 Z M80.5446,581.93 C80.5195139,579.055158 79.3534271,576.308028 77.3028661,574.292949 C75.2523051,572.27787 72.4852417,571.159907 69.6104,571.185 L68.2905,571.1965 C65.4156583,571.221586 62.6685284,572.387673 60.6534493,574.438234 C58.6383701,576.488795 57.5204071,579.255858 57.5455,582.1307 L57.6954,599.31 C57.7204861,602.184842 58.8865729,604.931972 60.9371339,606.947051 C62.9876949,608.96213 65.7547583,610.080093 68.6296,610.055 L69.9495,610.0435 C72.8243417,610.018414 75.5714716,608.852327 77.5865507,606.801766 C79.6016299,604.751205 80.7195929,601.984142 80.6945,599.1093 L80.5446,581.93 Z M525.3495,581.8703 C525.32877,575.933302 520.499098,571.137208 514.5621,571.1579 L513.2821,571.1624 C507.345102,571.18313 502.549008,576.012802 502.5697,581.9498 L502.6305,599.3697 C502.65123,605.306698 507.480902,610.102792 513.4179,610.0821 L514.6979,610.0776 C520.634898,610.05687 525.430992,605.227198 525.4103,599.2902 L525.3495,581.8703 Z M154.62,618.76 C154.62,612.828462 149.811538,608.02 143.88,608.02 L142.62,608.02 C136.688462,608.02 131.88,612.828462 131.88,618.76 L131.88,636.4 C131.88,642.331538 136.688462,647.14 142.62,647.14 L143.88,647.14 C149.811538,647.14 154.62,642.331538 154.62,636.4 L154.62,618.76 Z M302.88,618.85 C302.88,615.988314 301.7432,613.243835 299.719682,611.220318 C297.696165,609.1968 294.951686,608.06 292.09,608.06 L290.79,608.06 C287.928314,608.06 285.183835,609.1968 283.160318,611.220318 C281.1368,613.243835 280,615.988314 280,618.85 L280,636.31 C280,639.171686 281.1368,641.916165 283.160318,643.939682 C285.183835,645.9632 287.928314,647.1 290.79,647.1 L292.09,647.1 C294.951686,647.1 297.696165,645.9632 299.719682,643.939682 C301.7432,641.916165 302.88,639.171686 302.88,636.31 L302.88,618.85 Z M451.3298,618.9799 C451.308905,612.998719 446.443281,608.166942 440.4621,608.1878 L439.1421,608.1924 C436.2698,608.202408 433.519119,609.353031 431.495186,611.391143 C429.471252,613.429255 428.339857,616.1879 428.3499,619.0602 L428.4102,636.3201 C428.431095,642.301281 433.296719,647.133058 439.2779,647.1122 L440.5979,647.1076 C443.4702,647.097592 446.220881,645.946969 448.244814,643.908857 C450.268748,641.870745 451.400143,639.1121 451.3901,636.2398 L451.3298,618.9799 Z M228.8449,656.17 C228.834471,650.20536 223.99074,645.378508 218.0261,645.3889 L216.7061,645.3912 C210.74146,645.401629 205.914608,650.24536 205.925,656.21 L205.9551,673.47 C205.965529,679.43464 210.80926,684.261492 216.7739,684.2511 L218.0939,684.2488 C224.05854,684.238371 228.885392,679.39464 228.875,673.43 L228.8449,656.17 Z M376.93,655.99 C376.93,650.097122 372.152878,645.32 366.26,645.32 L365,645.32 C359.107122,645.32 354.33,650.097122 354.33,655.99 L354.33,673.65 C354.33,676.47986 355.454157,679.193816 357.455171,681.194829 C359.456184,683.195843 362.17014,684.32 365,684.32 L366.26,684.32 C369.08986,684.32 371.803816,683.195843 373.804829,681.194829 C375.805843,679.193816 376.93,676.47986 376.93,673.65 L376.93,655.99 Z M154.6295,693.1003 C154.619572,690.249217 153.477453,687.518854 151.4544,685.509866 C149.431348,683.500879 146.693083,682.377837 143.842,682.3878 L142.542,682.3924 C136.605002,682.41313 131.808908,687.242802 131.8296,693.1798 L131.8905,710.6397 C131.900428,713.490783 133.042547,716.221146 135.0656,718.230134 C137.088652,720.239121 139.826917,721.362163 142.678,721.3522 L143.978,721.3476 C149.914998,721.32687 154.711092,716.497198 154.6904,710.5602 L154.6295,693.1003 Z M302.92,693.23 C302.92,687.254279 298.075721,682.41 292.1,682.41 L290.78,682.41 C284.804279,682.41 279.96,687.254279 279.96,693.23 L279.96,710.51 C279.96,716.485721 284.804279,721.33 290.78,721.33 L292.1,721.33 C298.075721,721.33 302.92,716.485721 302.92,710.51 L302.92,693.23 Z M451.3247,693.1999 C451.293357,687.218779 446.419322,682.395514 440.4382,682.4268 L439.0982,682.4338 C433.117039,682.465088 428.293714,687.339139 428.325,693.3203 L428.4153,710.5601 C428.446643,716.541221 433.320678,721.364486 439.3018,721.3332 L440.6418,721.3262 C446.622961,721.294912 451.446286,716.420861 451.415,710.4397 L451.3247,693.1999 Z M228.8447,730.22 C228.813412,724.249924 223.948376,719.435569 217.9783,719.4668 L216.6383,719.4738 C210.668185,719.505033 205.853769,724.370085 205.885,730.3402 L205.9753,747.58 C206.006588,753.550076 210.871624,758.364431 216.8417,758.3332 L218.1817,758.3262 C224.151815,758.294967 228.966231,753.429915 228.935,747.4598 L228.8447,730.22 Z M376.9708,730.1095 C376.991326,724.216685 372.230915,719.422964 366.3381,719.4024 L365.0581,719.3979 C362.228252,719.388017 359.510382,720.502693 357.502391,722.496712 C355.494401,724.490731 354.360775,727.200752 354.3509,730.0306 L354.2892,747.6905 C354.268674,753.583315 359.029085,758.377036 364.9219,758.3976 L366.2019,758.4021 C369.031748,758.411983 371.749618,757.297307 373.757609,755.303288 C375.765599,753.309269 376.899225,750.599248 376.9091,747.7694 L376.9708,730.1095 Z" id="Shape"></path>
            <path d="M286.75,533.91 C185.1,509.35 95.45,434.21 72.26,329 C59.21,269.81 70.35,207.58 104.41,157.19 C136,110.47 187.54,79.06 245.25,83.99 C255.51,84.87 266.28,86.94 277.56,90.2 C287.52,93.09 294.19,93.81 303.41,90.96 C317.12,86.72 331.68,83.95 344.31,83.56 C428.62,80.99 491.16,150.47 509.72,226.77 C526.74,296.76 508.75,369.77 465.21,426.47 C423.45,480.84 363.4,517.38 297,533.75 C293.33,534.66 290.6,534.84 286.75,533.91 Z M291.24,440.6 C280.033333,393.353333 268.883333,346.066667 257.79,298.74 C253.16,278.98 248.12,260.09 238.09,242.93 C223.73,218.36 200.07,203.03 171.44,203.85 C136.51,204.86 114.03,238.52 129.94,270.56 C143.63,298.13 169.57,316.45 200.66,318.16 C203.393333,318.313333 205.583333,318.06 207.23,317.4 C216.27,313.8 217.28,300.95 208.45,296.62 C207.103333,295.96 204.233333,295.393333 199.84,294.92 C180.9,292.9 165.986667,283.91 155.1,267.95 C151.793333,263.096667 149.686667,259.013333 148.78,255.7 C144.39,239.58 156.17,227.59 171.51,227.08 C210.92,225.75 225.86,263.67 233.22,295.01 C247.186667,354.49 261.19,413.966667 275.23,473.44 C276.34,478.18 277.9,481.38 281.4,484.29 C288.52,490.24 299.93,488.36 304.78,480.85 C306.18,478.69 307.736667,473.97 309.45,466.69 C322.85,409.823333 336.206667,352.946667 349.52,296.06 C357.21,263.2 372.69,224.1 414.3,227.22 C421.386667,227.746667 426.886667,230.743333 430.8,236.21 C437.79,245.98 435.73,255.59 429.59,265.65 C418.63,283.623333 402.183333,293.503333 380.25,295.29 C377.643333,295.496667 375.706667,295.956667 374.44,296.67 C366.45,301.14 366.54,312.55 374.59,316.79 C376.696667,317.903333 379.57,318.353333 383.21,318.14 C411.36,316.48 435.66,300.5 449.93,276.68 C456.1,266.39 459.53,255.44 457.95,243.7 C454.55,218.3 433.19,203.27 408.52,203.84 C361.23,204.95 337.91,245.04 328.36,285.67 C316.193333,337.37 304.03,389.013333 291.87,440.6 C291.842708,440.752573 291.709995,440.863653 291.555,440.863653 C291.400005,440.863653 291.267292,440.752573 291.24,440.6 Z" id="Shape"></path>
        </g>
    </g>
</svg>