<?xml version="1.0" encoding="UTF-8"?>
<svg width="152px" height="115px" viewBox="0 0 152 115" version="1.1" xmlns="http://www.w3.org/2000/svg" xmlns:xlink="http://www.w3.org/1999/xlink">
    <!-- Generator: Sketch 54.1 (76490) - https://sketchapp.com -->
    <title>Screenshot 2023-10-26 at 10.47.37 AM</title>
    <desc>Created with Sketch.</desc>
    <g id="logos" stroke="none" stroke-width="1" fill="none" fill-rule="evenodd">
        <g id="Screenshot-2023-10-26-at-10.47.37-AM" transform="translate(0.000000, -1.000000)" fill-rule="nonzero">
            <path d="M18.53,66.85 C13.6566667,66.8566667 8.78666667,66.86 3.92,66.86 C0.74,66.86 -1.18,63.59 1.2,61.18 C7.41333333,54.9066667 13.61,48.6133333 19.79,42.3 C20.7,41.37 21.21,40.83 21.68,39.53 C34.05,5.81 73.14,-9.57 104.76,8.81 C119.906667,17.6166667 129.276667,31.2 132.87,49.56 C132.936667,49.9 133.143333,50.0733333 133.49,50.08 C137.963333,50.14 142.373333,50.1533333 146.72,50.12 C149.04,50.11 151.92,50.42 151.88,53.32 C151.866667,54.22 151.576667,54.9533333 151.01,55.52 C144.883333,61.6466667 138.753333,67.7633333 132.62,73.87 C131.76,74.72 131,75.89 130.55,77.15 C119,109.55 82.36,125.5 50.96,110.09 C35.78,102.64 23.47,88.18 20.09,70.77 C19.8633333,69.6233333 19.5766667,68.49 19.23,67.37 C19.1233333,67.0233333 18.89,66.85 18.53,66.85 Z M100.28,54.12 L84.97,54.05 C83.75,54.05 83.57,54.48 84.43,55.34 L114.03,85 C114.447491,85.4157265 115.122509,85.4157265 115.54,85 L145.06,55.52 C145.98,54.5933333 145.79,54.1333333 144.49,54.14 L130.02,54.17 C129.42,54.17 129.08,53.87 129,53.27 C126.826667,36.67 119.273333,23.8533333 106.34,14.82 C80.67,-3.12 46.26,4.75 30.15,31.01 C30.0587721,31.1783053 30.1031913,31.3879409 30.2548386,31.5047839 C30.4064859,31.6216269 30.6205184,31.6111262 30.76,31.48 L35.68,26.16 C36.5733333,25.1933333 37.4866667,25.1766667 38.42,26.11 L54.87,42.65 C55.15,42.9366667 55.4433333,42.95 55.75,42.69 C57.85,40.9 59.82,38.65 61.89,37.34 C76.97,27.83 97.69,35.31 100.72,53.61 C100.773333,53.95 100.626667,54.12 100.28,54.12 Z M77.73,52.77 C78.1,50.49 79.98,49.98 82.02,50.1 C83.9533333,50.22 88.2433333,50.2133333 94.89,50.08 C95.19,50.0733333 95.2733333,49.9333333 95.14,49.66 C87.81,34.95 68.91,32.94 58.93,46.18 C58.7433333,46.42 58.7566667,46.6466667 58.97,46.86 C63.5966667,51.54 68.2466667,56.2 72.92,60.84 C75.75,63.65 74.05,66.82 70.21,66.83 C65.99,66.85 61.6566667,66.87 57.21,66.89 C56.8833333,66.89 56.7933333,67.0366667 56.94,67.33 C64.3,81.94 83,83.85 93.02,70.77 C93.1933333,70.55 93.1833333,70.3366667 92.99,70.13 C88.17,65.1366667 83.3233333,60.1933333 78.45,55.3 C77.8033333,54.66 77.5633333,53.8166667 77.73,52.77 Z" id="Shape" fill="#000000"></path>
            <path d="M100.72,53.61 C97.69,35.31 76.97,27.83 61.89,37.34 C59.82,38.65 57.85,40.9 55.75,42.69 C55.4433333,42.95 55.15,42.9366667 54.87,42.65 L38.42,26.11 C37.4866667,25.1766667 36.5733333,25.1933333 35.68,26.16 L30.76,31.48 C30.6205184,31.6111262 30.4064859,31.6216269 30.2548386,31.5047839 C30.1031913,31.3879409 30.0587721,31.1783053 30.15,31.01 C46.26,4.75 80.67,-3.12 106.34,14.82 C119.273333,23.8533333 126.826667,36.67 129,53.27 C129.08,53.87 129.42,54.17 130.02,54.17 L144.49,54.14 C145.79,54.1333333 145.98,54.5933333 145.06,55.52 L115.54,85 C115.122509,85.4157265 114.447491,85.4157265 114.03,85 L84.43,55.34 C83.57,54.48 83.75,54.05 84.97,54.05 L100.28,54.12 C100.626667,54.12 100.773333,53.95 100.72,53.61 Z" id="Path" fill="#265DB2"></path>
        </g>
    </g>
</svg>