<?xml version="1.0" encoding="UTF-8"?>
<svg width="202px" height="273px" viewBox="0 0 202 273" version="1.1" xmlns="http://www.w3.org/2000/svg" xmlns:xlink="http://www.w3.org/1999/xlink">
    <!-- Generator: Sketch 54.1 (76490) - https://sketchapp.com -->
    <title>huntress-logo copy</title>
    <desc>Created with Sketch.</desc>
    <g id="logos" stroke="none" stroke-width="1" fill="none" fill-rule="evenodd">
        <g id="huntress-logo-copy" fill="#FFFFFF" fill-rule="nonzero">
            <path d="M147.16,124.12 C156.09,130.97 168.48,131.96 179.57,131.57 C179.903333,131.563333 180.063333,131.726667 180.05,132.06 C179.13,149.8 180.51,165.15 189.42,180.74 C189.483812,180.829044 189.468456,180.952182 189.384729,181.022827 C189.301002,181.093472 189.177036,181.087887 189.1,181.01 C177.74,171.8 173.22,158.5 174.07,143.93 C174.09,143.53 173.903333,143.353333 173.51,143.4 C160.03,145.02 144.17,141.1 136.49,129.03 C136.36678,128.835612 136.14028,128.732472 135.912755,128.767142 C135.68523,128.801813 135.49973,128.967734 135.44,129.19 C130.15,147.91 137.22,167.18 148.92,181.84 C149.117236,182.085529 149.133359,182.432178 148.96,182.7 C141.946667,193.533333 139.91,204.993333 142.85,217.08 C143.003333,217.713333 144.143333,220.876667 146.27,226.57 C151.83,241.45 149.49,258.2 142.92,272.4 C142.895336,272.443397 142.844243,272.467323 142.796587,272.457792 C142.748932,272.448261 142.717224,272.407774 142.72,272.36 C143.38,236.72 104.23,215.84 73.97,210.01 C73.8131992,209.975413 73.6950611,209.846002 73.6748687,209.686707 C73.6546763,209.527411 73.7367883,209.372617 73.88,209.3 C88.88,202.14 101.21,191.44 108.2,176.11 C108.413333,175.643333 108.643333,175.636667 108.89,176.09 C114.03,185.623333 121.76,192.153333 132.08,195.68 C132.282575,195.754172 132.506826,195.673061 132.616091,195.486097 C132.725355,195.299133 132.689343,195.058147 132.53,194.91 C117.376667,181.33 109.29,164.29 108.27,143.79 C108.257081,143.583444 108.101959,143.413812 107.897379,143.382524 C107.692798,143.351235 107.494066,143.466748 107.42,143.66 C104.67,151.13 103.76,158.52 105.49,166.06 C105.93,167.966667 105.56,169.906667 104.38,171.88 C95.63,186.56 83.6,199.35 66.27,201.79 C66.0400347,201.82102 65.8072928,201.757793 65.6246332,201.614679 C65.4419737,201.471564 65.3248996,201.260708 65.3,201.03 C64.6666667,194.236667 66.9566667,188.623333 72.17,184.19 C78.0633333,179.17 83.22,173.483333 87.64,167.13 C87.7266667,167.003333 87.76,166.876667 87.74,166.75 C87.7,166.543333 87.61,166.52 87.47,166.68 C75.58,180.48 63.99,189.25 45.66,192.49 C45.507371,192.51604 45.3509365,192.47772 45.229116,192.384451 C45.1072954,192.291182 45.0313749,192.151606 45.02,192 C44.21,181.92 51.32,176.34 59.11,171.9 C68.43,166.58 76.32,162.46 83.41,155.52 C83.49,155.446667 83.4866667,155.383333 83.4,155.33 C83.3733333,155.316667 83.35,155.303333 83.33,155.29 C83.2766667,155.27 83.23,155.276667 83.19,155.31 C68.87,166.88 50.19,176.38 31.4,176.2 C30.48,176.186667 30.19,175.756667 30.53,174.91 C35.37,162.79 46.76,156.1 59.29,152.24 C66.5033333,150.013333 73.5466667,147.32 80.42,144.16 C80.7066667,144.026667 80.86,143.863333 80.88,143.67 C80.9133333,143.396667 80.8,143.31 80.54,143.41 C57.31,152.98 27.98,156.26 3.7,148.19 C3.58171519,148.151771 3.49258297,148.053671 3.46583446,147.932274 C3.43908595,147.810877 3.47873527,147.684401 3.57,147.6 C15.77,135.95 30.82,128.46 48.34,129.84 C58.57,130.65 68.64,130.76 78.51,127.53 C78.67,127.476667 78.7333333,127.413333 78.7,127.34 C78.6533333,127.233333 78.57,127.19 78.45,127.21 C51.02,132.09 16.89,128.37 0.55,102.32 C0.452811641,102.161927 0.427816519,101.969852 0.481312266,101.792169 C0.534808013,101.614487 0.661693732,101.46814 0.83,101.39 C15.49,94.6 28.1,97.02 43.42,101.37 C52.1866667,103.863333 61.0633333,105.913333 70.05,107.52 C70.83,107.66 72.0433333,107.52 73.69,107.1 C73.91,107.046667 73.91,107.003333 73.69,106.97 C40.35,102.37 14.47,87.58 5.61,52.95 C5.47666667,52.4233333 5.68,52.1766667 6.22,52.21 C17.39,52.8 28.38,55.16 37.17,61.33 C40.3833333,63.5833333 47.0666667,68.4766667 57.22,76.01 C57.2594345,76.0353923 57.3079764,76.0422347 57.3511737,76.0284901 C57.394371,76.0147455 57.4272419,75.981999 57.44,75.94 C57.4666667,75.8533333 57.4933333,75.7666667 57.52,75.68 C57.5466667,75.6 57.53,75.53 57.47,75.47 C32.92,54.74 30.89,26.97 47.73,0.47 C47.7959845,0.347613617 47.9420815,0.297702475 48.0698198,0.353907316 C48.1975581,0.410112157 48.2664236,0.554606791 48.23,0.69 C36.03,55.47 115.34,55.72 112.09,108.75 C111.73,114.623333 110.986667,119.473333 109.86,123.3 C108.486667,127.946667 108.886667,128.103333 111.06,123.77 C120.75,104.41 116.04,82.2 106.33,64.04 C106.219404,63.8472782 106.255537,63.6038416 106.417344,63.4515529 C106.579151,63.2992643 106.824329,63.2779372 107.01,63.4 C118.83,70.62 128.16,79.73 132.78,93.03 C132.835468,93.1805093 132.983824,93.2761629 133.143809,93.2645697 C133.303795,93.2529765 133.43681,93.1369339 133.47,92.98 C134.83,85.4 134.513333,77.9133333 132.52,70.52 C132.366667,69.94 132.533333,69.8266667 133.02,70.18 C143.22,77.57 149.33,88.23 154.15,99.6 C154.232226,99.791981 154.433466,99.9044759 154.640073,99.8739545 C154.846679,99.843433 155.006797,99.6775559 155.03,99.47 L156.77,84.98 C156.779966,84.9034944 156.835205,84.840611 156.909789,84.8208683 C156.984372,84.8011257 157.063489,84.8284442 157.11,84.89 C166.57,97.3766667 173.336667,111.183333 177.41,126.31 C177.495117,126.629491 177.424777,126.970412 177.220156,127.230123 C177.015535,127.489834 176.700538,127.637995 176.37,127.63 C166.583333,127.436667 156.986667,125.983333 147.58,123.27 C145.94,122.796667 145.8,123.08 147.16,124.12 Z" id="Path"></path>
            <path d="M124.92,57.28 L126.39,62.16 C126.437402,62.3208566 126.395508,62.4947838 126.280062,62.6164144 C126.164616,62.7380451 125.993109,62.7889509 125.83,62.75 C122.096667,61.8366667 118.353333,61.1266667 114.6,60.62 C108.74,59.83 102.75,55.97 97.54,53.21 C97.394127,53.1370408 97.2162296,53.1662916 97.1029744,53.2818581 C96.9897193,53.3974246 96.9681553,53.5717057 97.05,53.71 L100.09,59.09 C100.218615,59.3201602 100.218753,59.6005357 100.090363,59.8308219 C99.9619734,60.061108 99.7234027,60.2083985 99.46,60.22 C97.16,60.31 95.27,60.64 93.18,59.36 C88.2333333,56.3 83.3033333,53.1833333 78.39,50.01 C78.2473792,49.9220308 78.1726445,49.7561257 78.201263,49.5910189 C78.2298815,49.4259122 78.3560927,49.2948376 78.52,49.26 C108.406667,41.9866667 135.47,46.5766667 159.71,63.03 C196.54,88.03 210.58,134.33 196.29,176.07 C196.224775,176.270268 196.041043,176.408187 195.830529,176.414906 C195.620014,176.421624 195.427863,176.295701 195.35,176.1 C192.656667,169.693333 190.626667,163.133333 189.26,156.42 C188.07,150.58 187.88,143.83 187.47,137.34 C186.25,118.23 178.46,100.63 165.6,86.63 C160.88,81.48 157.71,74.65 153.89,68.79 C153.795799,68.6373923 153.607727,68.5714194 153.438835,68.6317381 C153.269943,68.6920567 153.166214,68.8622443 153.19,69.04 L153.75,74.99 C153.769555,75.171788 153.681911,75.3484185 153.525319,75.4428025 C153.368728,75.5371865 153.171611,75.5321925 153.02,75.43 C148.286667,72.2433333 143.293333,69.3966667 138.04,66.89 C133.14,64.56 129.4,60.49 125.44,56.94 C125.332267,56.8397736 125.170071,56.8259336 125.046915,56.9064586 C124.923759,56.9869836 124.871391,57.1411158 124.92,57.28 L124.92,57.28 Z" id="Path"></path>
            <path d="M21.42,88.42 L28.05,94.01 C28.1581201,94.0964224 28.1958464,94.2440505 28.1424449,94.3717497 C28.0890434,94.4994489 27.9574554,94.5762728 27.82,94.56 L19.19,93.64 C19.0926418,93.6289397 19.006244,93.5725019 18.956995,93.4877936 C18.907746,93.4030853 18.9014443,93.30008 18.94,93.21 L20.94,88.54 C20.97802,88.4505273 21.0558103,88.3840717 21.1501234,88.3604934 C21.2444364,88.3369151 21.3443481,88.3589452 21.42,88.42 L21.42,88.42 Z" id="Path"></path>
            <path d="M7.27,136.17 L9.34,120.88 C9.35417268,120.770695 9.42045148,120.675042 9.51781409,120.62338 C9.6151767,120.571719 9.73154154,120.570459 9.83,120.62 L23.62,127.55 C23.7318061,127.607221 23.8029601,127.721419 23.8050531,127.846999 C23.8071461,127.97258 23.7398372,128.089085 23.63,128.15 L7.76,136.52 C7.64715996,136.576949 7.51204196,136.566602 7.40918889,136.493136 C7.30633583,136.419669 7.252726,136.295211 7.27,136.17 Z" id="Path"></path>
            <path d="M169.72,209.8 C171.693333,210.973333 172.723333,212.693333 172.81,214.96 C172.833812,215.453758 172.503561,215.89688 172.02,216.02 C163.97,218.06 164.76,225.2 165.13,231.66 C165.45,237.41 161.79,240.8 156.56,242.72 C156.312069,242.811192 156.035252,242.774212 155.81824,242.620911 C155.601229,242.467609 155.471269,242.217232 155.47,241.95 C155.483333,235.896667 154.373333,229.993333 152.14,224.24 C150.206667,219.26 149.11,216.203333 148.85,215.07 C146.183333,203.196667 148.786667,192.43 156.66,182.77 C156.95122,182.417852 156.947001,181.907286 156.65,181.56 C147.14,170.18 140.16,157.83 139.71,142.62 C139.703941,142.470037 139.782338,142.329302 139.913036,142.255521 C140.043734,142.18174 140.204735,142.187331 140.33,142.27 C148.49,147.62 158.44,149.07 167.93,149.77 C168.154042,149.789506 168.35395,149.918519 168.464015,150.114634 C168.57408,150.31075 168.580064,150.548598 168.48,150.75 C167.373333,152.936667 166.803333,155.27 166.77,157.75 C166.768857,157.92899 166.858136,158.096465 167.007378,158.195287 C167.156619,158.294109 167.345658,158.310926 167.51,158.24 L170.27,157.02 C170.421404,156.952307 170.597087,156.971145 170.732445,157.069588 C170.867803,157.16803 170.942854,157.331544 170.93,157.5 L170.68,160.07 C170.646667,160.39 170.473333,160.59 170.16,160.67 L167.5,161.33 C167.173333,161.41 167.036667,161.62 167.09,161.96 C168.73,171.42 173.306667,179.063333 180.82,184.89 C181.077932,185.095056 181.185137,185.432556 181.09,185.74 C180.263333,188.326667 178.91,190.456667 177.03,192.13 C175.69,193.32 173.65,193.53 172.01,194.67 C171.725706,194.864343 171.646163,195.248802 171.83,195.54 C173.07,197.473333 174.47,199.203333 176.03,200.73 C180.32,204.93 172.84,207.85 169.88,208.64 C169.636273,208.709727 169.456674,208.91674 169.422035,209.167867 C169.387397,209.418994 169.50425,209.666897 169.72,209.8 Z" id="Path"></path>
            <path d="M100.13,226.18 C105.58,226.45 117.49,233.52 121.51,238.41 C121.81,238.776667 121.726667,238.996667 121.26,239.07 C66.13,247.71 15.2,211.35 7.86,155.89 C7.82,155.596667 7.94666667,155.476667 8.24,155.53 L21.9,157.97 C22.2533333,158.03 22.4666667,158.236667 22.54,158.59 C30.37,196.36 61.3,224.27 100.13,226.18 Z" id="Path"></path>
        </g>
    </g>
</svg>