<?xml version="1.0" encoding="UTF-8"?>
<svg width="242px" height="206px" viewBox="0 0 242 206" version="1.1" xmlns="http://www.w3.org/2000/svg" xmlns:xlink="http://www.w3.org/1999/xlink">
    <!-- Generator: Sketch 54.1 (76490) - https://sketchapp.com -->
    <title>logo</title>
    <desc>Created with Sketch.</desc>
    <g id="logos" stroke="none" stroke-width="1" fill="none" fill-rule="evenodd">
        <g id="logo" fill="#23B3E7" fill-rule="nonzero">
            <path d="M99.2,131.9 C99.2,142.3 90.7,150.8 80.3,150.8 C69.9,150.8 61.4,142.3 61.4,131.9 C61.4,121.5 69.9,113 80.3,113 C90.7,113 99.2,121.5 99.2,131.9 Z M161.1,113 C150.7,113 142.2,121.5 142.2,131.9 C142.2,142.3 150.7,150.8 161.1,150.8 C171.5,150.8 180,142.3 180,131.9 C180,121.5 171.6,113 161.1,113 Z M241.5,131.9 C241.5,139.4 237.1,145.9 230.8,148.9 L230.8,167.2 C230.8,182.6 218.3,195 203,195 L141,195 C138.3,201.3 132,205.8 124.7,205.8 L117,205.8 C109.7,205.8 103.4,201.4 100.7,195 L38.7,195 C23.3,195 10.9,182.5 10.9,167.2 L10.9,149 C4.6,146 0.2,139.5 0.2,132 C0.2,124.5 4.6,118 10.9,115 L10.9,96.7 C10.9,81.3 23.4,68.9 38.7,68.9 L110.9,68.9 L110.9,36.8 C104.9,33.3 101.2,26.9 101.2,19.8 C101.2,9 110,0.1 120.9,0.1 C131.8,0.1 140.6,8.9 140.6,19.8 C140.6,26.9 136.9,33.2 130.9,36.8 L130.9,68.7 L203.1,68.7 C218.5,68.7 230.9,81.2 230.9,96.5 L230.9,114.8 C237.1,117.9 241.5,124.4 241.5,131.9 Z M214.1,96.5 C214.1,90.3 209.1,85.3 202.9,85.3 L38.6,85.3 C32.4,85.3 27.4,90.3 27.4,96.5 L27.4,115 L27.4,148.7 L27.4,167.2 C27.4,173.4 32.4,178.4 38.6,178.4 L202.9,178.4 C209.1,178.4 214.1,173.4 214.1,167.2 L214.1,148.7 L214.1,115 L214.1,96.5 Z" id="Shape"></path>
        </g>
    </g>
</svg>