<svg width="88" height="86" viewBox="0 0 88 86" fill="none" xmlns="http://www.w3.org/2000/svg">
<path d="M62.02 12.02L58.79 20.8L23.75 20.75C21.75 20.75 20.75 21.75 20.75 23.75V45.56C20.4167 45.34 20.2167 45.0667 20.15 44.74C20.13 44.6533 20.09 44.64 20.03 44.7C19.9167 44.8067 19.8733 44.9267 19.9 45.06C20.0133 45.6733 20.0467 45.9867 20 46C19.8 46.0533 19.6267 46.1367 19.48 46.25C19.4629 46.2645 19.4432 46.2754 19.4219 46.2823C19.4006 46.2891 19.3781 46.2917 19.3558 46.2898C19.3335 46.288 19.3118 46.2817 19.292 46.2715C19.2721 46.2612 19.2544 46.2471 19.24 46.23C19.1733 46.15 19.1367 46.0667 19.13 45.98C19.1275 45.9604 19.1197 45.9418 19.1075 45.9263C19.0953 45.9107 19.0792 45.8987 19.0608 45.8916C19.0424 45.8844 19.0223 45.8823 19.0029 45.8856C18.9834 45.8888 18.9651 45.8973 18.95 45.91L13.52 50.66C13.3 50.8533 13.17 51.0967 13.13 51.39C13.09 51.6633 12.94 51.8767 12.68 52.03C12.6133 52.07 12.5567 52.06 12.51 52C12.45 51.9267 12.4067 51.8467 12.38 51.76C12.38 51.7533 12.38 51.7533 12.38 51.76C12.3667 51.9667 12.24 52.0567 12 52.03C11.9467 42.45 11.9567 32.8567 12.03 23.25C12.0633 18.3567 13.9733 15.04 17.76 13.3C19.62 12.4467 23.01 12.0167 27.93 12.01C39.1033 11.9833 50.4667 11.9867 62.02 12.02Z" fill="#71E1CA"/>
<path d="M62.02 12.02L66.96 12.12C67.32 15.3467 67.4033 18.0567 67.21 20.25C67.19 20.4967 66.9633 20.71 66.53 20.89L58.79 20.8L62.02 12.02Z" fill="#75D8AE"/>
<path d="M66.96 12.12C72.9333 13.2733 75.9333 16.48 75.96 21.74C76.04 40.7933 76.0467 53.4633 75.98 59.75C75.9667 61.5967 75.1133 63.0667 73.42 64.16C70.1067 66.3 67.15 65.8967 64.55 62.95C60.3433 58.19 56.44 53.3267 52.84 48.36C52.46 47.8467 52.29 47.91 52.33 48.55C52.75 56.43 55.53 74.76 43.54 75.93L43.01 67.11C43.0767 58.33 43.1733 49.6733 43.3 41.14C43.3667 36.82 45.5133 34.4667 49.74 34.08C53.1 33.78 54.84 36.27 56.93 38.82C60.1967 42.8133 63.3133 46.7033 66.28 50.49C66.78 51.13 67.0333 51.0433 67.04 50.23C67.0533 40.7433 67.05 31.1667 67.03 21.5C67.03 21.2267 66.8633 21.0233 66.53 20.89C66.9633 20.71 67.19 20.4967 67.21 20.25C67.4033 18.0567 67.32 15.3467 66.96 12.12Z" fill="#8DF36D"/>
<path d="M20.75 45.56L20.85 64.82C20.8553 65.4265 21.0989 66.0064 21.5278 66.4334C21.9567 66.8604 22.5361 67.1 23.14 67.1L43.01 67.11L43.54 75.93C33.3933 76.1567 26.46 76.1767 22.74 75.99C10.07 75.34 11.71 62.12 12 52.03C12.24 52.0567 12.3667 51.9667 12.38 51.76C12.38 51.7533 12.38 51.7533 12.38 51.76C12.4067 51.8467 12.45 51.9267 12.51 52C12.5567 52.06 12.6133 52.07 12.68 52.03C12.94 51.8767 13.09 51.6633 13.13 51.39C13.17 51.0967 13.3 50.8533 13.52 50.66L18.95 45.91C18.9651 45.8973 18.9834 45.8888 19.0029 45.8856C19.0224 45.8823 19.0424 45.8844 19.0608 45.8916C19.0792 45.8987 19.0954 45.9107 19.1075 45.9263C19.1197 45.9418 19.1275 45.9604 19.13 45.98C19.1367 46.0667 19.1733 46.15 19.24 46.23C19.2544 46.2471 19.2721 46.2612 19.292 46.2715C19.3119 46.2817 19.3336 46.288 19.3559 46.2898C19.3782 46.2917 19.4006 46.2891 19.4219 46.2823C19.4432 46.2754 19.463 46.2645 19.48 46.25C19.6267 46.1367 19.8 46.0533 20 46C20.0467 45.9867 20.0133 45.6733 19.9 45.06C19.8733 44.9267 19.9167 44.8067 20.03 44.7C20.09 44.64 20.13 44.6533 20.15 44.74C20.2167 45.0667 20.4167 45.34 20.75 45.56Z" fill="#80E9AB"/>
</svg>
