<?xml version="1.0" encoding="UTF-8"?>
<svg width="71px" height="93px" viewBox="0 0 71 93" version="1.1" xmlns="http://www.w3.org/2000/svg" xmlns:xlink="http://www.w3.org/1999/xlink">
    <!-- Generator: Sketch 54.1 (76490) - https://sketchapp.com -->
    <title>Screenshot 2023-10-19 at 1.21.17 PM</title>
    <desc>Created with Sketch.</desc>
    <g id="logos" stroke="none" stroke-width="1" fill="none" fill-rule="evenodd">
        <g id="Screenshot-2023-10-19-at-1.21.17-PM" fill-rule="nonzero">
            <path d="M35.41,0.47 C35.6766667,-0.0633333333 36.0333333,-0.13 36.48,0.27 C43.88,6.93 51.2933333,13.6866667 58.72,20.54 C62.98,24.4666667 65.8133333,27.74 67.22,30.36 C71.85,38.99 71.01,50.11 65.31,58.07 C62.21,62.4 54.8,69.82 49.77,75.52 C49.67,75.6266667 49.5766667,75.6733333 49.49,75.66 C49.3366667,75.6266667 49.3066667,75.5466667 49.4,75.42 C56.9333333,64.98 56.45,54.94 47.95,45.3 C43.96,40.78 34.38,34.33 31.41,28.43 C27.32,20.3 31.54,8.26 35.41,0.47 Z" id="Path" fill="#C5D444"></path>
            <path d="M4.07,62.41 C-2.15,51.5 0.45,38.75 9.15,29.41 C14.1166667,24.0633333 19.01,18.74 23.83,13.44 C23.9793821,13.269081 24.2326759,13.2361821 24.4207643,13.3632688 C24.6088527,13.4903556 24.6728384,13.7376326 24.57,13.94 C22.7233333,17.8133333 21.2733333,21.8566667 20.22,26.07 C18.23,34.05 18.64,40.77 24.79,46.22 C30.06,50.89 35.2,54.83 38.55,60.25 C45.0833333,70.8033333 44.2533333,81.2533333 36.06,91.6 C35.846006,91.8691491 35.5307156,92.0381245 35.18944,92.0665641 C34.8481644,92.0950038 34.5115495,91.9803539 34.26,91.75 C27.54,85.6366667 20.9133333,79.63 14.38,73.73 C9.07333333,68.9366667 5.63666667,65.1633333 4.07,62.41 Z" id="Path" fill="#489CAB"></path>
        </g>
    </g>
</svg>