<?xml version="1.0" encoding="UTF-8"?>
<svg width="133px" height="145px" viewBox="0 0 133 145" version="1.1" xmlns="http://www.w3.org/2000/svg" xmlns:xlink="http://www.w3.org/1999/xlink">
    <!-- Generator: Sketch 54.1 (76490) - https://sketchapp.com -->
    <title>Shape</title>
    <desc>Created with Sketch.</desc>
    <g id="logos" stroke="none" stroke-width="1" fill="none" fill-rule="evenodd">
        <path d="M132,58.2 C132,39.6 131.9,23.6 132,17.6 C132,5.3 126.5,1.6 123.3,0.5 C118.3,-1.2 112.5,1.3 108.4,6.7 C106.4,9.4 96.3,23.5 85.4,38.6 L89.8,47.4 C101.7,30.9 113.3,14.8 115.4,11.8 C117.2,9.3 119.4,8.3 120.5,8.7 C121.8,9.1 123.2,12 123.2,17.5 C123.2,23.4 123.2,39.5 123.3,58.1 C123.3,86.1 123.4,120.4 123.3,128.9 C112.4,107.2 78,38.9 74.4,31.5 C70.4,23.4 66.1,19.8 60.6,19.8 L60.4,19.8 C54.2,19.9 49.6,23.9 46.6,32.1 C46.1,33.4 45.3,35.8 44.2,39.2 C43.3,42.1 42.1,45.8 40.7,49.9 L47.7,56.7 C49.7,50.9 51.3,45.7 52.5,41.9 C53.5,38.7 54.3,36.2 54.7,35.1 C57.2,28.5 59.4,28.5 60.4,28.5 C62.1,28.5 64.1,30.8 66.4,35.4 C70,42.7 104.2,110.6 115.3,132.6 C114.8,132.2 114.4,131.7 113.8,131.2 C106.8,124.3 82,100.1 69.4,87.6 L64.3,94.8 C77.3,107.5 100.9,130.8 107.8,137.5 C112.5,142.1 116.9,144.4 120.8,144.4 C122.1,144.4 123.3,144.2 124.4,143.7 C130.6,141.2 132,133.1 132,130.5 C132.1,125.3 132,89.6 132,58.2 Z M64.5,82.9 C66.8,79.7 70.7,74.4 75.3,67.9 L70.9,59.1 L55.2,80.8 L55.1,81 L53,83.9 C47.4,91.8 32.4,112.8 25.3,122.7 C28.5,113.2 34.2,96.6 39.7,80.3 L32.7,73.5 C26.5,91.6 20,110.8 16.6,120.9 C15.7,113 12.3,82.6 10.3,64.1 L9.4,55.8 C8.8,50.7 9.8,47.7 10.9,47.1 C11.1,46.9 11.5,46.9 11.8,46.9 C13.5,46.9 16.6,48.2 20.5,51.9 C24,55.3 38.8,69.8 48,78.9 L53.1,71.8 C43.9,62.7 29.9,49 26.5,45.7 C19.5,39 12.4,36.6 7,39.3 C4.1,40.7 -0.7,44.9 0.7,56.8 L1.6,65.1 C3.7,83.9 7.2,115.5 7.9,122.3 C8.5,128.1 12.6,133.3 17.8,134.6 C18.7,134.8 19.6,135 20.6,135 C26.4,135 30.5,130.3 32.1,127.9 C38.7,118.6 53,98.6 59.1,90 L59.1,90 L64.5,82.9 Z" id="Shape" fill="#000000" fill-rule="nonzero"></path>
    </g>
</svg>