<?xml version="1.0" encoding="UTF-8"?>
<svg width="181px" height="55px" viewBox="0 0 181 55" version="1.1" xmlns="http://www.w3.org/2000/svg" xmlns:xlink="http://www.w3.org/1999/xlink">
    <!-- Generator: Sketch 54.1 (76490) - https://sketchapp.com -->
    <title>Screenshot 2023-10-18 at 11.02.30 AM</title>
    <desc>Created with Sketch.</desc>
    <g id="logos" stroke="none" stroke-width="1" fill="none" fill-rule="evenodd">
        <g id="Screenshot-2023-10-18-at-11.02.30-AM" transform="translate(90.500000, 27.500000) rotate(-1.000000) translate(-90.500000, -27.500000) translate(0.000000, -1.000000)" fill="#1E3FB9" fill-rule="nonzero">
            <path d="M12.49,36.03 L12.13,53.57 C12.1233333,54.03 11.89,54.2566667 11.43,54.25 L0.79,53.98 C0.343333333,53.9666667 0.126666667,53.7366667 0.14,53.29 L1.16,2.01 C1.16521063,1.86144636 1.22926908,1.72105917 1.33806146,1.61976971 C1.44685383,1.51848026 1.59145313,1.46459989 1.74,1.47 L12.68,1.76 C13.12,1.77333333 13.3233333,2 13.29,2.44 L12.97,6.77 C12.959164,6.92700457 13.0515685,7.07284969 13.1981595,7.13011178 C13.3447504,7.18737387 13.5115457,7.14277865 13.61,7.02 C18.4833333,0.94 24.4133333,-0.703333333 31.4,2.09 C44.61,7.35 44.92,30.36 34.02,38.08 C27.17,42.93 18.75,42.27 12.96,35.85 C12.66,35.5166667 12.5033333,35.5766667 12.49,36.03 Z M20.6,30.9627 C25.2302236,31.14054 29.1538969,26.8556513 29.3638,21.3921 C29.4645981,18.7683834 28.6779695,16.2181929 27.1769646,14.3025448 C25.6759598,12.3868966 23.583534,11.2627119 21.36,11.1773 C16.7297764,10.99946 12.8061031,15.2843487 12.5962,20.7479 C12.4954019,23.3716166 13.2820305,25.9218071 14.7830354,27.8374552 C16.2840402,29.7531034 18.376466,30.8772881 20.6,30.9627 L20.6,30.9627 Z" id="Shape"></path>
            <path d="M74,7.74 L73.77,3.65 C73.7588155,3.4690379 73.8237211,3.29162845 73.9490449,3.16060813 C74.0743686,3.0295878 74.2487197,2.95686535 74.43,2.96 L85.68,3.16 C86.02,3.16666667 86.1866667,3.34 86.18,3.68 L85.65,30.18 C85.6366667,30.5933333 85.8066667,30.9066667 86.16,31.12 L88.09,32.29 C88.3966667,32.4766667 88.55,32.75 88.55,33.11 L88.47,40.83 C88.4633333,41.13 88.3133333,41.31 88.02,41.37 C81.6533333,42.77 76.8366667,40.86 73.57,35.64 C73.3766667,35.3333333 73.18,35.33 72.98,35.63 C69.6866667,40.6566667 64.96,42.6466667 58.8,41.6 C39.09,38.25 40.22,4.68 60.09,1.8 C65.4766667,1.02 69.9833333,3.04666667 73.61,7.88 C73.8966667,8.26666667 74.0266667,8.22 74,7.74 Z M65.0124,31.8539 C69.6211569,32.0148337 73.5129166,27.6887907 73.7049,22.1914 C73.8968529,16.6940183 70.3163478,12.1070515 65.7076,11.9461 C61.0988431,11.7851663 57.2070834,16.1112093 57.0151,21.6086 C56.8231471,27.1059817 60.4036522,31.6929485 65.0124,31.8539 L65.0124,31.8539 Z" id="Shape"></path>
            <path d="M104.16,37.75 L103.84,55.5 C103.834426,55.8257975 103.570276,56.0854712 103.25,56.08 L92.21,55.87 C91.7833333,55.8633333 91.5766667,55.6466667 91.59,55.22 L92.63,3.84 C92.6366667,3.48666667 92.8133333,3.31333333 93.16,3.32 L104.26,3.56 C104.44477,3.56529954 104.619735,3.64343957 104.745684,3.77690757 C104.871633,3.91037557 104.938032,4.08801002 104.93,4.27 L104.72,8.77 C104.710514,8.88140565 104.776155,8.98556406 104.880749,9.02507733 C104.985343,9.0645906 105.103456,9.02985008 105.17,8.94 C113.83,-1.57 128.62,2.18 132.35,14.88 C135.51,25.66 132.04,39.84 119.47,42.66 C113.783333,43.9333333 108.783333,42.2566667 104.47,37.63 C104.27,37.4166667 104.166667,37.4566667 104.16,37.75 Z M112.0829,32.7726 C116.702873,33.0470224 120.710941,28.84496 121.0352,23.387 C121.190926,20.765975 120.458936,18.1999354 119.000259,16.2533821 C117.541582,14.3068289 115.475705,13.1392139 113.2571,13.0074 C108.637127,12.7329776 104.629059,16.93504 104.3048,22.393 C104.149074,25.014025 104.881064,27.5800646 106.339741,29.5266179 C107.798418,31.4731711 109.864295,32.6407861 112.0829,32.7726 Z" id="Shape"></path>
            <path d="M165.51,9.51 L165.52,5.52 C165.52,5.05333333 165.756667,4.82333333 166.23,4.83 L177.29,5.06 C177.73,5.06666667 177.933333,5.29 177.9,5.73 C177.213333,15.85 176.996667,24.27 177.25,30.99 C177.31,32.55 178.16,33.5833333 179.8,34.09 C180.12,34.19 180.28,34.4066667 180.28,34.74 L180.17,42.66 C180.165252,43.0772801 179.836773,43.4188975 179.42,43.44 C178.546667,43.4733333 177.333333,43.4733333 175.78,43.44 C170.753333,43.3266667 167.266667,41.3233333 165.32,37.43 C165.18,37.1433333 165.016667,37.1333333 164.83,37.4 C157.2,48.29 141.8,44.38 137.78,32.5 C134.1,21.61 137.36,7.7 149.6,4.1 C156.013333,2.21333333 161.156667,4.06666667 165.03,9.66 C165.35,10.12 165.51,10.07 165.51,9.51 Z M156.6877,33.7027 C161.29587,33.8796681 165.202674,29.5671903 165.4138,24.0705 C165.515204,21.4308908 164.733374,18.8656219 163.240303,16.9390232 C161.747232,15.0124245 159.665225,13.8823129 157.4523,13.7973 C152.84413,13.6203319 148.937326,17.9328097 148.7262,23.4295 C148.624796,26.0691092 149.406626,28.6343781 150.899697,30.5609768 C152.392768,32.4875755 154.474775,33.6176871 156.6877,33.7027 L156.6877,33.7027 Z" id="Shape"></path>
        </g>
    </g>
</svg>