<svg width="176" height="202" viewBox="0 0 176 202" fill="none" xmlns="http://www.w3.org/2000/svg">
<path d="M164.04 165.36C164.04 172.34 161.267 179.035 156.331 183.971C151.395 188.907 144.701 191.68 137.72 191.68H36.3C29.3195 191.68 22.6249 188.907 17.689 183.971C12.753 179.035 9.98001 172.34 9.98001 165.36V38.62C9.98001 31.6395 12.753 24.9449 17.689 20.009C22.6249 15.073 29.3195 12.3 36.3 12.3H137.72C144.701 12.3 151.395 15.073 156.331 20.009C161.267 24.9449 164.04 31.6395 164.04 38.62V165.36ZM148.93 38.7518C148.927 37.2403 148.627 35.7441 148.046 34.3486C147.465 32.9532 146.615 31.6858 145.544 30.6189C144.474 29.5519 143.203 28.7063 141.806 28.1304C140.408 27.5544 138.911 27.2593 137.4 27.2619L36.3597 27.4383C34.8482 27.4409 33.352 27.7413 31.9566 28.3221C30.5611 28.903 29.2937 29.753 28.2268 30.8237C27.1599 31.8944 26.3143 33.1647 25.7383 34.5622C25.1623 35.9597 24.8672 37.4569 24.8698 38.9684L25.0903 165.308C25.0929 166.82 25.3933 168.316 25.9741 169.711C26.555 171.107 27.4051 172.374 28.4757 173.441C29.5464 174.508 30.8167 175.354 32.2142 175.93C33.6117 176.506 35.1089 176.801 36.6204 176.798L137.66 176.622C139.172 176.619 140.668 176.319 142.063 175.738C143.459 175.157 144.726 174.307 145.793 173.236C146.86 172.166 147.706 170.895 148.282 169.498C148.858 168.1 149.153 166.603 149.15 165.092L148.93 38.7518Z" fill="#4F5C6A"/>
<path d="M124.077 55.7653L49.9172 55.8947C45.9076 55.9017 42.6628 59.1578 42.6698 63.1674L42.6703 63.4474C42.6773 67.457 45.9334 70.7017 49.943 70.6947L124.103 70.5653C128.112 70.5583 131.357 67.3022 131.35 63.2926L131.35 63.0126C131.343 59.003 128.087 55.7583 124.077 55.7653Z" fill="#7496CB"/>
<path d="M124.093 94.6447L49.933 94.5153C45.9124 94.5083 42.6473 97.7619 42.6403 101.783L42.6398 102.063C42.6328 106.083 45.8865 109.348 49.9071 109.355L124.067 109.485C128.088 109.492 131.353 106.238 131.36 102.217L131.36 101.937C131.367 97.9168 128.114 94.6517 124.093 94.6447Z" fill="#D53840"/>
<path d="M124.09 132.51H49.91C45.9059 132.51 42.66 135.756 42.66 139.76V140.04C42.66 144.044 45.9059 147.29 49.91 147.29H124.09C128.094 147.29 131.34 144.044 131.34 140.04V139.76C131.34 135.756 128.094 132.51 124.09 132.51Z" fill="#60A47E"/>
</svg>
