<?xml version="1.0" encoding="UTF-8" standalone="no"?>
<!DOCTYPE svg PUBLIC "-//W3C//DTD SVG 1.1//EN" "http://www.w3.org/Graphics/SVG/1.1/DTD/svg11.dtd">
<svg xmlns="http://www.w3.org/2000/svg" version="1.1" viewBox="0.00 0.00 1486.00 301.00">
<path fill="#ffffff" d="
  M 123.01 26.26
  C 90.65 21.44 45.95 28.87 43.19 70.51
  C 41.38 97.80 55.03 111.42 79.26 120.52
  C 99.00 127.92 119.56 131.72 139.48 138.54
  C 166.57 147.81 195.22 163.69 202.76 193.49
  Q 205.92 205.99 205.30 220.25
  C 204.17 246.66 191.07 268.44 168.45 281.30
  C 145.26 294.49 116.20 296.82 90.00 293.87
  C 45.34 288.84 12.47 261.47 6.58 215.75
  Q 6.52 215.25 7.02 215.25
  L 29.73 215.25
  Q 30.23 215.25 30.33 215.74
  C 40.54 263.13 78.99 278.27 123.26 274.01
  C 161.55 270.32 185.59 247.54 180.14 207.24
  C 177.35 186.69 163.41 174.03 145.52 165.78
  Q 127.70 157.56 110.00 153.42
  C 90.61 148.89 71.78 143.28 54.76 134.46
  C 35.11 124.28 21.83 109.25 19.19 86.75
  C 14.66 48.21 36.21 18.13 73.05 8.45
  C 127.18 -5.79 191.38 12.57 199.67 76.48
  Q 199.74 77.00 199.22 77.00
  L 176.50 77.00
  Q 175.98 77.00 175.87 76.49
  C 169.49 48.33 151.97 30.57 123.01 26.26
  Z"
/>
<path fill="#ffffff" d="
  M 1340.07 109.62
  C 1356.79 96.94 1379.46 93.93 1400.00 95.66
  C 1469.52 101.53 1491.15 172.20 1473.21 229.95
  C 1461.64 267.16 1432.73 289.58 1394.75 295.26
  C 1337.33 303.84 1276.03 282.20 1266.60 217.26
  Q 1266.49 216.50 1267.26 216.50
  L 1328.27 216.50
  Q 1328.81 216.50 1329.01 217.00
  Q 1330.31 220.40 1331.69 223.67
  Q 1340.55 244.68 1363.25 248.29
  C 1408.57 255.51 1420.93 214.35 1414.91 178.99
  C 1410.01 150.28 1386.79 141.36 1360.48 145.73
  Q 1338.44 149.39 1330.08 170.02
  Q 1329.51 171.43 1328.86 172.81
  A 0.81 0.81 0.0 0 1 1328.02 173.27
  L 1272.76 166.15
  Q 1272.25 166.09 1272.35 165.59
  Q 1275.69 148.61 1277.02 140.76
  Q 1288.40 73.42 1296.81 5.65
  Q 1296.86 5.25 1297.27 5.25
  L 1470.96 5.25
  A 0.41 0.40 4.8 0 1 1471.36 5.72
  L 1462.70 55.82
  Q 1462.63 56.25 1462.19 56.25
  L 1348.60 56.25
  Q 1348.17 56.25 1348.10 56.67
  L 1339.56 109.31
  Q 1339.43 110.11 1340.07 109.62
  Z"
/>
<path fill="#ffffff" d="
  M 322.57 131.25
  L 490.43 131.25
  A 0.32 0.32 0.0 0 0 490.75 130.93
  L 490.75 8.32
  A 0.32 0.32 0.0 0 1 491.07 8.00
  L 513.43 8.00
  A 0.32 0.32 0.0 0 1 513.75 8.32
  L 513.75 291.43
  A 0.32 0.32 0.0 0 1 513.43 291.75
  L 491.07 291.75
  A 0.32 0.32 0.0 0 1 490.75 291.43
  L 490.75 152.82
  A 0.32 0.32 0.0 0 0 490.43 152.50
  L 322.57 152.50
  A 0.32 0.32 0.0 0 0 322.25 152.82
  L 322.25 291.43
  A 0.32 0.32 0.0 0 1 321.93 291.75
  L 299.57 291.75
  A 0.32 0.32 0.0 0 1 299.25 291.43
  L 299.25 8.32
  A 0.32 0.32 0.0 0 1 299.57 8.00
  L 321.93 8.00
  A 0.32 0.32 0.0 0 1 322.25 8.32
  L 322.25 130.93
  A 0.32 0.32 0.0 0 0 322.57 131.25
  Z"
/>
<rect fill="#ffffff" x="629.01" y="8.01" width="22.74" height="283.74" rx="0.44"/>
<path fill="#ffffff" d="
  M 790.00 29.68
  L 790.00 134.57
  A 0.43 0.43 0.0 0 0 790.43 135.00
  L 929.82 135.00
  A 0.43 0.43 0.0 0 1 930.25 135.43
  L 930.25 155.82
  A 0.43 0.43 0.0 0 1 929.82 156.25
  L 790.43 156.25
  A 0.43 0.43 0.0 0 0 790.00 156.68
  L 790.00 291.32
  A 0.43 0.43 0.0 0 1 789.57 291.75
  L 767.43 291.75
  A 0.43 0.43 0.0 0 1 767.00 291.32
  L 767.00 8.43
  A 0.43 0.43 0.0 0 1 767.43 8.00
  L 939.07 8.00
  A 0.43 0.43 0.0 0 1 939.50 8.43
  L 939.50 28.82
  A 0.43 0.43 0.0 0 1 939.07 29.25
  L 790.43 29.25
  A 0.43 0.43 0.0 0 0 790.00 29.68
  Z"
/>
<path fill="#ffffff" d="
  M 1118.00 29.56
  L 1118.00 291.44
  A 0.31 0.31 0.0 0 1 1117.69 291.75
  L 1094.81 291.75
  A 0.31 0.31 0.0 0 1 1094.50 291.44
  L 1094.50 29.56
  A 0.31 0.31 0.0 0 0 1094.19 29.25
  L 1000.06 29.25
  A 0.31 0.31 0.0 0 1 999.75 28.94
  L 999.75 8.31
  A 0.31 0.31 0.0 0 1 1000.06 8.00
  L 1212.94 8.00
  A 0.31 0.31 0.0 0 1 1213.25 8.31
  L 1213.25 28.94
  A 0.31 0.31 0.0 0 1 1212.94 29.25
  L 1118.31 29.25
  A 0.31 0.31 0.0 0 0 1118.00 29.56
  Z"
/>
</svg>
