<?xml version="1.0" encoding="UTF-8"?>
<svg width="253px" height="80px" viewBox="0 0 253 80" version="1.1" xmlns="http://www.w3.org/2000/svg" xmlns:xlink="http://www.w3.org/1999/xlink">
    <!-- Generator: Sketch 54.1 (76490) - https://sketchapp.com -->
    <title>Screenshot 2023-10-05 at 12.42.19 PM</title>
    <desc>Created with Sketch.</desc>
    <g id="logos" stroke="none" stroke-width="1" fill="none" fill-rule="evenodd">
        <g id="Screenshot-2023-10-05-at-12.42.19-PM" fill="#FFFFFF" fill-rule="nonzero">
            <circle id="Oval" cx="76.94" cy="5.41" r="5.27"></circle>
            <circle id="Oval" cx="178.1" cy="5.42" r="5.27"></circle>
            <path d="M109.29,45.99 C106.53,49.5033333 102.813333,50.91 98.14,50.21 C80.26,47.53 81.24,15.66 101.01,15.99 C103.29,16.03 105.526667,16.8666667 107.72,18.5 C108.073333,18.76 108.25,18.67 108.25,18.23 L108.25,1.38 C108.25,0.96 108.46,0.75 108.88,0.75 L117.5,0.75 C117.833333,0.75 118,0.916666667 118,1.25 L118,49.25 C118,49.5833333 117.833333,49.75 117.5,49.75 L110.67,49.75 C110.311015,49.75 110.02,49.4634622 110.02,49.11 L109.99,46.23 C109.991453,46.0621227 109.88531,45.9121539 109.726501,45.8577051 C109.567692,45.8032564 109.39186,45.8565478 109.29,45.99 Z M102.0504,42.5099 C103.978499,42.5200008 105.832854,41.5319703 107.205527,39.7631642 C108.5782,37.9943582 109.356748,35.5896683 109.3699,33.0781 C109.383064,30.5665267 108.62975,28.1538042 107.27568,26.370707 C105.92161,24.5876099 104.077703,23.5802009 102.1496,23.5701 C100.221501,23.5599992 98.3671456,24.5480297 96.9944727,26.3168358 C95.6217999,28.0856418 94.8432516,30.4903317 94.8301,33.0019 C94.8169362,35.5134733 95.5702499,37.9261958 96.9243198,39.709293 C98.2783897,41.4923901 100.122297,42.4997991 102.0504,42.5099 L102.0504,42.5099 Z" id="Shape"></path>
            <path d="M167.08,41.83 L169.22,42.1 C169.524862,42.1403045 169.752047,42.3974942 169.75,42.7 L169.75,48.75 C169.75,49.15 169.556667,49.4066667 169.17,49.52 C161.12,51.89 156.32,48.62 156.29,40.18 C156.23,27.26 156.223333,14.3433333 156.27,1.43 C156.27,0.976666667 156.496667,0.75 156.95,0.75 L165.12,0.75 C165.54,0.75 165.75,0.96 165.75,1.38 L165.75,40.32 C165.749031,41.08674 166.319273,41.734158 167.08,41.83 Z" id="Path"></path>
            <path d="M22.93,47.24 C20.5433333,49.0466667 18.55,50.0233333 16.95,50.17 C3.36,51.41 -1.58,38.92 0.93,27.69 C3.44,16.44 16.01,11.64 24.51,20.44 C24.8366667,20.7733333 25,20.7066667 25,20.24 L25,16.75 C25,16.4738576 25.2238576,16.25 25.5,16.25 L32.23,16.25 C32.5566667,16.25 32.72,16.4166667 32.72,16.75 C32.8066667,28.2633333 32.77,39.7566667 32.61,51.23 C32.38,68.11 8.58,71.27 2.3,57.76 C2.16,57.4666667 2.23666667,57.2466667 2.53,57.1 L8.76,54 C9.13333333,53.8133333 9.40333333,53.91 9.57,54.29 C12.01,59.78 20.17,60.06 22.79,54.87 C23.85,52.78 23.52,49.95 23.49,47.51 C23.49,47.05 23.3033333,46.96 22.93,47.24 Z M16.6265,42.53 C18.5466714,42.5266684 20.3864598,41.5246846 21.74113,39.7444753 C23.0958002,37.964266 23.8543838,35.5516576 23.85,33.0374 C23.845622,30.5231506 23.0786405,28.1132044 21.7177827,26.3377223 C20.3569248,24.5622403 18.5136651,23.5666608 16.5935,23.57 C14.6733286,23.5733316 12.8335402,24.5753154 11.47887,26.3555247 C10.1241998,28.135734 9.36561621,30.5483424 9.37,33.0626 C9.37437796,35.5768494 10.1413595,37.9867956 11.5022173,39.7622777 C12.8630752,41.5377597 14.7063349,42.5333392 16.6265,42.53 L16.6265,42.53 Z" id="Shape"></path>
            <path d="M130.77,37.2 C132.12,44.33 141.18,45.32 144.19,38.86 C144.336667,38.54 144.57,38.4566667 144.89,38.61 L150.84,41.42 C150.986757,41.4878383 151.097801,41.6148086 151.145482,41.7692956 C151.193164,41.9237825 151.172995,42.0912504 151.09,42.23 C146.04,50.73 135.82,52.82 127.92,47.3 C116.06,39.02 120.78,15.87 137.15,16.02 C147.28,16.12 153.18,23.64 152.59,33.53 C152.57,33.9033333 152.373333,34.1133333 152,34.16 L131.17,36.66 C131.043469,36.6745219 130.928623,36.7408533 130.852814,36.8431953 C130.777005,36.9455373 130.74702,37.0747292 130.77,37.2 Z M130.71,30.65 L144.04,29.15 C144.090506,29.1449664 144.136898,29.1199342 144.168834,29.0804843 C144.200769,29.0410345 144.215593,28.9904469 144.21,28.94 L144.2,28.87 C143.780365,25.140843 140.387996,22.4600656 136.62,22.88 L136.56,22.89 C132.790627,23.3125728 130.073438,26.6788429 130.49,30.41 L130.5,30.48 C130.505034,30.5305058 130.530066,30.576898 130.569516,30.6088336 C130.608966,30.6407692 130.659553,30.655593 130.71,30.65 L130.71,30.65 Z" id="Shape"></path>
            <path d="M197.34,19.72 C202.87,14.43 212.71,14.53 216.29,21.57 C219.26,27.41 217.79,42.37 217.73,49.26 C217.723333,49.5866667 217.556667,49.75 217.23,49.75 L208.76,49.75 C208.413333,49.75 208.243333,49.58 208.25,49.24 C208.263333,42.8666667 208.253333,36.5033333 208.22,30.15 C208.16,20.14 197.08,22.36 197.46,30.7 C197.73,36.82 197.48,43.08 197.51,49.23 C197.51,49.5766667 197.336667,49.75 196.99,49.75 L188.75,49.75 C188.25,49.75 188,49.5 188,49 L188,16.88 C188,16.46 188.206667,16.25 188.62,16.25 L195.56,16.25 C195.946667,16.25 196.163333,16.44 196.21,16.82 L196.57,19.45 C196.65,20.0433333 196.906667,20.1333333 197.34,19.72 Z" id="Path"></path>
            <path d="M230.6,37.22 C231.51,44.5 240.76,45.04 244.13,38.84 C244.31,38.5066667 244.566667,38.4233333 244.9,38.59 L250.77,41.47 C250.99,41.5833333 251.053333,41.75 250.96,41.97 C247.51,50.12 237.43,52.01 230.07,48.65 C223.81,45.78 220.72,38.25 221.31,31.55 C223.17,10.4 252.33,10.38 252.75,33.34 C252.756667,33.8466667 252.51,34.13 252.01,34.19 L231.07,36.62 C230.716667,36.66 230.56,36.86 230.6,37.22 Z M230.7,30.68 L243.87,29.13 C243.98773,29.1143958 244.071826,29.0081695 244.06,28.89 L244.05,28.76 C243.615365,25.0577269 240.235218,22.411811 236.5,22.85 L236.42,22.86 C234.625172,23.069734 232.986548,23.9779373 231.864947,25.3846277 C230.743346,26.7913181 230.230739,28.5811463 230.44,30.36 L230.46,30.49 C230.475604,30.6077302 230.58183,30.691826 230.7,30.68 L230.7,30.68 Z" id="Shape"></path>
            <path d="M58.45,46.27 C58.43,46.0633333 58.34,46.0266667 58.18,46.16 C50.37,52.82 37.9,50.96 37.35,39.31 C37.17,35.3966667 37.1566667,27.92 37.31,16.88 C37.3166667,16.46 37.5333333,16.25 37.96,16.25 L46.19,16.25 C46.57,16.25 46.76,16.44 46.76,16.82 C46.7333333,23.5 46.7466667,30.1366667 46.8,36.73 C46.84,43.19 54.26,44.64 56.72,39.43 C58.71,35.2 57.51,21.99 57.49,16.82 C57.49,16.44 57.68,16.25 58.06,16.25 L66.25,16.25 C66.75,16.25 67,16.5 67,17 L67,49.12 C67,49.54 66.79,49.75 66.37,49.75 L59.43,49.75 C59.05,49.75 58.8366667,49.56 58.79,49.18 L58.45,46.27 Z" id="Path"></path>
            <rect id="Rectangle" x="72.25" y="16.26" width="9.5" height="33.5" rx="0.43"></rect>
            <rect id="Rectangle" x="173.25" y="16.25" width="9.76" height="33.5" rx="0.6"></rect>
            <path d="M45,65.59 L45,79.66 C45,79.7501736 44.9641787,79.8366539 44.9004163,79.9004163 C44.8366539,79.9641787 44.7501736,80 44.66,80 L0.84,80 C0.652223185,80 0.5,79.8477768 0.5,79.66 L0.5,73.59 C0.5,73.4022232 0.652223185,73.25 0.84,73.25 L37.86,73.25 C38.0477768,73.25 38.2,73.0977768 38.2,72.91 L38.37,58.84 C38.37,58.6522232 38.5222232,58.5 38.71,58.5 L252.41,58.5 C252.597777,58.5 252.75,58.6522232 252.75,58.84 L252.75,64.91 C252.75,65.0977768 252.597777,65.25 252.41,65.25 L45.34,65.25 C45.1522232,65.25 45,65.4022232 45,65.59 Z" id="Path"></path>
        </g>
    </g>
</svg>