<svg width="450" height="75" viewBox="0 0 450 75" fill="none" xmlns="http://www.w3.org/2000/svg">
<path d="M36.2 40.13C36.182 40.1605 36.1721 40.1953 36.1711 40.2307C36.1701 40.2661 36.1782 40.3008 36.1945 40.3314C36.2108 40.3619 36.2347 40.3872 36.2638 40.4045C36.2929 40.4218 36.3261 40.4306 36.36 40.43L62.29 40.39C62.3638 40.3893 62.4364 40.4085 62.5002 40.4456C62.564 40.4827 62.6166 40.5364 62.6524 40.6009C62.6883 40.6654 62.706 40.7384 62.7039 40.8121C62.7017 40.8859 62.6796 40.9577 62.64 41.02L56.28 51.22C56.1236 51.4706 55.9049 51.6773 55.6442 51.8207C55.3836 51.9641 55.0896 52.0396 54.79 52.04L29.26 52.01C28.9933 52.01 28.7867 52.1267 28.64 52.36L16.59 71.61C16.5255 71.7138 16.4357 71.7994 16.329 71.8589C16.2223 71.9184 16.1022 71.9497 15.98 71.95L2.76 71.96C2.30667 71.96 2.2 71.77 2.44 71.39C16.2267 49.5033 29.98 27.6167 43.7 5.73C46.86 0.69 53.55 0.6 56.88 5.87C70.7267 27.77 84.58 49.6767 98.44 71.59C98.4633 71.6261 98.4764 71.6678 98.4781 71.7108C98.4797 71.7537 98.4698 71.7963 98.4494 71.8341C98.429 71.8719 98.3987 71.9036 98.3619 71.9257C98.3251 71.9478 98.283 71.9597 98.24 71.96L85 71.94C84.8167 71.9404 84.6361 71.8938 84.4752 71.8046C84.3142 71.7153 84.1782 71.5865 84.08 71.43L50.72 18.42C50.6857 18.3637 50.6377 18.317 50.5805 18.2842C50.5233 18.2515 50.4587 18.2338 50.3928 18.2328C50.3268 18.2318 50.2617 18.2475 50.2035 18.2785C50.1454 18.3095 50.096 18.3547 50.06 18.41L36.2 40.13Z" fill="white"/>
<path d="M153.32 43.81C152.687 43.7967 152.597 44.01 153.05 44.45L180.8 71.19C181.333 71.71 181.23 71.9667 180.49 71.96L165.8 71.95C164.966 71.9438 164.167 71.6179 163.57 71.04L124.29 32.9C123.843 32.4667 123.93 32.25 124.55 32.25C134.597 32.2567 144.76 32.2567 155.04 32.25C160.57 32.25 165.31 32.34 167.94 27.97C171.95 21.3 167.35 13.87 159.75 13.84C145.397 13.7867 131.073 13.75 116.78 13.73C116.593 13.73 116.5 13.8267 116.5 14.02V71.48C116.5 71.8 116.34 71.96 116.02 71.96L103.8 71.95C103.697 71.95 103.597 71.9078 103.524 71.8328C103.451 71.7578 103.41 71.6561 103.41 71.55V2.35C103.41 2.27574 103.44 2.20452 103.492 2.15201C103.545 2.0995 103.616 2.07 103.69 2.07C120.697 2.10333 137.72 2.1 154.76 2.06C161.033 2.04 165.473 2.52 168.08 3.5C182.31 8.84 185.25 28.42 174.24 38.5C167.92 44.29 161.6 44 153.32 43.81Z" fill="white"/>
<path d="M206.681 2.18072L194.461 2.15939C194.207 2.15895 194.001 2.36453 194 2.61859L193.88 71.4785C193.879 71.7325 194.085 71.9388 194.339 71.9393L206.559 71.9606C206.813 71.9611 207.019 71.7555 207.02 71.5014L207.14 2.64152C207.141 2.38747 206.935 2.18116 206.681 2.18072Z" fill="white"/>
<path d="M279.58 59.68C283.93 57.87 285.58 53.27 284.23 48.74C282.75 43.79 278.3 43.18 273.33 43.18C262.89 43.1933 252.447 43.19 242 43.17C238.353 43.1633 235.553 42.8433 233.6 42.21C225.83 39.72 219.93 32.5 219.31 24.46C218.42 12.96 227.43 1.95 239.5 1.99C256.94 2.05 274.313 2.08667 291.62 2.1C291.686 2.10023 291.751 2.11829 291.808 2.15228C291.865 2.18627 291.912 2.23495 291.944 2.29322C291.975 2.35149 291.991 2.41721 291.988 2.48349C291.986 2.54978 291.966 2.6142 291.93 2.67L285.16 13.5C284.947 13.84 284.64 14.01 284.24 14.01C270.16 13.9833 256.087 13.98 242.02 14C239.047 14.0067 236.93 14.3233 235.67 14.95C229.62 17.96 229.6 27.24 235.48 30.14C236.98 30.88 239.547 31.2467 243.18 31.24C252.887 31.2267 262.59 31.2267 272.29 31.24C277.403 31.24 281.15 31.72 283.53 32.68C293.22 36.59 299.1 47.76 295.72 57.75C293.09 65.49 286.28 71.93 277.74 71.94C258.98 71.9533 240.263 71.9567 221.59 71.95C221.33 71.95 221.267 71.84 221.4 71.62L227.92 60.96C228.02 60.7982 228.16 60.6646 228.326 60.5719C228.493 60.4792 228.68 60.4303 228.87 60.43C243.883 60.4633 258.927 60.4633 274 60.43C276.527 60.4233 278.387 60.1733 279.58 59.68Z" fill="white"/>
<path d="M341.58 14.11L341.6 71.62C341.6 71.6646 341.591 71.7089 341.574 71.7501C341.557 71.7914 341.532 71.8288 341.5 71.8604C341.469 71.892 341.431 71.917 341.39 71.9341C341.349 71.9512 341.305 71.96 341.26 71.96L329.09 71.95C329 71.95 328.913 71.9142 328.85 71.8504C328.786 71.7867 328.75 71.7002 328.75 71.61V14.11C328.75 14.0198 328.714 13.9333 328.65 13.8696C328.587 13.8058 328.5 13.77 328.41 13.77L298.06 13.81C297.998 13.8115 297.936 13.7958 297.882 13.7646C297.828 13.7335 297.784 13.688 297.754 13.6333C297.724 13.5786 297.709 13.5167 297.712 13.4544C297.715 13.392 297.735 13.3317 297.77 13.28L305.17 2.23C305.201 2.18409 305.243 2.14643 305.291 2.12029C305.34 2.09415 305.395 2.08032 305.45 2.08L368.91 2.09C369 2.09 369.087 2.12582 369.15 2.18958C369.214 2.25335 369.25 2.33983 369.25 2.43L369.24 13.47C369.24 13.5146 369.231 13.5589 369.214 13.6001C369.197 13.6414 369.172 13.6788 369.14 13.7104C369.109 13.742 369.071 13.767 369.03 13.7841C368.989 13.8012 368.945 13.81 368.9 13.81L341.92 13.77C341.875 13.77 341.831 13.7788 341.79 13.7959C341.749 13.813 341.711 13.838 341.68 13.8696C341.648 13.9012 341.623 13.9386 341.606 13.9799C341.589 14.0211 341.58 14.0654 341.58 14.11Z" fill="white"/>
<path d="M386.37 40.41L411.73 40.36C411.826 40.3603 411.919 40.386 412.002 40.4345C412.084 40.4829 412.152 40.5524 412.199 40.6358C412.246 40.7192 412.27 40.8135 412.268 40.9092C412.267 41.0048 412.24 41.0982 412.19 41.18L406.25 50.87C406.033 51.2274 405.727 51.5229 405.361 51.7278C404.995 51.9328 404.581 52.0403 404.16 52.04L379.07 52.01C378.73 52.01 378.467 52.1567 378.28 52.45L366.38 71.59C366.31 71.7 366.213 71.7906 366.1 71.8535C365.986 71.9164 365.859 71.9496 365.73 71.95L352.52 71.96C352.033 71.96 351.92 71.7533 352.18 71.34C366.033 49.2267 379.907 27.14 393.8 5.08C396.47 0.84 403.59 1.04 406.15 5.09C420.023 27.07 433.95 49.0933 447.93 71.16C447.98 71.2387 448.008 71.3295 448.012 71.4229C448.015 71.5163 447.992 71.6087 447.947 71.6906C447.902 71.7725 447.836 71.8407 447.756 71.8881C447.675 71.9355 447.583 71.9603 447.49 71.96L434.55 71.94C434.396 71.9397 434.245 71.9011 434.11 71.8277C433.976 71.7543 433.862 71.6485 433.78 71.52L400.41 18.49C400.183 18.13 399.96 18.1233 399.74 18.47L386.1 39.92C386.07 39.9683 386.053 40.0239 386.051 40.081C386.05 40.138 386.063 40.1945 386.091 40.2444C386.118 40.2944 386.159 40.3361 386.208 40.3652C386.257 40.3943 386.313 40.4098 386.37 40.41Z" fill="white"/>
</svg>
