<?xml version="1.0" encoding="UTF-8"?>
<svg width="170px" height="46px" viewBox="0 0 170 46" version="1.1" xmlns="http://www.w3.org/2000/svg" xmlns:xlink="http://www.w3.org/1999/xlink">
    <!-- Generator: Sketch 54.1 (76490) - https://sketchapp.com -->
    <title>Screenshot 2023-10-19 at 8.35.03 PM</title>
    <desc>Created with Sketch.</desc>
    <g id="logos" stroke="none" stroke-width="1" fill="none" fill-rule="evenodd">
        <g id="Screenshot-2023-10-19-at-8.35.03-PM" fill="#232B52" fill-rule="nonzero">
            <path d="M105.25,11.73 L105.25,2.47 C105.25,1.53666667 105.713333,1.05333333 106.64,1.02 C107.986667,0.973333333 109.536667,0.976666667 111.29,1.03 C112.53,1.07 113.11,1.75 113.03,3.07 C113.003333,3.56333333 112.99,3.85 112.99,3.93 C113.01,16.6166667 113.01,29.1233333 112.99,41.45 C112.99,42.53 112.466667,43.2 111.42,43.46 C99.31,46.41 86.25,46.62 86.24,30.28 C86.24,27.38 86.07,24.23 86.62,21.63 C88.63,12.1 96.68,11.59 104.75,12.19 C105.083333,12.2166667 105.25,12.0633333 105.25,11.73 Z M105.26,37.68 L105.26,19.14 C105.26,18.5435325 104.776468,18.06 104.18,18.06 L99.32,18.06 C96.2492968,18.06 93.76,20.8403117 93.76,24.27 L93.76,32.55 C93.76,35.9796883 96.2492968,38.76 99.32,38.76 L104.18,38.76 C104.776468,38.76 105.26,38.2764675 105.26,37.68 L105.26,37.68 Z" id="Shape"></path>
            <path d="M8.22,14.08 C10.5666667,12.5733333 13.1566667,11.82 15.99,11.82 C16.4042136,11.82 16.74,12.1557864 16.74,12.57 L16.73,17.58 C16.7299484,17.9185439 16.4539601,18.1945322 16.11,18.2 C13.3366667,18.22 10.7033333,18.8366667 8.21,20.05 C7.90333333,20.1966667 7.75,20.44 7.75,20.78 L7.75,43.5 C7.75,44.0522847 7.30228475,44.5 6.75,44.5 L1.25,44.5 C0.69771525,44.5 0.25,44.0522847 0.25,43.5 L0.25,12.88 C0.25,12.5375835 0.527583455,12.26 0.87,12.26 L6.55,12.25 C6.88603366,12.24998 7.18026037,12.47065 7.27,12.79 L7.57,13.83 C7.67666667,14.2033333 7.89333333,14.2866667 8.22,14.08 Z" id="Path"></path>
            <path d="M27.24,31.52 C27.23,38.3 31.95,38.64 37.63,38.32 C40.1233333,38.1733333 42.6433333,38.0533333 45.19,37.96 C45.3393026,37.9545672 45.4843911,38.0101061 45.5919032,38.1138458 C45.6994152,38.2175855 45.7600988,38.3605987 45.76,38.51 L45.74,42.98 C45.74,43.3866667 45.5466667,43.6366667 45.16,43.73 C37.73,45.56 26.88,46.48 22.21,39.77 C18.42,34.33 18.29,21.97 22.59,16.66 C28.54,9.29 43.33,10.34 46,20.51 C46.7866667,23.5033333 47.11,26.5333333 46.97,29.6 C46.93,30.5333333 46.4433333,31 45.51,31 L27.76,31 C27.4728119,31 27.24,31.2328119 27.24,31.52 L27.24,31.52 Z M27.58,25.75 L38.94,25.75 C39.1112083,25.75 39.25,25.6112083 39.25,25.44 L39.25,24.47 C39.25,21.1452458 36.7114545,18.45 33.58,18.45 L32.94,18.45 C29.8085455,18.45 27.27,21.1452458 27.27,24.47 L27.27,25.44 C27.27,25.6112083 27.4087917,25.75 27.58,25.75 L27.58,25.75 Z" id="Shape"></path>
            <path d="M61.44,14.02 C68.12,10.41 79.26,10.58 79.65,20.76 C79.8433333,25.6266667 79.8533333,33.3366667 79.68,43.89 C79.6745371,44.2229143 79.4075015,44.4899498 79.08,44.49 L72.94,44.48 C72.5699692,44.48 72.27,44.1800308 72.27,43.81 C72.2233333,36.6633333 72.2366667,29.5666667 72.31,22.52 C72.37,16.29 64.93,18.21 61.37,20.15 C61.1233333,20.2833333 61,20.4933333 61,20.78 L61,43.82 C61,44.1845079 60.7045079,44.48 60.34,44.48 L54.15,44.5 C53.9776093,44.5 53.8122792,44.4315181 53.6903806,44.3096194 C53.5684819,44.1877208 53.5,44.0223907 53.5,43.85 L53.5,13.25 C53.5,12.6977153 53.9477153,12.25 54.5,12.25 L59.61,12.25 C59.99,12.25 60.25,12.4266667 60.39,12.78 L60.81,13.8 C60.9366667,14.1066667 61.1466667,14.18 61.44,14.02 Z" id="Path"></path>
            <path d="M161.25,14.07 C163.616667,12.5366667 166.236667,11.79 169.11,11.83 C169.44465,11.8353554 169.714645,12.1053497 169.72,12.44 L169.76,17.46 C169.760037,17.8648171 169.43478,18.1945295 169.03,18.2 C166.283333,18.2266667 163.673333,18.8466667 161.2,20.06 C160.906667,20.2066667 160.76,20.4433333 160.76,20.77 L160.75,43.8 C160.75,44.1755536 160.445554,44.48 160.07,44.48 L153.91,44.49 C153.545492,44.49 153.25,44.1945079 153.25,43.83 L153.25,13 C153.25,12.5857864 153.585786,12.25 154,12.25 L159.54,12.26 C159.906667,12.26 160.143333,12.4333333 160.25,12.78 L160.58,13.83 C160.693333,14.21 160.916667,14.29 161.25,14.07 Z" id="Path"></path>
            <path d="M126.98,31.53 C127.02,38.49 131.93,38.64 137.71,38.31 C140.083333,38.17 142.473333,38.05 144.88,37.95 C145.3,37.93 145.506667,38.13 145.5,38.55 L145.48,43.15 C145.48,43.5566667 145.28,43.8 144.88,43.88 C130.48,46.7 118.54,45.26 119.24,27.06 C119.62,17.04 124.29,10.91 135.49,12.24 C144.96,13.36 147.08,21.61 146.73,29.64 C146.69,30.5466667 146.216667,31 145.31,31 L127.51,31 C127.156667,31 126.98,31.1766667 126.98,31.53 Z M127.26,25.76 L138.76,25.74 C138.881503,25.74 138.98,25.6415026 138.98,25.52 L138.97,24.45 C138.964011,21.1421767 136.50619,18.4649872 133.48,18.47 L132.5,18.47 C131.046465,18.4724025 129.653528,19.1059236 128.627679,20.2311693 C127.60183,21.3564149 127.027119,22.8811911 127.03,24.47 L127.04,25.54 C127.04,25.6615026 127.138497,25.76 127.26,25.76 Z" id="Shape"></path>
        </g>
    </g>
</svg>